<?xml version="1.0" encoding="UTF-8" standalone="no"?>
<!DOCTYPE svg PUBLIC "-//W3C//DTD SVG 1.1//EN" "http://www.w3.org/Graphics/SVG/1.1/DTD/svg11.dtd">
<svg width="100%" height="100%" viewBox="0 0 987 695" version="1.1" xmlns="http://www.w3.org/2000/svg" xmlnsxlink="http://www.w3.org/1999/xlink" xmlspace="preserve" xmlnsserif="http://www.serif.com/" style="fill-rule:evenodd;clip-rule:evenodd;stroke-linecap:round;stroke-linejoin:round;stroke-miterlimit:1.5;">
    <g transform="matrix(1,0,0,1,-18.7226,-164.843)">
        <rect id="Artboard1" x="0" y="0" width="1024" height="1024" style="fill:none;"/>
        <g id="Artboard11" serifid="Artboard1">
            <g transform="matrix(0.910649,0.0769253,-0.0777658,0.920599,150.396,-47.0612)">
                <g id="Layer1">
                    <g>
                        <g transform="matrix(1.29367,-0.223525,0.216763,1.25454,-385.993,52.5784)">
                            <ellipse cx="544.515" cy="663.586" rx="412.46" ry="138.319" style="fill:white;fill-opacity:0.5;"/>
                        </g>
                        <g transform="matrix(0.875493,0,0,0.875493,308.231,27.755)">
                            <path d="M768.446,712.829L619.627,666.503L442.89,811.59L695.232,799.224L768.446,712.829Z" style="fill-opacity:0.5;"/>
                        </g>
                        <path d="M768.446,712.829L619.627,666.503L442.89,811.59L695.232,799.224L768.446,712.829Z" style="fill-opacity:0.5;"/>
                        <g transform="matrix(1.14278,1.38778e-17,-1.38778e-17,1.14278,-356.686,-30.4405)">
                            <path d="M768.446,712.829L619.627,666.503L442.89,811.59L695.232,799.224L768.446,712.829Z" style="fill-opacity:0.5;"/>
                        </g>
                        <g transform="matrix(0.875493,0,0,0.875493,308.231,27.755)">
                            <g transform="matrix(0.828197,0,0,1.77865,369.167,-683.104)">
                                <path d="M269.161,581.93C269.034,581.612 50.373,581.93 50.373,581.93L89.851,840.355L315.14,808.828C315.14,808.828 323.082,717.83 269.161,581.93Z" style="fill:rgb(242,175,13);"/>
                            </g>
                            <g transform="matrix(0.809778,0,0,0.741065,350.285,-80.275)">
                                <path d="M285.747,615.802L92.214,619.7L106.284,783.565L303.982,760.086L285.747,615.802Z"/>
                            </g>
                            <g transform="matrix(0.814238,0,0,0.741065,394.672,-244.35)">
                                <path d="M319.372,632.452L92.214,619.7L80.199,753.424L320.319,750.394L319.372,632.452Z" style="fill:rgb(242,175,13);"/>
                            </g>
                            <g transform="matrix(1,0,0,1,-2,0)">
                                <path d="M600.552,626.52L603.194,686.804L624.957,680.565L621.97,620.289L600.552,626.52Z" style="fill-opacity:0.5;"/>
                            </g>
                            <g>
                                <path d="M618.676,500.398L426.958,525.267L422.958,525.267L491.041,565.205C491.041,565.205 663.06,567.495 674.101,537.858C674.41,537.027 618.676,500.398 618.676,500.398Z" style="fill:rgb(148,17,0);"/>
                                <path d="M674.101,539.485C666.829,573.315 623.957,586.489 623.957,586.489L431.661,620.289L491.558,565.205C491.558,565.205 674.455,537.836 674.101,539.485Z" style="fill:rgb(166,89,89);"/>
                                <path d="M491.558,565.205C480.845,603.568 430.149,620.289 430.149,620.289L422.958,525.267C422.958,525.267 491.604,565.039 491.558,565.205Z" style="fill:rgb(255,147,0);"/>
                            </g>
                            <g>
                                <g>
                                    <g>
                                        <ellipse cx="511.743" cy="528.352" rx="13.729" ry="7.322" style="fill:rgb(255,147,0);stroke:black;stroke-width:1.24px;"/>
                                        <g transform="matrix(1,0,0,1,0,-3.20279)">
                                            <ellipse cx="511.743" cy="528.352" rx="13.729" ry="7.322" style="fill:rgb(255,212,121);"/>
                                        </g>
                                    </g>
                                    <g transform="matrix(1,0,0,1,20.1827,17.846)">
                                        <ellipse cx="511.743" cy="528.352" rx="13.729" ry="7.322" style="fill:rgb(255,147,0);stroke:black;stroke-width:1.24px;"/>
                                        <g transform="matrix(1,0,0,1,0,-3.20279)">
                                            <ellipse cx="511.743" cy="528.352" rx="13.729" ry="7.322" style="fill:rgb(255,212,121);"/>
                                        </g>
                                    </g>
                                    <g transform="matrix(0.907409,0,0,0.907409,128.856,39.0233)">
                                        <ellipse cx="511.743" cy="528.352" rx="13.729" ry="7.322" style="fill:rgb(255,147,0);stroke:black;stroke-width:1.37px;"/>
                                        <g transform="matrix(1,0,0,1,0,-3.20279)">
                                            <ellipse cx="511.743" cy="528.352" rx="13.729" ry="7.322" style="fill:rgb(255,212,121);"/>
                                        </g>
                                    </g>
                                    <g transform="matrix(0.907409,0,0,0.907409,147.15,55.2169)">
                                        <ellipse cx="511.743" cy="528.352" rx="13.729" ry="7.322" style="fill:rgb(255,147,0);stroke:black;stroke-width:1.37px;"/>
                                        <g transform="matrix(1,0,0,1,0,-3.20279)">
                                            <ellipse cx="511.743" cy="528.352" rx="13.729" ry="7.322" style="fill:rgb(255,212,121);"/>
                                        </g>
                                    </g>
                                </g>
                                <g transform="matrix(0.961768,0.160649,-0.137853,0.825291,92.3996,0.725273)">
                                    <ellipse cx="562.163" cy="530.8" rx="21.656" ry="13.798" style="stroke:black;stroke-width:1.37px;"/>
                                </g>
                                <g transform="matrix(1.04314,0,0,1,-24.9146,0)">
                                    <path d="M577.477,490.742L569.071,490.742L555.37,533.369C555.37,533.369 559.266,537.968 563.776,533.369C563.892,533.251 577.477,490.742 577.477,490.742Z" style="fill:rgb(229,242,13);"/>
                                </g>
                                <g transform="matrix(0.798302,0.0744114,-0.104068,1.11647,166.876,-103.942)">
                                    <path d="M577.477,490.742L569.071,490.742L555.37,533.369C555.37,533.369 559.266,537.968 563.776,533.369C563.892,533.251 577.477,490.742 577.477,490.742Z" style="fill:white;fill-opacity:0.64;"/>
                                </g>
                                <g>
                                    <g transform="matrix(1,0,0,1,-2.35262,-0.127167)">
                                        <circle cx="576.871" cy="485.926" r="10.447" style="fill:rgb(255,147,0);"/>
                                    </g>
                                    <g transform="matrix(0.866105,0,0,0.838717,73.4888,76.5593)">
                                        <circle cx="576.871" cy="485.926" r="10.447" style="fill:rgb(255,212,121);fill-opacity:0.5;"/>
                                    </g>
                                    <g transform="matrix(0.213951,0,0,0.258077,447.462,356.011)">
                                        <circle cx="576.871" cy="485.926" r="10.447" style="fill:rgb(255,212,121);"/>
                                    </g>
                                </g>
                            </g>
                            <g transform="matrix(1.01665,0,0,0.970752,301.559,105.889)">
                                <path d="M347.131,211.869L162.417,205.707L100.699,260.022L283.726,260.022L347.131,211.869Z" style="fill:rgb(166,89,89);"/>
                            </g>
                            <g>
                                <path d="M403.934,260.277L312.769,272.311L311.769,748.316L444.188,812L403.934,260.277Z" style="fill:rgb(242,94,13);"/>
                                <g transform="matrix(1,0,0,1,251.051,-5.24292)">
                                    <path d="M218.705,220.131L60.718,275.451L156.477,365.137L218.705,310.822L218.705,220.131Z" style="fill:rgb(242,94,13);"/>
                                </g>
                            </g>
                        </g>
                        <g>
                            <g transform="matrix(0.828197,0,0,1.77865,369.167,-683.104)">
                                <path d="M269.161,581.93C269.034,581.612 50.373,581.93 50.373,581.93L89.851,840.355L315.14,808.828C315.14,808.828 323.082,717.83 269.161,581.93Z" style="fill:rgb(242,175,13);"/>
                            </g>
                            <g transform="matrix(0.809778,0,0,0.741065,350.285,-80.275)">
                                <path d="M285.747,615.802L92.214,619.7L106.284,783.565L303.982,760.086L285.747,615.802Z"/>
                            </g>
                            <g transform="matrix(0.814238,0,0,0.741065,394.672,-244.35)">
                                <path d="M319.372,632.452L92.214,619.7L80.199,753.424L320.319,750.394L319.372,632.452Z" style="fill:rgb(242,175,13);"/>
                            </g>
                            <g transform="matrix(1,0,0,1,-2,0)">
                                <path d="M600.552,626.52L603.194,686.804L624.957,680.565L621.97,620.289L600.552,626.52Z" style="fill-opacity:0.5;"/>
                            </g>
                            <g>
                                <path d="M618.676,500.398L426.958,525.267L422.958,525.267L491.041,565.205C491.041,565.205 651.7,581.97 674.101,537.858C674.502,537.067 618.676,500.398 618.676,500.398Z" style="fill:rgb(148,17,0);"/>
                                <path d="M674.101,539.485C666.829,573.315 623.957,586.489 623.957,586.489L431.661,620.289L491.558,565.205C491.558,565.205 674.455,537.836 674.101,539.485Z" style="fill:rgb(166,89,89);"/>
                                <path d="M491.558,565.205C480.845,603.568 430.149,620.289 430.149,620.289L422.958,525.267C422.958,525.267 491.604,565.039 491.558,565.205Z" style="fill:rgb(255,147,0);"/>
                            </g>
                            <g>
                                <g>
                                    <g>
                                        <ellipse cx="511.743" cy="528.352" rx="13.729" ry="7.322" style="fill:rgb(255,147,0);stroke:black;stroke-width:1.09px;"/>
                                        <g transform="matrix(1,0,0,1,0,-3.20279)">
                                            <ellipse cx="511.743" cy="528.352" rx="13.729" ry="7.322" style="fill:rgb(255,212,121);"/>
                                        </g>
                                    </g>
                                    <g transform="matrix(1,0,0,1,20.1827,17.846)">
                                        <ellipse cx="511.743" cy="528.352" rx="13.729" ry="7.322" style="fill:rgb(255,147,0);stroke:black;stroke-width:1.09px;"/>
                                        <g transform="matrix(1,0,0,1,0,-3.20279)">
                                            <ellipse cx="511.743" cy="528.352" rx="13.729" ry="7.322" style="fill:rgb(255,212,121);"/>
                                        </g>
                                    </g>
                                    <g transform="matrix(0.907409,0,0,0.907409,128.856,39.0233)">
                                        <ellipse cx="511.743" cy="528.352" rx="13.729" ry="7.322" style="fill:rgb(255,147,0);stroke:black;stroke-width:1.2px;"/>
                                        <g transform="matrix(1,0,0,1,0,-3.20279)">
                                            <ellipse cx="511.743" cy="528.352" rx="13.729" ry="7.322" style="fill:rgb(255,212,121);"/>
                                        </g>
                                    </g>
                                    <g transform="matrix(0.907409,0,0,0.907409,147.15,55.2169)">
                                        <ellipse cx="511.743" cy="528.352" rx="13.729" ry="7.322" style="fill:rgb(255,147,0);stroke:black;stroke-width:1.2px;"/>
                                        <g transform="matrix(1,0,0,1,0,-3.20279)">
                                            <ellipse cx="511.743" cy="528.352" rx="13.729" ry="7.322" style="fill:rgb(255,212,121);"/>
                                        </g>
                                    </g>
                                </g>
                                <g transform="matrix(0.961768,0.160649,-0.137853,0.825291,92.3996,0.725273)">
                                    <ellipse cx="562.163" cy="530.8" rx="21.656" ry="13.798" style="stroke:black;stroke-width:1.2px;"/>
                                </g>
                                <g transform="matrix(1.04314,0,0,1,-24.9146,0)">
                                    <path d="M577.477,490.742L569.071,490.742L555.37,533.369C555.37,533.369 559.266,537.968 563.776,533.369C563.892,533.251 577.477,490.742 577.477,490.742Z" style="fill:rgb(13,242,40);"/>
                                </g>
                                <g transform="matrix(0.698908,0.0651467,-0.0911111,0.977459,215.388,-24.537)">
                                    <path d="M577.477,490.742L569.071,490.742L555.37,533.369C555.37,533.369 559.266,537.968 563.776,533.369C563.892,533.251 577.477,490.742 577.477,490.742Z" style="fill:white;fill-opacity:0.64;"/>
                                </g>
                                <g>
                                    <g transform="matrix(1,0,0,1,-2.35262,-0.127167)">
                                        <circle cx="576.871" cy="485.926" r="10.447" style="fill:rgb(255,147,0);"/>
                                    </g>
                                    <g transform="matrix(0.866105,0,0,0.838717,73.4888,76.5593)">
                                        <circle cx="576.871" cy="485.926" r="10.447" style="fill:rgb(255,212,121);fill-opacity:0.5;"/>
                                    </g>
                                    <g transform="matrix(0.213951,0,0,0.258077,447.462,356.011)">
                                        <circle cx="576.871" cy="485.926" r="10.447" style="fill:rgb(255,212,121);"/>
                                    </g>
                                </g>
                            </g>
                            <g transform="matrix(1.01665,0,0,0.970752,301.559,105.889)">
                                <path d="M347.131,211.869L162.417,205.707L100.699,260.022L283.726,260.022L347.131,211.869Z" style="fill:rgb(166,89,89);"/>
                            </g>
                            <g>
                                <path d="M403.934,260.277L312.769,272.311L311.769,748.316L444.188,812L403.934,260.277Z" style="fill:rgb(242,94,13);"/>
                                <g transform="matrix(1,0,0,1,251.051,-5.24292)">
                                    <path d="M218.705,220.131L60.718,275.451L156.477,365.137L218.705,310.822L218.705,220.131Z" style="fill:rgb(242,94,13);"/>
                                </g>
                            </g>
                        </g>
                        <g transform="matrix(1.14278,1.38778e-17,-1.38778e-17,1.14278,-356.686,-30.4405)">
                            <g transform="matrix(0.828197,0,0,1.77865,369.167,-683.104)">
                                <path d="M269.161,581.93C269.034,581.612 50.373,581.93 50.373,581.93L89.851,840.355L315.14,808.828C315.14,808.828 323.082,717.83 269.161,581.93Z" style="fill:rgb(242,175,13);"/>
                            </g>
                            <g transform="matrix(0.809778,0,0,0.741065,350.285,-80.275)">
                                <path d="M285.747,615.802L92.214,619.7L106.284,783.565L303.982,760.086L285.747,615.802Z"/>
                            </g>
                            <g transform="matrix(0.814238,0,0,0.741065,394.672,-244.35)">
                                <path d="M319.372,632.452L92.214,619.7L80.199,753.424L320.319,750.394L319.372,632.452Z" style="fill:rgb(242,175,13);"/>
                            </g>
                            <g transform="matrix(1,0,0,1,-2,0)">
                                <path d="M600.552,626.52L603.194,686.804L624.957,680.565L621.97,620.289L600.552,626.52Z" style="fill-opacity:0.5;"/>
                            </g>
                            <g>
                                <path d="M618.676,500.398L426.958,525.267L422.958,525.267L491.041,565.205C491.041,565.205 651.7,581.97 674.101,537.858C674.502,537.067 618.676,500.398 618.676,500.398Z" style="fill:rgb(148,17,0);"/>
                                <path d="M674.101,539.485C666.829,573.315 623.957,586.489 623.957,586.489L431.661,620.289L491.558,565.205C491.558,565.205 674.455,537.836 674.101,539.485Z" style="fill:rgb(166,89,89);"/>
                                <path d="M491.558,565.205C480.845,603.568 430.149,620.289 430.149,620.289L422.958,525.267C422.958,525.267 491.604,565.039 491.558,565.205Z" style="fill:rgb(255,147,0);"/>
                            </g>
                            <g>
                                <g>
                                    <g>
                                        <ellipse cx="511.743" cy="528.352" rx="13.729" ry="7.322" style="fill:rgb(255,147,0);stroke:black;stroke-width:0.95px;"/>
                                        <g transform="matrix(1,0,0,1,0,-3.20279)">
                                            <ellipse cx="511.743" cy="528.352" rx="13.729" ry="7.322" style="fill:rgb(255,212,121);"/>
                                        </g>
                                    </g>
                                    <g transform="matrix(1,0,0,1,20.1827,17.846)">
                                        <ellipse cx="511.743" cy="528.352" rx="13.729" ry="7.322" style="fill:rgb(255,147,0);stroke:black;stroke-width:0.95px;"/>
                                        <g transform="matrix(1,0,0,1,0,-3.20279)">
                                            <ellipse cx="511.743" cy="528.352" rx="13.729" ry="7.322" style="fill:rgb(255,212,121);"/>
                                        </g>
                                    </g>
                                    <g transform="matrix(0.907409,0,0,0.907409,128.856,39.0233)">
                                        <ellipse cx="511.743" cy="528.352" rx="13.729" ry="7.322" style="fill:rgb(255,147,0);stroke:black;stroke-width:1.05px;"/>
                                        <g transform="matrix(1,0,0,1,0,-3.20279)">
                                            <ellipse cx="511.743" cy="528.352" rx="13.729" ry="7.322" style="fill:rgb(255,212,121);"/>
                                        </g>
                                    </g>
                                    <g transform="matrix(0.907409,0,0,0.907409,147.15,55.2169)">
                                        <ellipse cx="511.743" cy="528.352" rx="13.729" ry="7.322" style="fill:rgb(255,147,0);stroke:black;stroke-width:1.05px;"/>
                                        <g transform="matrix(1,0,0,1,0,-3.20279)">
                                            <ellipse cx="511.743" cy="528.352" rx="13.729" ry="7.322" style="fill:rgb(255,212,121);"/>
                                        </g>
                                    </g>
                                </g>
                                <g transform="matrix(0.961768,0.160649,-0.137853,0.825291,92.3996,0.725273)">
                                    <ellipse cx="562.163" cy="530.8" rx="21.656" ry="13.798" style="stroke:black;stroke-width:1.05px;"/>
                                </g>
                                <g transform="matrix(1.04314,0,0,1,-24.9146,0)">
                                    <path d="M577.477,490.742L569.071,490.742L555.37,533.369C555.37,533.369 559.266,537.968 563.776,533.369C563.892,533.251 577.477,490.742 577.477,490.742Z" style="fill:rgb(13,242,40);"/>
                                </g>
                                <g transform="matrix(0.698908,0.0651467,-0.0911111,0.977459,215.388,-24.537)">
                                    <path d="M577.477,490.742L569.071,490.742L555.37,533.369C555.37,533.369 559.266,537.968 563.776,533.369C563.892,533.251 577.477,490.742 577.477,490.742Z" style="fill:white;fill-opacity:0.64;"/>
                                </g>
                                <g>
                                    <g transform="matrix(1,0,0,1,-2.35262,-0.127167)">
                                        <circle cx="576.871" cy="485.926" r="10.447" style="fill:rgb(255,147,0);"/>
                                    </g>
                                    <g transform="matrix(0.866105,0,0,0.838717,73.4888,76.5593)">
                                        <circle cx="576.871" cy="485.926" r="10.447" style="fill:rgb(255,212,121);fill-opacity:0.5;"/>
                                    </g>
                                    <g transform="matrix(0.213951,0,0,0.258077,447.462,356.011)">
                                        <circle cx="576.871" cy="485.926" r="10.447" style="fill:rgb(255,212,121);"/>
                                    </g>
                                </g>
                            </g>
                            <g transform="matrix(1.01665,0,0,0.970752,301.559,105.889)">
                                <path d="M347.131,211.869L162.417,205.707L100.699,260.022L283.726,260.022L347.131,211.869Z" style="fill:rgb(166,89,89);"/>
                            </g>
                            <g>
                                <path d="M403.934,260.277L312.769,272.311L311.769,748.316L444.188,812L403.934,260.277Z" style="fill:rgb(242,94,13);"/>
                                <g transform="matrix(1,0,0,1,251.051,-5.24292)">
                                    <path d="M218.705,220.131L60.718,275.451L156.477,365.137L218.705,310.822L218.705,220.131Z" style="fill:rgb(242,94,13);"/>
                                </g>
                            </g>
                        </g>
                    </g>
                </g>
            </g>
        </g>
    </g>
</svg>
