<?xml version="1.0" encoding="UTF-8" standalone="no"?>
<!DOCTYPE svg PUBLIC "-//W3C//DTD SVG 1.1//EN" "http://www.w3.org/Graphics/SVG/1.1/DTD/svg11.dtd">
<svg width="100%" height="100%" viewBox="0 0 1024 1024" version="1.1" xmlns="http://www.w3.org/2000/svg" xmlnsxlink="http://www.w3.org/1999/xlink" xmlspace="preserve" xmlnsserif="http://www.serif.com/" style="fill-rule:evenodd;clip-rule:evenodd;stroke-miterlimit:10;">
    <rect id="Artboard1" x="0" y="0" width="1024" height="1024" style="fill:none;"/>
    <g id="Artboard11" serifid="Artboard1">
        <g id="icon-wordplay">
            <path d="M1024,227.858C1024,102.1 921.9,0 796.142,0L227.858,0C102.1,0 0,102.1 0,227.858L0,796.142C0,921.9 102.1,1024 227.858,1024L796.142,1024C921.9,1024 1024,921.9 1024,796.142L1024,227.858Z" style="fill:rgb(255,255,240);"/>
            <path d="M1024,227.858L1024,796.142C1024,921.9 921.9,1024 796.142,1024L227.858,1024C102.1,1024 0,921.9 0,796.142L0,227.858C0,102.1 102.1,0 227.858,0L796.142,0C921.9,0 1024,102.1 1024,227.858ZM1012,227.858C1012,108.723 915.277,12 796.142,12L227.858,12C108.723,12 12,108.723 12,227.858L12,796.142C12,915.277 108.723,1012 227.858,1012L796.142,1012C915.277,1012 1012,915.277 1012,796.142L1012,227.858Z"/>
            <g transform="matrix(1,0,0,1,-2.27374e-13,26.2925)">
                <g transform="matrix(1.33682,0,0,1.33682,-384.461,-98.7715)">
                    <g>
                        <g transform="matrix(4.16667,0,0,4.16667,377.298,728.434)">
                            <path d="M0,-82.201L4.766,-5.944C4.766,-5.944 10.016,0.556 30.266,0.556C52.266,0.556 59.266,-6.444 59.266,-6.444L64.603,-82.757L0,-82.201Z" style="fill:white;fill-rule:nonzero;stroke:rgb(35,31,32);stroke-width:2.69px;"/>
                        </g>
                        <g transform="matrix(4.16667,0,0,4.16667,378.404,321.429)">
                            <path d="M0,10.612L0,-2.263C0,-2.263 12.625,-6.763 33.375,-6.763C54.125,-6.763 63.25,-2.638 63.25,-2.638L63.25,10.612C63.25,10.612 56.496,14.394 54,14.924C42.475,17.375 18.309,16.96 6.875,14.112C5.004,13.646 0,10.612 0,10.612Z" style="fill:white;fill-rule:nonzero;stroke:rgb(35,31,32);stroke-width:2.69px;"/>
                        </g>
                        <g transform="matrix(0,-4.16667,-4.16667,0,511.679,211.648)">
                            <path d="M-24.639,-24.639C-25.783,-24.639 -26.709,-13.608 -26.709,0.001C-26.709,13.608 -25.783,24.639 -24.639,24.639C-23.495,24.639 -22.569,13.608 -22.569,0.001C-22.569,-13.608 -23.495,-24.639 -24.639,-24.639" style="fill:rgb(209,211,212);fill-rule:nonzero;stroke:black;stroke-width:2.69px;stroke-linejoin:round;stroke-miterlimit:2;"/>
                        </g>
                        <g transform="matrix(0,-4.16667,-4.16667,0,511.679,211.648)">
                            <ellipse cx="-24.639" cy="0" rx="2.07" ry="24.639" style="fill:none;stroke:rgb(35,31,32);stroke-width:2.69px;"/>
                        </g>
                        <g transform="matrix(4.16667,0,0,4.16667,353.406,375.541)">
                            <path d="M0,3.875C0,3.875 13.625,8.5 40.25,8.5C63.875,8.5 76.125,3.875 76.125,3.875L76.125,-2.375L70.875,-4.625C70.875,-4.625 64.27,0.833 40.25,0.625C21.924,0.467 3.75,-3.917 3.75,-3.917L0,-1.875L0,3.875Z" style="fill:white;fill-rule:nonzero;stroke:rgb(35,31,32);stroke-width:2.69px;"/>
                        </g>
                        <g transform="matrix(4.16667,0,0,4.16667,377.298,728.434)">
                            <path d="M0,-82.201L4.766,-5.944C4.766,-5.944 10.016,0.556 30.266,0.556C52.266,0.556 59.266,-6.444 59.266,-6.444L64.603,-82.757L0,-82.201Z" style="fill:white;fill-rule:nonzero;stroke:rgb(35,31,32);stroke-width:0.75px;"/>
                        </g>
                        <g transform="matrix(4.16667,0,0,4.16667,378.404,321.429)">
                            <path d="M0,10.612L0,-2.263C0,-2.263 12.625,-6.763 33.375,-6.763C54.125,-6.763 63.25,-2.638 63.25,-2.638L63.25,10.612C63.25,10.612 56.496,14.394 54,14.924C42.475,17.375 18.309,16.96 6.875,14.112C5.004,13.646 0,10.612 0,10.612Z" style="fill:white;fill-rule:nonzero;stroke:rgb(35,31,32);stroke-width:0.75px;"/>
                        </g>
                        <g transform="matrix(0,-4.16667,-4.16667,0,511.679,211.648)">
                            <path d="M-24.639,-24.639C-25.783,-24.639 -26.709,-13.608 -26.709,0.001C-26.709,13.608 -25.783,24.639 -24.639,24.639C-23.495,24.639 -22.569,13.608 -22.569,0.001C-22.569,-13.608 -23.495,-24.639 -24.639,-24.639" style="fill:rgb(209,211,212);fill-rule:nonzero;"/>
                        </g>
                        <g transform="matrix(0,-4.16667,-4.16667,0,511.679,211.648)">
                            <ellipse cx="-24.639" cy="0" rx="2.07" ry="24.639" style="fill:none;stroke:rgb(35,31,32);stroke-width:0.75px;"/>
                        </g>
                        <g transform="matrix(4.16667,0,0,4.16667,353.406,375.541)">
                            <path d="M0,3.875C0,3.875 13.625,8.5 40.25,8.5C63.875,8.5 76.125,3.875 76.125,3.875L76.125,-2.375L70.875,-4.625C70.875,-4.625 64.27,0.833 40.25,0.625C21.924,0.467 3.75,-3.917 3.75,-3.917L0,-1.875L0,3.875Z" style="fill:white;fill-rule:nonzero;stroke:rgb(35,31,32);stroke-width:0.75px;"/>
                        </g>
                        <g transform="matrix(4.16667,0,0,4.16667,377.298,728.434)">
                            <path d="M0,-82.201L4.766,-5.944C4.766,-5.944 10.016,0.556 30.266,0.556C52.266,0.556 59.266,-6.444 59.266,-6.444L64.603,-82.757L0,-82.201Z" style="fill:white;fill-rule:nonzero;stroke:rgb(35,31,32);stroke-width:0.75px;"/>
                        </g>
                        <g transform="matrix(4.18416,0,0,4.16667,377.298,321.429)">
                            <path d="M0,10.612L0,-2.263C0,-2.263 12.625,-6.763 33.375,-6.763C54.125,-6.763 63.25,-2.638 63.25,-2.638L63.25,10.612C63.25,10.612 56.496,14.394 54,14.924C42.475,17.375 18.309,16.96 6.875,14.112C5.004,13.646 0,10.612 0,10.612Z" style="fill:white;fill-rule:nonzero;stroke:rgb(35,31,32);stroke-width:0.75px;"/>
                        </g>
                        <g transform="matrix(0,-4.16667,-4.16667,0,511.679,211.648)">
                            <path d="M-24.639,-24.639C-25.783,-24.639 -26.709,-13.608 -26.709,0.001C-26.709,13.608 -25.783,24.639 -24.639,24.639C-23.495,24.639 -22.569,13.608 -22.569,0.001C-22.569,-13.608 -23.495,-24.639 -24.639,-24.639" style="fill:rgb(209,211,212);fill-rule:nonzero;"/>
                        </g>
                        <g transform="matrix(0,-4.16667,-4.16667,0,511.679,211.648)">
                            <ellipse cx="-24.639" cy="0" rx="2.07" ry="24.639" style="fill:none;stroke:rgb(35,31,32);stroke-width:0.75px;"/>
                        </g>
                        <g transform="matrix(4.16667,0,0,4.16667,353.406,375.541)">
                            <path d="M0,3.875C0,3.875 13.625,8.5 40.25,8.5C63.875,8.5 76.125,3.875 76.125,3.875L76.125,-2.375L70.875,-4.625C70.875,-4.625 64.27,0.833 40.25,0.625C21.924,0.467 3.75,-3.917 3.75,-3.917L0,-1.875L0,3.875Z" style="fill:white;fill-rule:nonzero;stroke:rgb(35,31,32);stroke-width:0.75px;"/>
                        </g>
                    </g>
                    <g transform="matrix(1.56458,0,0,0.653809,-143.47,398.179)">
                        <g transform="matrix(1,0,0,2.55957,5.99319,-9.87411)">
                            <circle cx="412.871" cy="102.146" r="63.356" style="fill:rgb(255,212,121);"/>
                        </g>
                        <g transform="matrix(1,0,0,2.55957,8.52651e-14,-3.55271e-15)">
                            <path d="M418.864,94.462L433.354,42.596L434.108,38.718C483.464,51.307 481.644,103.589 482.22,104.175L476.028,121.281L435.712,104.175L418.864,94.462Z" style="fill:rgb(255,147,0);"/>
                        </g>
                        <g transform="matrix(1,0,0,2.55957,8.52651e-14,-3.55271e-15)">
                            <path d="M359.018,110.35C349.289,113.467 359.557,129.395 359.557,129.395C359.557,129.395 357.334,153.466 364.229,158.618C376.749,167.971 399.896,161.644 399.896,161.644L397.316,130.908L359.018,110.35" style="fill:rgb(255,212,121);"/>
                        </g>
                        <g transform="matrix(0.936265,0,0,2.39643,246.202,-18.0717)">
                            <g transform="matrix(137,0,0,137,96.3847,159.556)">
                                <path d="M0.644,0.166C0.589,0.166 0.536,0.158 0.485,0.141L0.507,0.107C0.551,0.12 0.597,0.127 0.644,0.127C0.709,0.127 0.77,0.115 0.826,0.091C0.883,0.066 0.933,0.033 0.976,-0.01C1.019,-0.053 1.052,-0.103 1.076,-0.16C1.101,-0.216 1.113,-0.277 1.113,-0.342C1.113,-0.407 1.101,-0.467 1.076,-0.524C1.052,-0.581 1.019,-0.63 0.976,-0.673C0.933,-0.716 0.883,-0.75 0.826,-0.774C0.77,-0.798 0.709,-0.811 0.644,-0.811C0.579,-0.811 0.519,-0.798 0.462,-0.774C0.405,-0.75 0.355,-0.716 0.313,-0.673C0.27,-0.63 0.236,-0.581 0.212,-0.524C0.187,-0.467 0.175,-0.407 0.175,-0.342C0.175,-0.309 0.179,-0.277 0.185,-0.245L0.147,-0.235C0.144,-0.253 0.141,-0.27 0.139,-0.288C0.137,-0.306 0.136,-0.324 0.136,-0.342C0.136,-0.412 0.149,-0.478 0.176,-0.539C0.202,-0.601 0.238,-0.655 0.285,-0.701C0.331,-0.748 0.385,-0.784 0.447,-0.81C0.508,-0.837 0.574,-0.85 0.644,-0.85C0.714,-0.85 0.78,-0.837 0.841,-0.81C0.902,-0.784 0.956,-0.748 1.003,-0.701C1.049,-0.655 1.086,-0.601 1.112,-0.539C1.139,-0.478 1.152,-0.412 1.152,-0.342C1.152,-0.271 1.139,-0.206 1.112,-0.144C1.086,-0.083 1.049,-0.029 1.003,0.018C0.956,0.064 0.902,0.101 0.841,0.127C0.78,0.153 0.714,0.166 0.644,0.166ZM0.339,0.19C0.277,0.19 0.23,0.174 0.198,0.141C0.165,0.108 0.149,0.063 0.149,0.006C0.149,-0.009 0.151,-0.024 0.154,-0.038C0.157,-0.052 0.158,-0.064 0.158,-0.075C0.158,-0.09 0.156,-0.103 0.151,-0.115C0.147,-0.126 0.142,-0.138 0.137,-0.148C0.132,-0.159 0.127,-0.17 0.123,-0.18C0.12,-0.191 0.118,-0.201 0.118,-0.212C0.118,-0.229 0.123,-0.244 0.134,-0.255C0.145,-0.266 0.161,-0.271 0.18,-0.271C0.2,-0.271 0.219,-0.266 0.235,-0.254C0.252,-0.242 0.265,-0.227 0.274,-0.207L0.278,-0.199C0.284,-0.185 0.29,-0.175 0.294,-0.17C0.298,-0.164 0.303,-0.162 0.31,-0.162C0.316,-0.162 0.322,-0.163 0.33,-0.166C0.337,-0.169 0.346,-0.174 0.357,-0.18C0.371,-0.188 0.389,-0.196 0.41,-0.205C0.431,-0.214 0.455,-0.221 0.483,-0.228C0.511,-0.234 0.542,-0.237 0.575,-0.237C0.602,-0.237 0.623,-0.232 0.638,-0.223C0.653,-0.214 0.661,-0.201 0.661,-0.183C0.661,-0.172 0.658,-0.163 0.652,-0.155C0.647,-0.147 0.636,-0.139 0.621,-0.132C0.606,-0.125 0.583,-0.117 0.554,-0.108L0.542,-0.104C0.522,-0.098 0.502,-0.09 0.483,-0.081C0.463,-0.071 0.441,-0.056 0.417,-0.035L0.396,-0.059C0.423,-0.083 0.448,-0.101 0.47,-0.112C0.493,-0.124 0.514,-0.132 0.534,-0.137L0.543,-0.14C0.573,-0.147 0.595,-0.154 0.607,-0.16C0.62,-0.166 0.626,-0.172 0.626,-0.18C0.626,-0.188 0.622,-0.193 0.614,-0.197C0.605,-0.201 0.592,-0.203 0.575,-0.203C0.532,-0.203 0.494,-0.197 0.46,-0.186C0.426,-0.175 0.397,-0.163 0.373,-0.15C0.357,-0.142 0.344,-0.136 0.334,-0.132C0.324,-0.129 0.315,-0.127 0.306,-0.127C0.294,-0.127 0.284,-0.131 0.275,-0.139C0.267,-0.147 0.257,-0.162 0.247,-0.185L0.243,-0.193C0.237,-0.207 0.229,-0.217 0.218,-0.226C0.207,-0.234 0.196,-0.238 0.184,-0.238C0.175,-0.238 0.167,-0.235 0.161,-0.23C0.155,-0.225 0.152,-0.217 0.152,-0.207C0.152,-0.2 0.153,-0.193 0.156,-0.184C0.16,-0.176 0.163,-0.168 0.167,-0.159C0.173,-0.147 0.179,-0.134 0.184,-0.12C0.19,-0.106 0.192,-0.091 0.192,-0.075C0.192,-0.06 0.191,-0.047 0.188,-0.034C0.185,-0.022 0.184,-0.008 0.184,0.007C0.184,0.052 0.197,0.088 0.224,0.115C0.25,0.143 0.289,0.156 0.339,0.156C0.362,0.156 0.385,0.154 0.409,0.148C0.432,0.143 0.452,0.136 0.469,0.128C0.485,0.119 0.493,0.11 0.493,0.101C0.493,0.097 0.492,0.093 0.492,0.09C0.491,0.087 0.489,0.084 0.487,0.08L0.509,0.054C0.521,0.067 0.527,0.082 0.527,0.101C0.527,0.114 0.521,0.127 0.511,0.137C0.5,0.148 0.486,0.158 0.467,0.166C0.449,0.174 0.429,0.18 0.407,0.184C0.385,0.188 0.362,0.19 0.339,0.19ZM0.447,0.101L0.443,0.071C0.478,0.064 0.495,0.051 0.495,0.032C0.495,0.022 0.492,0.014 0.486,0.008L0.502,-0.02C0.51,-0.015 0.515,-0.007 0.52,0.002C0.525,0.012 0.527,0.022 0.527,0.032C0.527,0.05 0.52,0.065 0.507,0.076C0.493,0.088 0.474,0.096 0.447,0.101ZM0.437,0.037L0.432,0.007C0.451,0.004 0.465,-0.001 0.474,-0.008C0.483,-0.015 0.488,-0.024 0.488,-0.033C0.488,-0.042 0.485,-0.049 0.479,-0.055C0.473,-0.061 0.464,-0.065 0.453,-0.067L0.46,-0.096C0.477,-0.094 0.491,-0.087 0.502,-0.075C0.514,-0.063 0.52,-0.049 0.52,-0.033C0.52,-0.015 0.512,0 0.498,0.012C0.484,0.025 0.463,0.033 0.437,0.037ZM0.763,-0.275C0.71,-0.327 0.651,-0.353 0.586,-0.353C0.544,-0.353 0.499,-0.342 0.452,-0.32L0.436,-0.355C0.488,-0.38 0.539,-0.392 0.587,-0.392C0.662,-0.392 0.73,-0.362 0.791,-0.303L0.763,-0.275ZM0.489,-0.547C0.472,-0.547 0.457,-0.554 0.445,-0.568C0.433,-0.583 0.427,-0.6 0.427,-0.62C0.427,-0.64 0.433,-0.658 0.445,-0.672C0.457,-0.687 0.472,-0.694 0.489,-0.694C0.506,-0.694 0.52,-0.687 0.532,-0.672C0.544,-0.658 0.55,-0.64 0.55,-0.62C0.55,-0.6 0.544,-0.583 0.532,-0.569C0.521,-0.554 0.506,-0.547 0.489,-0.547ZM0.609,-0.726C0.582,-0.753 0.555,-0.772 0.527,-0.783C0.5,-0.794 0.467,-0.8 0.43,-0.8L0.43,-0.839C0.472,-0.839 0.51,-0.832 0.542,-0.819C0.575,-0.806 0.606,-0.784 0.636,-0.753L0.609,-0.726ZM0.796,-0.464C0.779,-0.464 0.765,-0.471 0.753,-0.485C0.741,-0.5 0.735,-0.517 0.735,-0.537C0.735,-0.557 0.741,-0.575 0.753,-0.589C0.765,-0.604 0.779,-0.611 0.796,-0.611C0.813,-0.611 0.828,-0.604 0.84,-0.589C0.852,-0.575 0.858,-0.557 0.858,-0.537C0.858,-0.517 0.852,-0.5 0.84,-0.486C0.828,-0.471 0.814,-0.464 0.796,-0.464ZM0.903,-0.639C0.861,-0.662 0.819,-0.674 0.774,-0.674C0.763,-0.674 0.752,-0.674 0.741,-0.673C0.731,-0.671 0.721,-0.67 0.712,-0.667L0.703,-0.706C0.715,-0.708 0.727,-0.71 0.738,-0.711C0.75,-0.713 0.762,-0.713 0.774,-0.713C0.826,-0.713 0.875,-0.7 0.922,-0.672L0.903,-0.639Z" style="fill-rule:nonzero;"/>
                            </g>
                        </g>
                        <g transform="matrix(0.845929,0.549644,-0.214741,2.16521,116.837,-515.9)">
                            <g transform="matrix(0.78146,0,0,0.78146,227.888,159.459)">
                                <path d="M164.996,57.645L179.966,51.709L220.064,52.34L231.034,60.119L231.034,91.859L224.04,100.017L204.829,104.647L185.578,103.906L172.093,98.498L167.436,81.374L164.996,57.645" style="fill:white;stroke:white;stroke-width:2.33px;stroke-linecap:round;stroke-linejoin:round;stroke-miterlimit:1.5;"/>
                                <path d="M259.504,55.343L278.516,51.32L321.324,53.716L323.321,61.841L318.722,88.948L309.881,101.769L298.259,104.647L276.168,103.906L260.289,100.017L252.859,83.959L252.859,66.903L259.504,55.343Z" style="fill:white;stroke:white;stroke-width:2.33px;stroke-linecap:round;stroke-linejoin:round;stroke-miterlimit:1.5;"/>
                                <path d="M236.535,60.683L250.852,60.913C250.852,60.913 254.973,52.997 258.785,51.43C264.184,49.212 275.381,48.159 283.25,47.599C290.815,47.06 299.98,47.717 305.998,48.068C310.478,48.33 314.945,48.909 319.36,49.709C323.915,50.535 333.326,53.022 333.326,53.022L333.326,66.262C333.326,66.262 328.374,68.655 327.192,70.939C325.514,74.183 324.869,80.886 323.256,85.725C321.64,90.571 320.158,96.571 317.496,100.017C315.042,103.194 311.161,105.36 307.283,106.4C302.216,107.759 293.837,108.543 287.091,108.17C279.56,107.755 267.803,106.262 262.098,103.906C257.932,102.186 254.802,98.102 252.859,94.035C250.865,89.861 250.78,83.3 250.13,78.862C249.575,75.064 248.963,67.405 248.963,67.405L238.141,67.161C238.141,67.161 235.618,87.737 234.138,93.213C233.41,95.907 231.369,98.187 229.263,100.017C226.844,102.119 223.243,104.827 219.628,105.823C214.588,107.211 205.535,108.178 199.022,108.344C192.847,108.502 185.709,108.463 180.552,106.822C175.79,105.306 170.864,102.65 168.083,98.498C165.056,93.977 163.683,84.347 162.387,79.697C161.552,76.701 161.165,72.607 160.311,70.599C159.756,69.297 158.496,68.285 157.258,67.649C156.021,67.013 152.883,66.784 152.883,66.784L152.883,52.446C152.883,52.446 162.76,50.386 167.755,49.709C173.826,48.887 182.44,47.864 189.306,47.511C195.846,47.174 203.311,47.223 208.952,47.589C213.727,47.9 219.225,48.535 223.149,49.709C226.522,50.719 230.262,52.804 232.493,54.633C234.369,56.171 236.535,60.683 236.535,60.683ZM309.275,55.465C302.345,54.412 282.946,53.544 275.104,53.833C270.669,53.996 265.315,55.094 262.223,57.201C259.23,59.241 257.181,62.906 256.557,66.475C255.746,71.116 255.948,77.393 256.358,82.048C256.636,85.203 257.329,91.825 259.015,94.403C260.701,96.981 264.031,100.028 267.476,100.517C274.65,101.536 287.253,102.495 294.124,102.242C296.391,102.158 306.855,100.29 308.698,98.998C310.541,97.706 313.353,93.195 314.119,90.766C315.744,85.613 317.853,73.511 318.447,68.075C318.74,65.386 318.207,62.255 316.679,60.154C315.15,58.052 312.163,55.905 309.275,55.465ZM176.793,54.965C173.905,55.404 170.917,57.552 169.389,59.653C167.86,61.755 167.327,64.885 167.621,67.575C168.214,73.01 170.324,85.112 171.948,90.266C172.714,92.695 175.527,97.206 177.369,98.498C179.212,99.79 189.676,101.658 191.944,101.742C198.814,101.995 211.417,101.036 218.592,100.017C222.037,99.528 225.366,96.481 227.052,93.903C228.739,91.324 229.432,84.702 229.709,81.548C230.119,76.893 230.321,70.616 229.51,65.975C228.887,62.406 226.837,58.741 223.844,56.701C220.753,54.594 215.398,53.496 210.964,53.333C203.122,53.043 183.722,53.912 176.793,54.965Z"/>
                            </g>
                            <g>
                                <g transform="matrix(1,0,0,1,0,125.01)">
                                    <ellipse cx="396.095" cy="93.406" rx="7.433" ry="10.103"/>
                                </g>
                                <g transform="matrix(1,0,0,1,43.0939,125.01)">
                                    <ellipse cx="396.095" cy="93.406" rx="7.433" ry="10.103"/>
                                </g>
                            </g>
                        </g>
                    </g>
                </g>
                <g transform="matrix(1.44743,0,0,1.44743,-61.0605,-41.7481)">
                    <g transform="matrix(145.085,0,0,145.085,226.394,195.886)">
                        <path d="M0.906,-0.678L0.792,-0.001L0.514,0.005L0.455,-0.346L0.395,-0.021L0.118,-0.011L0.002,-0.678L0.245,-0.699L0.293,-0.294L0.359,-0.699L0.549,-0.699L0.625,-0.289L0.665,-0.699L0.906,-0.678Z" style="fill-rule:nonzero;"/>
                    </g>
                    <g transform="matrix(145.085,0,0,145.085,355.468,195.886)">
                        <path d="M0.628,-0.345C0.628,-0.315 0.625,-0.287 0.618,-0.259C0.611,-0.232 0.601,-0.206 0.589,-0.182C0.576,-0.158 0.56,-0.135 0.542,-0.115C0.523,-0.095 0.503,-0.078 0.48,-0.064C0.457,-0.05 0.432,-0.038 0.405,-0.031C0.378,-0.023 0.349,-0.019 0.319,-0.019C0.29,-0.019 0.262,-0.022 0.235,-0.03C0.209,-0.037 0.184,-0.048 0.161,-0.061C0.138,-0.075 0.117,-0.091 0.098,-0.11C0.079,-0.129 0.063,-0.15 0.05,-0.174C0.037,-0.197 0.027,-0.222 0.019,-0.249C0.012,-0.275 0.008,-0.303 0.008,-0.332C0.008,-0.36 0.012,-0.388 0.019,-0.415C0.025,-0.442 0.035,-0.468 0.048,-0.492C0.061,-0.516 0.076,-0.538 0.095,-0.559C0.113,-0.579 0.133,-0.596 0.156,-0.611C0.179,-0.625 0.203,-0.637 0.229,-0.645C0.256,-0.653 0.284,-0.657 0.313,-0.657C0.36,-0.657 0.403,-0.65 0.442,-0.635C0.481,-0.621 0.514,-0.6 0.542,-0.573C0.569,-0.545 0.591,-0.512 0.606,-0.474C0.621,-0.435 0.628,-0.392 0.628,-0.345ZM0.412,-0.332C0.412,-0.346 0.41,-0.36 0.406,-0.373C0.401,-0.386 0.396,-0.398 0.388,-0.408C0.38,-0.418 0.37,-0.427 0.359,-0.433C0.347,-0.439 0.334,-0.442 0.319,-0.442C0.304,-0.442 0.29,-0.44 0.278,-0.434C0.266,-0.429 0.255,-0.421 0.247,-0.411C0.238,-0.402 0.232,-0.391 0.227,-0.378C0.222,-0.365 0.22,-0.351 0.22,-0.337C0.22,-0.323 0.222,-0.31 0.226,-0.296C0.23,-0.282 0.236,-0.27 0.244,-0.259C0.251,-0.248 0.261,-0.239 0.273,-0.232C0.284,-0.225 0.298,-0.222 0.313,-0.222C0.328,-0.222 0.342,-0.225 0.354,-0.231C0.366,-0.237 0.377,-0.245 0.385,-0.255C0.394,-0.265 0.4,-0.277 0.405,-0.291C0.409,-0.304 0.412,-0.318 0.412,-0.332Z" style="fill-rule:nonzero;"/>
                    </g>
                    <g transform="matrix(145.085,0,0,145.085,447.988,195.886)">
                        <path d="M0.597,-0.471C0.597,-0.445 0.595,-0.422 0.591,-0.402C0.586,-0.381 0.579,-0.362 0.57,-0.345C0.56,-0.327 0.548,-0.312 0.533,-0.297C0.518,-0.282 0.5,-0.268 0.479,-0.255L0.595,-0.048L0.375,-0.005L0.3,-0.213L0.24,-0.211L0.231,-0.008L0.021,-0.008C0.023,-0.082 0.024,-0.156 0.026,-0.229C0.027,-0.303 0.029,-0.377 0.031,-0.451C0.031,-0.489 0.032,-0.526 0.033,-0.563C0.033,-0.599 0.035,-0.636 0.037,-0.674C0.059,-0.682 0.082,-0.689 0.104,-0.695C0.126,-0.7 0.148,-0.705 0.171,-0.708C0.193,-0.711 0.216,-0.713 0.239,-0.714C0.261,-0.715 0.285,-0.716 0.309,-0.716C0.346,-0.716 0.382,-0.711 0.417,-0.7C0.451,-0.69 0.482,-0.675 0.509,-0.654C0.535,-0.634 0.557,-0.608 0.573,-0.578C0.589,-0.547 0.597,-0.511 0.597,-0.471ZM0.378,-0.455C0.378,-0.469 0.377,-0.481 0.373,-0.493C0.369,-0.504 0.364,-0.514 0.356,-0.522C0.349,-0.531 0.34,-0.537 0.329,-0.542C0.318,-0.546 0.305,-0.549 0.291,-0.549C0.284,-0.549 0.278,-0.548 0.271,-0.548C0.265,-0.547 0.259,-0.546 0.253,-0.544L0.246,-0.362L0.257,-0.362C0.271,-0.362 0.286,-0.364 0.3,-0.368C0.315,-0.371 0.328,-0.377 0.339,-0.384C0.351,-0.392 0.36,-0.401 0.367,-0.413C0.375,-0.425 0.378,-0.439 0.378,-0.455Z" style="fill-rule:nonzero;"/>
                    </g>
                    <g transform="matrix(145.085,0,0,145.085,535.904,195.886)">
                        <path d="M0.578,-0.388C0.578,-0.342 0.572,-0.301 0.561,-0.264C0.549,-0.228 0.532,-0.195 0.511,-0.167C0.49,-0.138 0.465,-0.114 0.437,-0.093C0.408,-0.073 0.376,-0.056 0.341,-0.043C0.307,-0.03 0.27,-0.02 0.231,-0.013C0.192,-0.007 0.152,-0.004 0.111,-0.004C0.096,-0.004 0.081,-0.004 0.066,-0.005C0.052,-0.006 0.037,-0.007 0.021,-0.009L0.035,-0.664C0.071,-0.675 0.108,-0.684 0.146,-0.688C0.184,-0.693 0.221,-0.695 0.259,-0.695C0.305,-0.695 0.348,-0.688 0.387,-0.674C0.426,-0.66 0.46,-0.64 0.488,-0.614C0.517,-0.587 0.539,-0.555 0.554,-0.517C0.57,-0.479 0.578,-0.436 0.578,-0.388ZM0.378,-0.356C0.378,-0.374 0.376,-0.391 0.372,-0.407C0.368,-0.424 0.362,-0.438 0.352,-0.45C0.343,-0.463 0.331,-0.473 0.317,-0.481C0.303,-0.488 0.285,-0.493 0.266,-0.493L0.246,-0.19C0.266,-0.193 0.283,-0.2 0.299,-0.21C0.315,-0.22 0.329,-0.232 0.341,-0.246C0.352,-0.261 0.361,-0.277 0.367,-0.295C0.374,-0.312 0.377,-0.331 0.378,-0.35L0.378,-0.356Z" style="fill-rule:nonzero;"/>
                    </g>
                    <g transform="matrix(145.085,0,0,145.085,620.418,195.886)">
                        <path d="M0.525,-0.26C0.525,-0.215 0.517,-0.176 0.502,-0.143C0.486,-0.109 0.465,-0.082 0.438,-0.06C0.411,-0.037 0.38,-0.021 0.344,-0.01C0.308,0.001 0.269,0.007 0.228,0.007C0.212,0.007 0.195,0.005 0.176,0C0.156,-0.004 0.137,-0.009 0.118,-0.015C0.098,-0.022 0.079,-0.029 0.061,-0.036C0.043,-0.043 0.027,-0.05 0.013,-0.057L0.035,-0.258C0.062,-0.241 0.093,-0.229 0.127,-0.22C0.16,-0.211 0.194,-0.207 0.226,-0.207C0.232,-0.207 0.24,-0.207 0.249,-0.208C0.257,-0.208 0.266,-0.21 0.274,-0.212C0.282,-0.215 0.288,-0.218 0.294,-0.223C0.299,-0.228 0.302,-0.235 0.302,-0.244C0.302,-0.25 0.3,-0.256 0.296,-0.26C0.292,-0.264 0.287,-0.268 0.281,-0.271C0.275,-0.274 0.268,-0.276 0.26,-0.277C0.252,-0.279 0.245,-0.28 0.237,-0.28C0.23,-0.281 0.223,-0.281 0.216,-0.281L0.201,-0.281C0.173,-0.281 0.147,-0.286 0.124,-0.296C0.101,-0.306 0.082,-0.319 0.065,-0.337C0.049,-0.354 0.036,-0.375 0.027,-0.399C0.018,-0.423 0.013,-0.449 0.013,-0.477C0.013,-0.515 0.021,-0.549 0.036,-0.58C0.052,-0.61 0.073,-0.636 0.098,-0.657C0.124,-0.679 0.154,-0.695 0.188,-0.707C0.221,-0.718 0.256,-0.724 0.292,-0.724C0.307,-0.724 0.324,-0.723 0.341,-0.722C0.358,-0.721 0.375,-0.719 0.391,-0.716C0.408,-0.713 0.424,-0.709 0.44,-0.705C0.456,-0.7 0.472,-0.694 0.486,-0.688L0.467,-0.489C0.445,-0.497 0.422,-0.503 0.398,-0.508C0.373,-0.513 0.35,-0.516 0.327,-0.516C0.322,-0.516 0.317,-0.516 0.31,-0.515C0.304,-0.515 0.297,-0.515 0.289,-0.514C0.282,-0.513 0.275,-0.512 0.267,-0.51C0.26,-0.509 0.253,-0.506 0.247,-0.504C0.241,-0.501 0.236,-0.497 0.233,-0.493C0.229,-0.488 0.228,-0.483 0.228,-0.477C0.228,-0.469 0.231,-0.464 0.236,-0.459C0.241,-0.455 0.248,-0.451 0.256,-0.449C0.264,-0.447 0.272,-0.445 0.282,-0.444C0.292,-0.443 0.301,-0.442 0.311,-0.442C0.32,-0.442 0.329,-0.442 0.337,-0.442C0.345,-0.442 0.352,-0.442 0.357,-0.441C0.383,-0.44 0.406,-0.434 0.427,-0.425C0.448,-0.415 0.466,-0.403 0.48,-0.387C0.495,-0.372 0.506,-0.353 0.513,-0.331C0.521,-0.31 0.525,-0.286 0.525,-0.26Z" style="fill-rule:nonzero;"/>
                    </g>
                </g>
                <g transform="matrix(1.44743,0,0,1.44743,184.702,179.562)">
                    <g transform="matrix(79.4513,0,0,79.4513,282.664,149.481)">
                        <path d="M0.907,-0.678L0.792,-0.021L0.515,-0.015L0.456,-0.346L0.396,-0.04L0.119,-0.03L0.003,-0.658L0.246,-0.68L0.294,-0.294L0.36,-0.65L0.55,-0.65L0.626,-0.289L0.666,-0.699L0.907,-0.678Z" style="fill-rule:nonzero;"/>
                    </g>
                    <g transform="matrix(79.4513,0,0,79.4513,354.939,149.481)">
                        <path d="M0.28,-0.688L0.246,-0.022L0.04,-0.012L0.02,-0.674L0.28,-0.688Z" style="fill-rule:nonzero;"/>
                    </g>
                    <g transform="matrix(79.4513,0,0,79.4513,378.332,149.481)">
                        <path d="M0.542,-0.688L0.537,-0.481L0.392,-0.476L0.374,-0.022L0.168,-0.012L0.149,-0.465L0.004,-0.457L0.01,-0.688L0.542,-0.688Z" style="fill-rule:nonzero;"/>
                    </g>
                    <g transform="matrix(79.4513,0,0,79.4513,421.626,149.481)">
                        <path d="M0.604,-0.02L0.36,-0.008L0.358,-0.214L0.246,-0.214L0.239,-0L0.021,-0L0.039,-0.687L0.271,-0.676L0.257,-0.325L0.365,-0.325L0.366,-0.692L0.589,-0.687L0.604,-0.02Z" style="fill-rule:nonzero;"/>
                    </g>
                </g>
                <g transform="matrix(1.64008,0,0,1.64008,151.147,310.972)">
                    <g transform="matrix(146.334,0,0,146.334,234.182,196.769)">
                        <path d="M0.491,-0.402L0.491,-0.345C0.491,-0.326 0.49,-0.307 0.488,-0.288C0.485,-0.247 0.476,-0.209 0.462,-0.173C0.448,-0.136 0.429,-0.104 0.405,-0.077C0.381,-0.05 0.352,-0.028 0.318,-0.012C0.284,0.004 0.244,0.012 0.2,0.012C0.183,0.012 0.165,0.01 0.146,0.007C0.128,0.004 0.109,0 0.091,-0.006C0.072,-0.012 0.055,-0.019 0.038,-0.028C0.021,-0.036 0.006,-0.046 -0.007,-0.058L0.023,-0.26C0.043,-0.241 0.064,-0.226 0.087,-0.215C0.111,-0.203 0.136,-0.197 0.164,-0.197C0.182,-0.197 0.197,-0.2 0.209,-0.205C0.222,-0.21 0.232,-0.217 0.24,-0.227C0.248,-0.236 0.255,-0.246 0.26,-0.259C0.264,-0.271 0.268,-0.284 0.27,-0.298C0.272,-0.311 0.273,-0.326 0.274,-0.34C0.274,-0.355 0.274,-0.369 0.274,-0.384C0.274,-0.436 0.272,-0.487 0.267,-0.538C0.261,-0.59 0.257,-0.641 0.253,-0.692L0.477,-0.707C0.486,-0.605 0.491,-0.504 0.491,-0.402Z" style="fill-rule:nonzero;"/>
                    </g>
                    <g transform="matrix(146.334,0,0,146.334,308.778,196.769)">
                        <path d="M0.628,-0.345C0.628,-0.315 0.625,-0.287 0.618,-0.259C0.611,-0.232 0.601,-0.206 0.589,-0.182C0.576,-0.158 0.56,-0.135 0.542,-0.115C0.523,-0.095 0.503,-0.078 0.48,-0.064C0.457,-0.05 0.432,-0.038 0.405,-0.031C0.378,-0.023 0.349,-0.019 0.319,-0.019C0.29,-0.019 0.262,-0.022 0.235,-0.03C0.209,-0.037 0.184,-0.048 0.161,-0.061C0.138,-0.075 0.117,-0.091 0.098,-0.11C0.079,-0.129 0.063,-0.15 0.05,-0.174C0.037,-0.197 0.027,-0.222 0.019,-0.249C0.012,-0.275 0.008,-0.303 0.008,-0.332C0.008,-0.36 0.012,-0.388 0.019,-0.415C0.025,-0.442 0.035,-0.468 0.048,-0.492C0.061,-0.516 0.076,-0.538 0.095,-0.559C0.113,-0.579 0.133,-0.596 0.156,-0.611C0.179,-0.625 0.203,-0.637 0.229,-0.645C0.256,-0.653 0.284,-0.657 0.313,-0.657C0.36,-0.657 0.403,-0.65 0.442,-0.635C0.481,-0.621 0.514,-0.6 0.542,-0.573C0.569,-0.545 0.591,-0.512 0.606,-0.474C0.621,-0.435 0.628,-0.392 0.628,-0.345ZM0.412,-0.332C0.412,-0.346 0.41,-0.36 0.406,-0.373C0.401,-0.386 0.396,-0.398 0.388,-0.408C0.38,-0.418 0.37,-0.427 0.359,-0.433C0.347,-0.439 0.334,-0.442 0.319,-0.442C0.304,-0.442 0.29,-0.44 0.278,-0.434C0.266,-0.429 0.255,-0.421 0.247,-0.411C0.238,-0.402 0.232,-0.391 0.227,-0.378C0.222,-0.365 0.22,-0.351 0.22,-0.337C0.22,-0.323 0.222,-0.31 0.226,-0.296C0.23,-0.282 0.236,-0.27 0.244,-0.259C0.251,-0.248 0.261,-0.239 0.273,-0.232C0.284,-0.225 0.298,-0.222 0.313,-0.222C0.328,-0.222 0.342,-0.225 0.354,-0.231C0.366,-0.237 0.377,-0.245 0.385,-0.255C0.394,-0.265 0.4,-0.277 0.405,-0.291C0.409,-0.304 0.412,-0.318 0.412,-0.332Z" style="fill-rule:nonzero;"/>
                    </g>
                    <g transform="matrix(146.334,0,0,146.334,402.094,196.769)">
                        <path d="M0.487,-0.704C0.485,-0.674 0.484,-0.643 0.482,-0.613C0.48,-0.583 0.478,-0.553 0.476,-0.522L0.269,-0.512L0.264,-0.45L0.409,-0.45L0.398,-0.299L0.252,-0.294L0.247,-0.223L0.454,-0.223C0.452,-0.187 0.45,-0.151 0.448,-0.116C0.446,-0.081 0.444,-0.045 0.442,-0.01L0.021,-0L0.037,-0.704L0.487,-0.704Z" style="fill-rule:nonzero;"/>
                    </g>
                </g>
            </g>
        </g>
    </g>
</svg>
