<?xml version="1.0" encoding="UTF-8" standalone="no"?>
<!DOCTYPE svg PUBLIC "-//W3C//DTD SVG 1.1//EN" "http://www.w3.org/Graphics/SVG/1.1/DTD/svg11.dtd">
<svg width="100%" height="100%" viewBox="0 0 1024 1024" version="1.1" xmlns="http://www.w3.org/2000/svg" xml:space="preserve" style="fill-rule:evenodd;clip-rule:evenodd;stroke-linecap:round;stroke-linejoin:round;stroke-miterlimit:1.5;">
    <rect id="Artboard1" x="0" y="0" width="1024" height="1024" style="fill:none;"/>
    <g id="Artboard11" serif_id="Artboard1">
        <g>
            <path d="M1024,227.858C1024,102.1 921.9,0 796.142,0L227.858,0C102.1,0 0,102.1 0,227.858L0,796.142C0,921.9 102.1,1024 227.858,1024L796.142,1024C921.9,1024 1024,921.9 1024,796.142L1024,227.858Z" style="fill:rgb(166,166,166);"/>
            <path d="M1024,227.858L1024,796.142C1024,921.9 921.9,1024 796.142,1024L227.858,1024C102.1,1024 0,921.9 0,796.142L0,227.858C0,102.1 102.1,0 227.858,0L796.142,0C921.9,0 1024,102.1 1024,227.858ZM1012,227.858C1012,108.723 915.277,12 796.142,12L227.858,12C108.723,12 12,108.723 12,227.858L12,796.142C12,915.277 108.723,1012 227.858,1012L796.142,1012C915.277,1012 1012,915.277 1012,796.142L1012,227.858Z"/>
            <g>
                <g transform="matrix(0.576262,0,0,0.576262,-29.987,24.1137)">
                    <path d="M362.674,329.789C362.674,300.184 338.638,276.149 309.034,276.149L201.755,276.149C172.15,276.149 148.115,300.184 148.115,329.789L148.115,437.068C148.115,466.672 172.15,490.707 201.755,490.707L309.034,490.707C338.638,490.707 362.674,466.672 362.674,437.068L362.674,329.789Z" style="fill:rgb(255,255,204);stroke:black;stroke-width:10.41px;"/>
                </g>
                <g transform="matrix(0.576262,0,0,0.576262,103.099,24.1137)">
                    <path d="M362.674,329.789C362.674,300.184 338.638,276.149 309.034,276.149L201.755,276.149C172.15,276.149 148.115,300.184 148.115,329.789L148.115,437.068C148.115,466.672 172.15,490.707 201.755,490.707L309.034,490.707C338.638,490.707 362.674,466.672 362.674,437.068L362.674,329.789Z" style="fill:rgb(255,255,204);stroke:black;stroke-width:10.41px;"/>
                </g>
                <g transform="matrix(0.576262,0,0,0.576262,236.429,24.1137)">
                    <path d="M362.674,329.789C362.674,300.184 338.638,276.149 309.034,276.149L201.755,276.149C172.15,276.149 148.115,300.184 148.115,329.789L148.115,437.068C148.115,466.672 172.15,490.707 201.755,490.707L309.034,490.707C338.638,490.707 362.674,466.672 362.674,437.068L362.674,329.789Z" style="fill:rgb(255,255,204);stroke:black;stroke-width:10.41px;"/>
                </g>
                <g transform="matrix(0.576262,0,0,0.576262,-29.987,157.144)">
                    <path d="M362.674,329.789C362.674,300.184 338.638,276.149 309.034,276.149L201.755,276.149C172.15,276.149 148.115,300.184 148.115,329.789L148.115,437.068C148.115,466.672 172.15,490.707 201.755,490.707L309.034,490.707C338.638,490.707 362.674,466.672 362.674,437.068L362.674,329.789Z" style="fill:rgb(255,255,204);stroke:black;stroke-width:10.41px;"/>
                </g>
                <g transform="matrix(0.576262,0,0,0.576262,103.099,157.144)">
                    <path d="M362.674,329.789C362.674,300.184 338.638,276.149 309.034,276.149L201.755,276.149C172.15,276.149 148.115,300.184 148.115,329.789L148.115,437.068C148.115,466.672 172.15,490.707 201.755,490.707L309.034,490.707C338.638,490.707 362.674,466.672 362.674,437.068L362.674,329.789Z" style="fill:rgb(255,255,204);stroke:black;stroke-width:10.41px;"/>
                </g>
                <g transform="matrix(0.576262,0,0,0.576262,-29.987,290.751)">
                    <path d="M362.674,329.789C362.674,300.184 338.638,276.149 309.034,276.149L201.755,276.149C172.15,276.149 148.115,300.184 148.115,329.789L148.115,437.068C148.115,466.672 172.15,490.707 201.755,490.707L309.034,490.707C338.638,490.707 362.674,466.672 362.674,437.068L362.674,329.789Z" style="fill:rgb(255,255,204);stroke:black;stroke-width:10.41px;"/>
                </g>
                <g transform="matrix(0.576262,0,0,0.576262,369.07,24.1137)">
                    <path d="M362.674,329.789C362.674,300.184 338.638,276.149 309.034,276.149L201.755,276.149C172.15,276.149 148.115,300.184 148.115,329.789L148.115,437.068C148.115,466.672 172.15,490.707 201.755,490.707L309.034,490.707C338.638,490.707 362.674,466.672 362.674,437.068L362.674,329.789Z" style="fill:rgb(255,255,204);stroke:black;stroke-width:10.41px;"/>
                </g>
                <g transform="matrix(0.576262,0,0,0.576262,634.486,24.1137)">
                    <path d="M362.674,329.789C362.674,300.184 338.638,276.149 309.034,276.149L201.755,276.149C172.15,276.149 148.115,300.184 148.115,329.789L148.115,437.068C148.115,466.672 172.15,490.707 201.755,490.707L309.034,490.707C338.638,490.707 362.674,466.672 362.674,437.068L362.674,329.789Z" style="fill:rgb(255,255,204);stroke:black;stroke-width:10.41px;"/>
                </g>
                <g transform="matrix(0.576262,0,0,0.576262,634.486,157.144)">
                    <path d="M362.674,329.789C362.674,300.184 338.638,276.149 309.034,276.149L201.755,276.149C172.15,276.149 148.115,300.184 148.115,329.789L148.115,437.068C148.115,466.672 172.15,490.707 201.755,490.707L309.034,490.707C338.638,490.707 362.674,466.672 362.674,437.068L362.674,329.789Z" style="fill:rgb(255,204,0);stroke:black;stroke-width:10.41px;"/>
                </g>
                <g transform="matrix(0.576262,0,0,0.576262,-29.987,424.393)">
                    <path d="M362.674,329.789C362.674,300.184 338.638,276.149 309.034,276.149L201.755,276.149C172.15,276.149 148.115,300.184 148.115,329.789L148.115,437.068C148.115,466.672 172.15,490.707 201.755,490.707L309.034,490.707C338.638,490.707 362.674,466.672 362.674,437.068L362.674,329.789Z" style="fill:rgb(255,255,204);stroke:black;stroke-width:10.41px;"/>
                </g>
                <g transform="matrix(0.576262,0,0,0.576262,103.099,424.393)">
                    <path d="M362.674,329.789C362.674,300.184 338.638,276.149 309.034,276.149L201.755,276.149C172.15,276.149 148.115,300.184 148.115,329.789L148.115,437.068C148.115,466.672 172.15,490.707 201.755,490.707L309.034,490.707C338.638,490.707 362.674,466.672 362.674,437.068L362.674,329.789Z" style="fill:rgb(255,255,204);stroke:black;stroke-width:10.41px;"/>
                </g>
                <g transform="matrix(0.576262,0,0,0.576262,-29.987,557.424)">
                    <path d="M362.674,329.789C362.674,300.184 338.638,276.149 309.034,276.149L201.755,276.149C172.15,276.149 148.115,300.184 148.115,329.789L148.115,437.068C148.115,466.672 172.15,490.707 201.755,490.707L309.034,490.707C338.638,490.707 362.674,466.672 362.674,437.068L362.674,329.789Z" style="fill:rgb(255,255,204);stroke:black;stroke-width:10.41px;"/>
                </g>
                <g transform="matrix(0.576262,0,0,0.576262,103.099,557.424)">
                    <path d="M362.674,329.789C362.674,300.184 338.638,276.149 309.034,276.149L201.755,276.149C172.15,276.149 148.115,300.184 148.115,329.789L148.115,437.068C148.115,466.672 172.15,490.707 201.755,490.707L309.034,490.707C338.638,490.707 362.674,466.672 362.674,437.068L362.674,329.789Z" style="fill:rgb(255,255,204);stroke:black;stroke-width:10.41px;"/>
                </g>
                <g transform="matrix(0.576262,0,0,0.576262,103.099,691.031)">
                    <path d="M362.674,329.789C362.674,300.184 338.638,276.149 309.034,276.149L201.755,276.149C172.15,276.149 148.115,300.184 148.115,329.789L148.115,437.068C148.115,466.672 172.15,490.707 201.755,490.707L309.034,490.707C338.638,490.707 362.674,466.672 362.674,437.068L362.674,329.789Z" style="fill:rgb(255,255,204);stroke:black;stroke-width:10.41px;"/>
                </g>
                <g transform="matrix(0.576262,0,0,0.576262,236.429,691.031)">
                    <path d="M362.674,329.789C362.674,300.184 338.638,276.149 309.034,276.149L201.755,276.149C172.15,276.149 148.115,300.184 148.115,329.789L148.115,437.068C148.115,466.672 172.15,490.707 201.755,490.707L309.034,490.707C338.638,490.707 362.674,466.672 362.674,437.068L362.674,329.789Z" style="fill:rgb(255,255,204);stroke:black;stroke-width:10.41px;"/>
                </g>
                <g transform="matrix(0.576262,0,0,0.576262,369.07,424.393)">
                    <path d="M362.674,329.789C362.674,300.184 338.638,276.149 309.034,276.149L201.755,276.149C172.15,276.149 148.115,300.184 148.115,329.789L148.115,437.068C148.115,466.672 172.15,490.707 201.755,490.707L309.034,490.707C338.638,490.707 362.674,466.672 362.674,437.068L362.674,329.789Z" style="fill:rgb(255,255,204);stroke:black;stroke-width:10.41px;"/>
                </g>
                <g transform="matrix(0.576262,0,0,0.576262,634.486,424.393)">
                    <path d="M362.674,329.789C362.674,300.184 338.638,276.149 309.034,276.149L201.755,276.149C172.15,276.149 148.115,300.184 148.115,329.789L148.115,437.068C148.115,466.672 172.15,490.707 201.755,490.707L309.034,490.707C338.638,490.707 362.674,466.672 362.674,437.068L362.674,329.789Z" style="fill:rgb(255,255,204);stroke:black;stroke-width:10.41px;"/>
                </g>
                <g transform="matrix(0.576262,0,0,0.576262,369.07,691.031)">
                    <path d="M362.674,329.789C362.674,300.184 338.638,276.149 309.034,276.149L201.755,276.149C172.15,276.149 148.115,300.184 148.115,329.789L148.115,437.068C148.115,466.672 172.15,490.707 201.755,490.707L309.034,490.707C338.638,490.707 362.674,466.672 362.674,437.068L362.674,329.789Z" style="fill:rgb(255,255,204);stroke:black;stroke-width:10.41px;"/>
                </g>
                <g transform="matrix(0.576262,0,0,0.576262,502.156,691.031)">
                    <path d="M362.674,329.789C362.674,300.184 338.638,276.149 309.034,276.149L201.755,276.149C172.15,276.149 148.115,300.184 148.115,329.789L148.115,437.068C148.115,466.672 172.15,490.707 201.755,490.707L309.034,490.707C338.638,490.707 362.674,466.672 362.674,437.068L362.674,329.789Z" style="fill:rgb(255,255,204);stroke:black;stroke-width:10.41px;"/>
                </g>
                <g transform="matrix(0.576262,0,0,0.576262,634.486,691.031)">
                    <path d="M362.674,329.789C362.674,300.184 338.638,276.149 309.034,276.149L201.755,276.149C172.15,276.149 148.115,300.184 148.115,329.789L148.115,437.068C148.115,466.672 172.15,490.707 201.755,490.707L309.034,490.707C338.638,490.707 362.674,466.672 362.674,437.068L362.674,329.789Z" style="fill:rgb(255,255,204);stroke:black;stroke-width:10.41px;"/>
                </g>
                <g transform="matrix(0.576262,0,0,0.576262,767.639,24.1137)">
                    <path d="M362.674,329.789C362.674,300.184 338.638,276.149 309.034,276.149L201.755,276.149C172.15,276.149 148.115,300.184 148.115,329.789L148.115,437.068C148.115,466.672 172.15,490.707 201.755,490.707L309.034,490.707C338.638,490.707 362.674,466.672 362.674,437.068L362.674,329.789Z" style="fill:rgb(255,255,204);stroke:black;stroke-width:10.41px;"/>
                </g>
                <g transform="matrix(0.576262,0,0,0.576262,103.099,-108.941)">
                    <path d="M362.674,329.789C362.674,300.184 338.638,276.149 309.034,276.149L201.755,276.149C172.15,276.149 148.115,300.184 148.115,329.789L148.115,437.068C148.115,466.672 172.15,490.707 201.755,490.707L309.034,490.707C338.638,490.707 362.674,466.672 362.674,437.068L362.674,329.789Z" style="fill:rgb(255,255,204);stroke:black;stroke-width:10.41px;"/>
                </g>
                <g transform="matrix(0.576262,0,0,0.576262,236.429,-108.941)">
                    <path d="M362.674,329.789C362.674,300.184 338.638,276.149 309.034,276.149L201.755,276.149C172.15,276.149 148.115,300.184 148.115,329.789L148.115,437.068C148.115,466.672 172.15,490.707 201.755,490.707L309.034,490.707C338.638,490.707 362.674,466.672 362.674,437.068L362.674,329.789Z" style="fill:rgb(255,255,204);stroke:black;stroke-width:10.41px;"/>
                </g>
                <g transform="matrix(0.576262,0,0,0.576262,369.07,-108.941)">
                    <path d="M362.674,329.789C362.674,300.184 338.638,276.149 309.034,276.149L201.755,276.149C172.15,276.149 148.115,300.184 148.115,329.789L148.115,437.068C148.115,466.672 172.15,490.707 201.755,490.707L309.034,490.707C338.638,490.707 362.674,466.672 362.674,437.068L362.674,329.789Z" style="fill:rgb(255,255,204);stroke:black;stroke-width:10.41px;"/>
                </g>
                <g transform="matrix(0.576262,0,0,0.576262,502.156,-108.941)">
                    <path d="M362.674,329.789C362.674,300.184 338.638,276.149 309.034,276.149L201.755,276.149C172.15,276.149 148.115,300.184 148.115,329.789L148.115,437.068C148.115,466.672 172.15,490.707 201.755,490.707L309.034,490.707C338.638,490.707 362.674,466.672 362.674,437.068L362.674,329.789Z" style="fill:rgb(255,204,0);stroke:black;stroke-width:10.41px;"/>
                </g>
                <g transform="matrix(0.576262,0,0,0.576262,634.486,-108.941)">
                    <path d="M362.674,329.789C362.674,300.184 338.638,276.149 309.034,276.149L201.755,276.149C172.15,276.149 148.115,300.184 148.115,329.789L148.115,437.068C148.115,466.672 172.15,490.707 201.755,490.707L309.034,490.707C338.638,490.707 362.674,466.672 362.674,437.068L362.674,329.789Z" style="fill:rgb(255,255,204);stroke:black;stroke-width:10.41px;"/>
                </g>
                <g transform="matrix(0.576262,0,0,0.576262,767.639,157.144)">
                    <path d="M362.674,329.789C362.674,300.184 338.638,276.149 309.034,276.149L201.755,276.149C172.15,276.149 148.115,300.184 148.115,329.789L148.115,437.068C148.115,466.672 172.15,490.707 201.755,490.707L309.034,490.707C338.638,490.707 362.674,466.672 362.674,437.068L362.674,329.789Z" style="fill:rgb(255,204,0);stroke:black;stroke-width:10.41px;"/>
                </g>
                <g transform="matrix(0.576262,0,0,0.576262,767.639,290.751)">
                    <path d="M362.674,329.789C362.674,300.184 338.638,276.149 309.034,276.149L201.755,276.149C172.15,276.149 148.115,300.184 148.115,329.789L148.115,437.068C148.115,466.672 172.15,490.707 201.755,490.707L309.034,490.707C338.638,490.707 362.674,466.672 362.674,437.068L362.674,329.789Z" style="fill:rgb(255,255,204);stroke:black;stroke-width:10.41px;"/>
                </g>
                <g transform="matrix(0.576262,0,0,0.576262,767.639,424.393)">
                    <path d="M362.674,329.789C362.674,300.184 338.638,276.149 309.034,276.149L201.755,276.149C172.15,276.149 148.115,300.184 148.115,329.789L148.115,437.068C148.115,466.672 172.15,490.707 201.755,490.707L309.034,490.707C338.638,490.707 362.674,466.672 362.674,437.068L362.674,329.789Z" style="fill:rgb(255,255,204);stroke:black;stroke-width:10.41px;"/>
                </g>
                <g transform="matrix(0.576262,0,0,0.576262,767.639,557.424)">
                    <path d="M362.674,329.789C362.674,300.184 338.638,276.149 309.034,276.149L201.755,276.149C172.15,276.149 148.115,300.184 148.115,329.789L148.115,437.068C148.115,466.672 172.15,490.707 201.755,490.707L309.034,490.707C338.638,490.707 362.674,466.672 362.674,437.068L362.674,329.789Z" style="fill:rgb(255,255,204);stroke:black;stroke-width:10.41px;"/>
                </g>
            </g>
            <g>
                <g transform="matrix(0.576262,0,0,0.576262,236.429,157.144)">
                    <path d="M362.674,329.789C362.674,300.184 338.638,276.149 309.034,276.149L201.755,276.149C172.15,276.149 148.115,300.184 148.115,329.789L148.115,437.068C148.115,466.672 172.15,490.707 201.755,490.707L309.034,490.707C338.638,490.707 362.674,466.672 362.674,437.068L362.674,329.789Z" style="fill:rgb(255,204,0);stroke:black;stroke-width:10.41px;"/>
                </g>
                <g transform="matrix(0.576262,0,0,0.576262,103.099,290.751)">
                    <path d="M362.674,329.789C362.674,300.184 338.638,276.149 309.034,276.149L201.755,276.149C172.15,276.149 148.115,300.184 148.115,329.789L148.115,437.068C148.115,466.672 172.15,490.707 201.755,490.707L309.034,490.707C338.638,490.707 362.674,466.672 362.674,437.068L362.674,329.789Z" style="fill:rgb(255,204,0);stroke:black;stroke-width:10.41px;"/>
                </g>
                <g transform="matrix(0.576262,0,0,0.576262,236.429,290.751)">
                    <path d="M362.674,329.789C362.674,300.184 338.638,276.149 309.034,276.149L201.755,276.149C172.15,276.149 148.115,300.184 148.115,329.789L148.115,437.068C148.115,466.672 172.15,490.707 201.755,490.707L309.034,490.707C338.638,490.707 362.674,466.672 362.674,437.068L362.674,329.789Z" style="fill:rgb(255,204,0);stroke:black;stroke-width:10.41px;"/>
                </g>
                <g transform="matrix(0.576262,0,0,0.576262,502.156,24.1137)">
                    <path d="M362.674,329.789C362.674,300.184 338.638,276.149 309.034,276.149L201.755,276.149C172.15,276.149 148.115,300.184 148.115,329.789L148.115,437.068C148.115,466.672 172.15,490.707 201.755,490.707L309.034,490.707C338.638,490.707 362.674,466.672 362.674,437.068L362.674,329.789Z" style="fill:rgb(255,204,0);stroke:black;stroke-width:10.41px;"/>
                </g>
                <g transform="matrix(0.576262,0,0,0.576262,502.156,157.144)">
                    <path d="M362.674,329.789C362.674,300.184 338.638,276.149 309.034,276.149L201.755,276.149C172.15,276.149 148.115,300.184 148.115,329.789L148.115,437.068C148.115,466.672 172.15,490.707 201.755,490.707L309.034,490.707C338.638,490.707 362.674,466.672 362.674,437.068L362.674,329.789Z" style="fill:rgb(255,204,0);stroke:black;stroke-width:10.41px;"/>
                </g>
                <g transform="matrix(0.576262,0,0,0.576262,369.07,290.751)">
                    <path d="M362.674,329.789C362.674,300.184 338.638,276.149 309.034,276.149L201.755,276.149C172.15,276.149 148.115,300.184 148.115,329.789L148.115,437.068C148.115,466.672 172.15,490.707 201.755,490.707L309.034,490.707C338.638,490.707 362.674,466.672 362.674,437.068L362.674,329.789Z" style="fill:rgb(255,204,0);stroke:black;stroke-width:10.41px;"/>
                </g>
                <g transform="matrix(0.576262,0,0,0.576262,502.156,290.751)">
                    <path d="M362.674,329.789C362.674,300.184 338.638,276.149 309.034,276.149L201.755,276.149C172.15,276.149 148.115,300.184 148.115,329.789L148.115,437.068C148.115,466.672 172.15,490.707 201.755,490.707L309.034,490.707C338.638,490.707 362.674,466.672 362.674,437.068L362.674,329.789Z" style="fill:rgb(255,204,0);stroke:black;stroke-width:10.41px;"/>
                </g>
                <g transform="matrix(0.576262,0,0,0.576262,634.486,290.751)">
                    <path d="M362.674,329.789C362.674,300.184 338.638,276.149 309.034,276.149L201.755,276.149C172.15,276.149 148.115,300.184 148.115,329.789L148.115,437.068C148.115,466.672 172.15,490.707 201.755,490.707L309.034,490.707C338.638,490.707 362.674,466.672 362.674,437.068L362.674,329.789Z" style="fill:rgb(255,255,204);stroke:black;stroke-width:10.41px;"/>
                </g>
                <g transform="matrix(0.576262,0,0,0.576262,236.429,424.393)">
                    <path d="M362.674,329.789C362.674,300.184 338.638,276.149 309.034,276.149L201.755,276.149C172.15,276.149 148.115,300.184 148.115,329.789L148.115,437.068C148.115,466.672 172.15,490.707 201.755,490.707L309.034,490.707C338.638,490.707 362.674,466.672 362.674,437.068L362.674,329.789Z" style="fill:rgb(255,204,0);stroke:black;stroke-width:10.41px;"/>
                </g>
                <g transform="matrix(0.576262,0,0,0.576262,236.429,557.424)">
                    <path d="M362.674,329.789C362.674,300.184 338.638,276.149 309.034,276.149L201.755,276.149C172.15,276.149 148.115,300.184 148.115,329.789L148.115,437.068C148.115,466.672 172.15,490.707 201.755,490.707L309.034,490.707C338.638,490.707 362.674,466.672 362.674,437.068L362.674,329.789Z" style="fill:rgb(255,204,0);stroke:black;stroke-width:10.41px;"/>
                </g>
                <g transform="matrix(0.576262,0,0,0.576262,502.156,424.393)">
                    <path d="M362.674,329.789C362.674,300.184 338.638,276.149 309.034,276.149L201.755,276.149C172.15,276.149 148.115,300.184 148.115,329.789L148.115,437.068C148.115,466.672 172.15,490.707 201.755,490.707L309.034,490.707C338.638,490.707 362.674,466.672 362.674,437.068L362.674,329.789Z" style="fill:rgb(255,255,204);stroke:black;stroke-width:10.41px;"/>
                </g>
                <g transform="matrix(0.576262,0,0,0.576262,369.07,557.424)">
                    <path d="M362.674,329.789C362.674,300.184 338.638,276.149 309.034,276.149L201.755,276.149C172.15,276.149 148.115,300.184 148.115,329.789L148.115,437.068C148.115,466.672 172.15,490.707 201.755,490.707L309.034,490.707C338.638,490.707 362.674,466.672 362.674,437.068L362.674,329.789Z" style="fill:rgb(255,204,0);stroke:black;stroke-width:10.41px;"/>
                </g>
                <g transform="matrix(0.576262,0,0,0.576262,502.156,557.424)">
                    <path d="M362.674,329.789C362.674,300.184 338.638,276.149 309.034,276.149L201.755,276.149C172.15,276.149 148.115,300.184 148.115,329.789L148.115,437.068C148.115,466.672 172.15,490.707 201.755,490.707L309.034,490.707C338.638,490.707 362.674,466.672 362.674,437.068L362.674,329.789Z" style="fill:rgb(255,204,0);stroke:black;stroke-width:10.41px;"/>
                </g>
                <g transform="matrix(0.576262,0,0,0.576262,634.486,557.424)">
                    <path d="M362.674,329.789C362.674,300.184 338.638,276.149 309.034,276.149L201.755,276.149C172.15,276.149 148.115,300.184 148.115,329.789L148.115,437.068C148.115,466.672 172.15,490.707 201.755,490.707L309.034,490.707C338.638,490.707 362.674,466.672 362.674,437.068L362.674,329.789Z" style="fill:rgb(255,204,0);stroke:black;stroke-width:10.41px;"/>
                </g>
                <g transform="matrix(0.576262,0,0,0.576262,369.07,157.144)">
                    <path d="M362.674,329.789C362.674,300.184 338.638,276.149 309.034,276.149L201.755,276.149C172.15,276.149 148.115,300.184 148.115,329.789L148.115,437.068C148.115,466.672 172.15,490.707 201.755,490.707L309.034,490.707C338.638,490.707 362.674,466.672 362.674,437.068L362.674,329.789Z" style="fill:rgb(255,204,0);stroke:black;stroke-width:10.41px;"/>
                </g>
            </g>
            <g>
                <g transform="matrix(1,0,0,1,554.698,-161.792)">
                    <g transform="matrix(120,0,0,120,-202.373,581.056)">
                        <path d="M0.525,-0.26C0.525,-0.215 0.517,-0.176 0.502,-0.143C0.486,-0.109 0.465,-0.082 0.438,-0.06C0.411,-0.037 0.38,-0.021 0.344,-0.01C0.308,0.001 0.269,0.007 0.228,0.007C0.212,0.007 0.195,0.005 0.176,0C0.156,-0.004 0.137,-0.009 0.118,-0.015C0.098,-0.022 0.079,-0.029 0.061,-0.036C0.043,-0.043 0.027,-0.05 0.013,-0.057L0.035,-0.258C0.062,-0.241 0.093,-0.229 0.127,-0.22C0.16,-0.211 0.194,-0.207 0.226,-0.207C0.232,-0.207 0.24,-0.207 0.249,-0.208C0.257,-0.208 0.266,-0.21 0.274,-0.212C0.282,-0.215 0.288,-0.218 0.294,-0.223C0.299,-0.228 0.302,-0.235 0.302,-0.244C0.302,-0.25 0.3,-0.256 0.296,-0.26C0.292,-0.264 0.287,-0.268 0.281,-0.271C0.275,-0.274 0.268,-0.276 0.26,-0.277C0.252,-0.279 0.245,-0.28 0.237,-0.28C0.23,-0.281 0.223,-0.281 0.216,-0.281L0.201,-0.281C0.173,-0.281 0.147,-0.286 0.124,-0.296C0.101,-0.306 0.082,-0.319 0.065,-0.337C0.049,-0.354 0.036,-0.375 0.027,-0.399C0.018,-0.423 0.013,-0.449 0.013,-0.477C0.013,-0.515 0.021,-0.549 0.036,-0.58C0.052,-0.61 0.073,-0.636 0.098,-0.657C0.124,-0.679 0.154,-0.695 0.188,-0.707C0.221,-0.718 0.256,-0.724 0.292,-0.724C0.307,-0.724 0.324,-0.723 0.341,-0.722C0.358,-0.721 0.375,-0.719 0.391,-0.716C0.408,-0.713 0.424,-0.709 0.44,-0.705C0.456,-0.7 0.472,-0.694 0.486,-0.688L0.467,-0.489C0.445,-0.497 0.422,-0.503 0.398,-0.508C0.373,-0.513 0.35,-0.516 0.327,-0.516C0.322,-0.516 0.317,-0.516 0.31,-0.515C0.304,-0.515 0.297,-0.515 0.289,-0.514C0.282,-0.513 0.275,-0.512 0.267,-0.51C0.26,-0.509 0.253,-0.506 0.247,-0.504C0.241,-0.501 0.236,-0.497 0.233,-0.493C0.229,-0.488 0.228,-0.483 0.228,-0.477C0.228,-0.469 0.231,-0.464 0.236,-0.459C0.241,-0.455 0.248,-0.451 0.256,-0.449C0.264,-0.447 0.272,-0.445 0.282,-0.444C0.292,-0.443 0.301,-0.442 0.311,-0.442C0.32,-0.442 0.329,-0.442 0.337,-0.442C0.345,-0.442 0.352,-0.442 0.357,-0.441C0.383,-0.44 0.406,-0.434 0.427,-0.425C0.448,-0.415 0.466,-0.403 0.48,-0.387C0.495,-0.372 0.506,-0.353 0.513,-0.331C0.521,-0.31 0.525,-0.286 0.525,-0.26Z" style="fill-opacity:0.33;fill-rule:nonzero;"/>
                    </g>
                </g>
                <g transform="matrix(1,0,0,1,553.832,-29.8627)">
                    <g transform="matrix(120,0,0,120,-208.789,581.056)">
                        <path d="M0.628,-0.345C0.628,-0.315 0.625,-0.287 0.618,-0.259C0.611,-0.232 0.601,-0.206 0.589,-0.182C0.576,-0.158 0.56,-0.135 0.542,-0.115C0.523,-0.095 0.503,-0.078 0.48,-0.064C0.457,-0.05 0.432,-0.038 0.405,-0.031C0.378,-0.023 0.349,-0.019 0.319,-0.019C0.29,-0.019 0.262,-0.022 0.235,-0.03C0.209,-0.037 0.184,-0.048 0.161,-0.061C0.138,-0.075 0.117,-0.091 0.098,-0.11C0.079,-0.129 0.063,-0.15 0.05,-0.174C0.037,-0.197 0.027,-0.222 0.019,-0.249C0.012,-0.275 0.008,-0.303 0.008,-0.332C0.008,-0.36 0.012,-0.388 0.019,-0.415C0.025,-0.442 0.035,-0.468 0.048,-0.492C0.061,-0.516 0.076,-0.538 0.095,-0.559C0.113,-0.579 0.133,-0.596 0.156,-0.611C0.179,-0.625 0.203,-0.637 0.229,-0.645C0.256,-0.653 0.284,-0.657 0.313,-0.657C0.36,-0.657 0.403,-0.65 0.442,-0.635C0.481,-0.621 0.514,-0.6 0.542,-0.573C0.569,-0.545 0.591,-0.512 0.606,-0.474C0.621,-0.435 0.628,-0.392 0.628,-0.345ZM0.412,-0.332C0.412,-0.346 0.41,-0.36 0.406,-0.373C0.401,-0.386 0.396,-0.398 0.388,-0.408C0.38,-0.418 0.37,-0.427 0.359,-0.433C0.347,-0.439 0.334,-0.442 0.319,-0.442C0.304,-0.442 0.29,-0.44 0.278,-0.434C0.266,-0.429 0.255,-0.421 0.247,-0.411C0.238,-0.402 0.232,-0.391 0.227,-0.378C0.222,-0.365 0.22,-0.351 0.22,-0.337C0.22,-0.323 0.222,-0.31 0.226,-0.296C0.23,-0.282 0.236,-0.27 0.244,-0.259C0.251,-0.248 0.261,-0.239 0.273,-0.232C0.284,-0.225 0.298,-0.222 0.313,-0.222C0.328,-0.222 0.342,-0.225 0.354,-0.231C0.366,-0.237 0.377,-0.245 0.385,-0.255C0.394,-0.265 0.4,-0.277 0.405,-0.291C0.409,-0.304 0.412,-0.318 0.412,-0.332Z" style="fill-rule:nonzero;"/>
                    </g>
                </g>
                <g transform="matrix(1,0,0,1,553.971,103.053)">
                    <g transform="matrix(120,0,0,120,-207.91,581.056)">
                        <path d="M0.609,-0.543C0.609,-0.519 0.608,-0.492 0.605,-0.463C0.603,-0.434 0.599,-0.404 0.594,-0.374C0.589,-0.343 0.582,-0.311 0.574,-0.28C0.566,-0.248 0.555,-0.217 0.543,-0.188C0.531,-0.159 0.516,-0.131 0.5,-0.106C0.483,-0.08 0.464,-0.058 0.443,-0.039C0.422,-0.02 0.398,-0.005 0.372,0.006C0.345,0.017 0.316,0.022 0.284,0.022C0.246,0.022 0.213,0.016 0.185,0.004C0.157,-0.008 0.134,-0.024 0.114,-0.045C0.094,-0.066 0.078,-0.09 0.065,-0.117C0.052,-0.145 0.042,-0.174 0.035,-0.205C0.028,-0.236 0.023,-0.267 0.02,-0.299C0.017,-0.331 0.016,-0.362 0.016,-0.392C0.016,-0.437 0.018,-0.483 0.023,-0.528C0.028,-0.573 0.034,-0.619 0.042,-0.664L0.271,-0.655C0.262,-0.604 0.255,-0.553 0.248,-0.501C0.242,-0.45 0.239,-0.398 0.239,-0.346C0.239,-0.34 0.239,-0.332 0.24,-0.321C0.24,-0.31 0.241,-0.298 0.242,-0.284C0.243,-0.271 0.245,-0.257 0.248,-0.243C0.25,-0.229 0.254,-0.216 0.258,-0.204C0.262,-0.192 0.267,-0.183 0.273,-0.175C0.279,-0.168 0.286,-0.164 0.294,-0.164C0.304,-0.164 0.312,-0.169 0.32,-0.177C0.327,-0.186 0.334,-0.198 0.34,-0.213C0.345,-0.228 0.35,-0.246 0.354,-0.265C0.359,-0.285 0.362,-0.305 0.365,-0.326C0.368,-0.347 0.371,-0.368 0.372,-0.39C0.374,-0.411 0.376,-0.431 0.377,-0.449C0.378,-0.467 0.379,-0.483 0.379,-0.497C0.379,-0.511 0.379,-0.521 0.379,-0.528C0.379,-0.554 0.379,-0.579 0.378,-0.604C0.377,-0.629 0.376,-0.655 0.375,-0.68L0.603,-0.68C0.607,-0.635 0.609,-0.589 0.609,-0.543Z" style="fill-opacity:0.33;fill-rule:nonzero;"/>
                    </g>
                </g>
                <g transform="matrix(1,0,0,1,552.356,239.914)">
                    <g transform="matrix(120,0,0,120,-206.269,581.056)">
                        <path d="M0.594,-0.47C0.594,-0.438 0.589,-0.41 0.58,-0.386C0.57,-0.361 0.557,-0.34 0.541,-0.322C0.524,-0.304 0.505,-0.288 0.483,-0.275C0.461,-0.263 0.437,-0.252 0.412,-0.244C0.387,-0.236 0.361,-0.231 0.333,-0.227C0.306,-0.223 0.28,-0.221 0.254,-0.221L0.254,0.007L0.026,0.007C0.026,-0.068 0.027,-0.142 0.027,-0.216C0.027,-0.29 0.028,-0.364 0.028,-0.439C0.029,-0.479 0.029,-0.519 0.029,-0.559C0.028,-0.598 0.029,-0.638 0.031,-0.679C0.073,-0.691 0.115,-0.7 0.156,-0.707C0.198,-0.713 0.241,-0.716 0.285,-0.716C0.31,-0.716 0.335,-0.714 0.36,-0.71C0.385,-0.706 0.409,-0.699 0.432,-0.69C0.455,-0.682 0.477,-0.671 0.496,-0.657C0.516,-0.644 0.533,-0.629 0.547,-0.61C0.562,-0.592 0.573,-0.571 0.581,-0.548C0.59,-0.525 0.594,-0.499 0.594,-0.47ZM0.377,-0.453C0.377,-0.474 0.371,-0.491 0.358,-0.503C0.345,-0.515 0.328,-0.521 0.308,-0.521C0.301,-0.521 0.294,-0.52 0.286,-0.519C0.279,-0.518 0.272,-0.516 0.266,-0.515L0.26,-0.372C0.264,-0.371 0.269,-0.371 0.273,-0.371L0.286,-0.371C0.298,-0.371 0.309,-0.373 0.32,-0.377C0.331,-0.381 0.341,-0.386 0.349,-0.394C0.358,-0.401 0.364,-0.41 0.369,-0.42C0.374,-0.43 0.377,-0.441 0.377,-0.453Z" style="fill-rule:nonzero;"/>
                    </g>
                </g>
                <g transform="matrix(1,0,0,1,418.61,-26.3845)">
                    <g transform="matrix(120,0,0,120,-224.99,581.056)">
                        <path d="M0.906,-0.678L0.792,-0.001L0.514,0.005L0.455,-0.346L0.395,-0.021L0.118,-0.011L0.002,-0.678L0.245,-0.699L0.293,-0.294L0.359,-0.699L0.549,-0.699L0.625,-0.289L0.665,-0.699L0.906,-0.678Z" style="fill-rule:nonzero;"/>
                    </g>
                </g>
                <g transform="matrix(1,0,0,1,685.575,-29.7006)">
                    <g transform="matrix(120,0,0,120,-206.885,581.056)">
                        <path d="M0.597,-0.471C0.597,-0.445 0.595,-0.422 0.591,-0.402C0.586,-0.381 0.579,-0.362 0.57,-0.345C0.56,-0.327 0.548,-0.312 0.533,-0.297C0.518,-0.282 0.5,-0.268 0.479,-0.255L0.595,-0.048L0.375,-0.005L0.3,-0.213L0.24,-0.211L0.231,-0.008L0.021,-0.008C0.023,-0.082 0.024,-0.156 0.026,-0.229C0.027,-0.303 0.029,-0.377 0.031,-0.451C0.031,-0.489 0.032,-0.526 0.033,-0.563C0.033,-0.599 0.035,-0.636 0.037,-0.674C0.059,-0.682 0.082,-0.689 0.104,-0.695C0.126,-0.7 0.148,-0.705 0.171,-0.708C0.193,-0.711 0.216,-0.713 0.239,-0.714C0.261,-0.715 0.285,-0.716 0.309,-0.716C0.346,-0.716 0.382,-0.711 0.417,-0.7C0.451,-0.69 0.482,-0.675 0.509,-0.654C0.535,-0.634 0.557,-0.608 0.573,-0.578C0.589,-0.547 0.597,-0.511 0.597,-0.471ZM0.378,-0.455C0.378,-0.469 0.377,-0.481 0.373,-0.493C0.369,-0.504 0.364,-0.514 0.356,-0.522C0.349,-0.531 0.34,-0.537 0.329,-0.542C0.318,-0.546 0.305,-0.549 0.291,-0.549C0.284,-0.549 0.278,-0.548 0.271,-0.548C0.265,-0.547 0.259,-0.546 0.253,-0.544L0.246,-0.362L0.257,-0.362C0.271,-0.362 0.286,-0.364 0.3,-0.368C0.315,-0.371 0.328,-0.377 0.339,-0.384C0.351,-0.392 0.36,-0.401 0.367,-0.413C0.375,-0.425 0.378,-0.439 0.378,-0.455Z" style="fill-rule:nonzero;"/>
                    </g>
                </g>
                <g transform="matrix(1,0,0,1,817.7,-28.9674)">
                    <g transform="matrix(120,0,0,120,-205.478,581.056)">
                        <path d="M0.578,-0.388C0.578,-0.342 0.572,-0.301 0.561,-0.264C0.549,-0.228 0.532,-0.195 0.511,-0.167C0.49,-0.138 0.465,-0.114 0.437,-0.093C0.408,-0.073 0.376,-0.056 0.341,-0.043C0.307,-0.03 0.27,-0.02 0.231,-0.013C0.192,-0.007 0.152,-0.004 0.111,-0.004C0.096,-0.004 0.081,-0.004 0.066,-0.005C0.052,-0.006 0.037,-0.007 0.021,-0.009L0.035,-0.664C0.071,-0.675 0.108,-0.684 0.146,-0.688C0.184,-0.693 0.221,-0.695 0.259,-0.695C0.305,-0.695 0.348,-0.688 0.387,-0.674C0.426,-0.66 0.46,-0.64 0.488,-0.614C0.517,-0.587 0.539,-0.555 0.554,-0.517C0.57,-0.479 0.578,-0.436 0.578,-0.388ZM0.378,-0.356C0.378,-0.374 0.376,-0.391 0.372,-0.407C0.368,-0.424 0.362,-0.438 0.352,-0.45C0.343,-0.463 0.331,-0.473 0.317,-0.481C0.303,-0.488 0.285,-0.493 0.266,-0.493L0.246,-0.19C0.266,-0.193 0.283,-0.2 0.299,-0.21C0.315,-0.22 0.329,-0.232 0.341,-0.246C0.352,-0.261 0.361,-0.277 0.367,-0.295C0.374,-0.312 0.377,-0.331 0.378,-0.35L0.378,-0.356Z" style="fill-rule:nonzero;"/>
                    </g>
                </g>
                <g transform="matrix(1,0,0,1,819.628,-161.854)">
                    <g transform="matrix(120,0,0,120,-197.656,581.056)">
                        <path d="M0.454,-0.278L0.434,-0.062L0.022,-0.029C0.024,-0.143 0.027,-0.256 0.029,-0.368C0.031,-0.48 0.035,-0.593 0.038,-0.707L0.292,-0.707C0.285,-0.636 0.277,-0.565 0.271,-0.493C0.264,-0.422 0.259,-0.351 0.256,-0.278C0.271,-0.278 0.286,-0.277 0.301,-0.277L0.347,-0.277C0.365,-0.277 0.383,-0.278 0.4,-0.278C0.418,-0.278 0.436,-0.278 0.454,-0.278Z" style="fill-opacity:0.33;fill-rule:nonzero;"/>
                    </g>
                </g>
                <g transform="matrix(1,0,0,1,818.34,237.489)">
                    <g transform="matrix(120,0,0,120,-208.086,581.056)">
                        <path d="M0.641,-0.042L0.398,-0.011L0.369,-0.121L0.258,-0.121L0.233,-0.011L-0.016,-0.035L0.179,-0.686L0.45,-0.699L0.641,-0.042ZM0.352,-0.271L0.314,-0.44L0.278,-0.271L0.352,-0.271Z" style="fill-rule:nonzero;"/>
                    </g>
                </g>
                <g transform="matrix(1,0,0,1,685.047,243.024)">
                    <g transform="matrix(120,0,0,120,-197.656,581.056)">
                        <path d="M0.454,-0.278L0.434,-0.062L0.022,-0.029C0.024,-0.143 0.027,-0.256 0.029,-0.368C0.031,-0.48 0.035,-0.593 0.038,-0.707L0.292,-0.707C0.285,-0.636 0.277,-0.565 0.271,-0.493C0.264,-0.422 0.259,-0.351 0.256,-0.278C0.271,-0.278 0.286,-0.277 0.301,-0.277L0.347,-0.277C0.365,-0.277 0.383,-0.278 0.4,-0.278C0.418,-0.278 0.436,-0.278 0.454,-0.278Z" style="fill-rule:nonzero;"/>
                    </g>
                </g>
                <g transform="matrix(1,0,0,1,949.941,241.648)">
                    <g transform="matrix(120,0,0,120,-206.943,581.056)">
                        <path d="M0.652,-0.661L0.384,-0.286L0.371,0.02L0.14,0.02L0.146,-0.284L0.006,-0.646L0.255,-0.678L0.294,-0.467L0.418,-0.678L0.652,-0.661Z" style="fill-rule:nonzero;"/>
                    </g>
                </g>
                <g transform="matrix(1,0,0,1,821.641,-291.303)">
                    <g transform="matrix(120,0,0,120,-208.789,581.056)">
                        <path d="M0.628,-0.345C0.628,-0.315 0.625,-0.287 0.618,-0.259C0.611,-0.232 0.601,-0.206 0.589,-0.182C0.576,-0.158 0.56,-0.135 0.542,-0.115C0.523,-0.095 0.503,-0.078 0.48,-0.064C0.457,-0.05 0.432,-0.038 0.405,-0.031C0.378,-0.023 0.349,-0.019 0.319,-0.019C0.29,-0.019 0.262,-0.022 0.235,-0.03C0.209,-0.037 0.184,-0.048 0.161,-0.061C0.138,-0.075 0.117,-0.091 0.098,-0.11C0.079,-0.129 0.063,-0.15 0.05,-0.174C0.037,-0.197 0.027,-0.222 0.019,-0.249C0.012,-0.275 0.008,-0.303 0.008,-0.332C0.008,-0.36 0.012,-0.388 0.019,-0.415C0.025,-0.442 0.035,-0.468 0.048,-0.492C0.061,-0.516 0.076,-0.538 0.095,-0.559C0.113,-0.579 0.133,-0.596 0.156,-0.611C0.179,-0.625 0.203,-0.637 0.229,-0.645C0.256,-0.653 0.284,-0.657 0.313,-0.657C0.36,-0.657 0.403,-0.65 0.442,-0.635C0.481,-0.621 0.514,-0.6 0.542,-0.573C0.569,-0.545 0.591,-0.512 0.606,-0.474C0.621,-0.435 0.628,-0.392 0.628,-0.345ZM0.412,-0.332C0.412,-0.346 0.41,-0.36 0.406,-0.373C0.401,-0.386 0.396,-0.398 0.388,-0.408C0.38,-0.418 0.37,-0.427 0.359,-0.433C0.347,-0.439 0.334,-0.442 0.319,-0.442C0.304,-0.442 0.29,-0.44 0.278,-0.434C0.266,-0.429 0.255,-0.421 0.247,-0.411C0.238,-0.402 0.232,-0.391 0.227,-0.378C0.222,-0.365 0.22,-0.351 0.22,-0.337C0.22,-0.323 0.222,-0.31 0.226,-0.296C0.23,-0.282 0.236,-0.27 0.244,-0.259C0.251,-0.248 0.261,-0.239 0.273,-0.232C0.284,-0.225 0.298,-0.222 0.313,-0.222C0.328,-0.222 0.342,-0.225 0.354,-0.231C0.366,-0.237 0.377,-0.245 0.385,-0.255C0.394,-0.265 0.4,-0.277 0.405,-0.291C0.409,-0.304 0.412,-0.318 0.412,-0.332Z" style="fill-opacity:0.33;fill-rule:nonzero;"/>
                    </g>
                </g>
                <g transform="matrix(1,0,0,1,820.88,-428.215)">
                    <g transform="matrix(120,0,0,120,-206.182,581.056)">
                        <path d="M0.593,-0.174C0.593,-0.147 0.588,-0.124 0.578,-0.104C0.568,-0.084 0.555,-0.068 0.539,-0.054C0.522,-0.041 0.503,-0.029 0.481,-0.021C0.46,-0.012 0.437,-0.005 0.414,-0C0.39,0.004 0.367,0.008 0.343,0.009C0.319,0.011 0.297,0.012 0.277,0.012C0.257,0.012 0.236,0.011 0.214,0.01C0.192,0.008 0.171,0.006 0.149,0.002C0.128,-0.002 0.107,-0.006 0.086,-0.012C0.065,-0.018 0.045,-0.026 0.027,-0.035L0.026,-0.664C0.044,-0.672 0.063,-0.678 0.084,-0.684C0.104,-0.69 0.125,-0.695 0.147,-0.699C0.168,-0.704 0.189,-0.707 0.21,-0.709C0.232,-0.711 0.252,-0.712 0.272,-0.712C0.295,-0.712 0.318,-0.71 0.342,-0.708C0.366,-0.705 0.388,-0.7 0.41,-0.693C0.432,-0.686 0.452,-0.677 0.471,-0.666C0.49,-0.655 0.507,-0.642 0.521,-0.626C0.535,-0.61 0.546,-0.591 0.554,-0.57C0.562,-0.549 0.566,-0.525 0.566,-0.497C0.566,-0.479 0.563,-0.462 0.558,-0.446C0.553,-0.43 0.545,-0.416 0.536,-0.403C0.526,-0.39 0.514,-0.379 0.5,-0.37C0.486,-0.361 0.47,-0.355 0.453,-0.351C0.474,-0.345 0.493,-0.337 0.51,-0.326C0.528,-0.315 0.543,-0.302 0.555,-0.287C0.567,-0.272 0.577,-0.255 0.583,-0.235C0.59,-0.216 0.593,-0.196 0.593,-0.174ZM0.345,-0.452C0.345,-0.462 0.343,-0.47 0.339,-0.476C0.335,-0.483 0.331,-0.488 0.325,-0.493C0.319,-0.497 0.313,-0.5 0.306,-0.502C0.3,-0.504 0.294,-0.505 0.289,-0.505C0.282,-0.505 0.276,-0.504 0.27,-0.502C0.263,-0.5 0.257,-0.498 0.251,-0.495L0.249,-0.387C0.256,-0.387 0.265,-0.387 0.276,-0.389C0.287,-0.39 0.298,-0.393 0.308,-0.397C0.319,-0.402 0.327,-0.408 0.334,-0.417C0.342,-0.425 0.345,-0.437 0.345,-0.452ZM0.276,-0.293C0.266,-0.293 0.257,-0.292 0.249,-0.29L0.247,-0.179C0.251,-0.178 0.256,-0.177 0.261,-0.176C0.266,-0.175 0.27,-0.175 0.275,-0.175C0.282,-0.175 0.289,-0.176 0.297,-0.177C0.306,-0.178 0.313,-0.181 0.32,-0.186C0.327,-0.19 0.333,-0.196 0.338,-0.204C0.343,-0.211 0.345,-0.221 0.345,-0.233C0.345,-0.246 0.343,-0.256 0.338,-0.264C0.333,-0.271 0.328,-0.278 0.321,-0.282C0.314,-0.286 0.306,-0.289 0.298,-0.291C0.29,-0.292 0.283,-0.293 0.276,-0.293Z" style="fill-opacity:0.33;fill-rule:nonzero;"/>
                    </g>
                </g>
                <g transform="matrix(1,0,0,1,682.981,-160.795)">
                    <g transform="matrix(120,0,0,120,-208.086,581.056)">
                        <path d="M0.641,-0.042L0.398,-0.011L0.369,-0.121L0.258,-0.121L0.233,-0.011L-0.016,-0.035L0.179,-0.686L0.45,-0.699L0.641,-0.042ZM0.352,-0.271L0.314,-0.44L0.278,-0.271L0.352,-0.271Z" style="fill-opacity:0.33;fill-rule:nonzero;"/>
                    </g>
                </g>
                <g transform="matrix(1,0,0,1,952.517,-162.78)">
                    <g transform="matrix(120,0,0,120,-208.086,581.056)">
                        <path d="M0.641,-0.042L0.398,-0.011L0.369,-0.121L0.258,-0.121L0.233,-0.011L-0.016,-0.035L0.179,-0.686L0.45,-0.699L0.641,-0.042ZM0.352,-0.271L0.314,-0.44L0.278,-0.271L0.352,-0.271Z" style="fill-opacity:0.33;fill-rule:nonzero;"/>
                    </g>
                </g>
                <g transform="matrix(1,0,0,1,1084.99,-162.215)">
                    <g transform="matrix(120,0,0,120,-205.478,581.056)">
                        <path d="M0.578,-0.388C0.578,-0.342 0.572,-0.301 0.561,-0.264C0.549,-0.228 0.532,-0.195 0.511,-0.167C0.49,-0.138 0.465,-0.114 0.437,-0.093C0.408,-0.073 0.376,-0.056 0.341,-0.043C0.307,-0.03 0.27,-0.02 0.231,-0.013C0.192,-0.007 0.152,-0.004 0.111,-0.004C0.096,-0.004 0.081,-0.004 0.066,-0.005C0.052,-0.006 0.037,-0.007 0.021,-0.009L0.035,-0.664C0.071,-0.675 0.108,-0.684 0.146,-0.688C0.184,-0.693 0.221,-0.695 0.259,-0.695C0.305,-0.695 0.348,-0.688 0.387,-0.674C0.426,-0.66 0.46,-0.64 0.488,-0.614C0.517,-0.587 0.539,-0.555 0.554,-0.517C0.57,-0.479 0.578,-0.436 0.578,-0.388ZM0.378,-0.356C0.378,-0.374 0.376,-0.391 0.372,-0.407C0.368,-0.424 0.362,-0.438 0.352,-0.45C0.343,-0.463 0.331,-0.473 0.317,-0.481C0.303,-0.488 0.285,-0.493 0.266,-0.493L0.246,-0.19C0.266,-0.193 0.283,-0.2 0.299,-0.21C0.315,-0.22 0.329,-0.232 0.341,-0.246C0.352,-0.261 0.361,-0.277 0.367,-0.295C0.374,-0.312 0.377,-0.331 0.378,-0.35L0.378,-0.356Z" style="fill-opacity:0.33;fill-rule:nonzero;"/>
                    </g>
                </g>
            </g>
            <g transform="matrix(0.707107,-0.707107,0.707107,0.707107,-311.303,225.098)">
                <g transform="matrix(1.55488,0,0,1.28984,679.331,-68.6261)">
                    <path d="M-30.604,300.604L-4.762,331.517L24.1,366.623L-414.131,368.646L-373.859,322.52L-349.695,292.513L-328.995,268.644L-58.957,268.644L-30.604,300.604Z" style="fill:rgb(255,38,0);"/>
                    <path d="M-30.604,300.604L-4.762,331.517L24.1,366.623L-414.131,368.646L-373.859,322.52L-349.695,292.513L-328.995,268.644L-58.957,268.644L-30.604,300.604ZM-32.389,302.838C-32.389,302.838 -59.972,271.745 -59.972,271.745L-327.962,271.745L-347.882,294.715L-372.013,324.68C-372.037,324.71 -372.062,324.74 -372.087,324.769L-407.663,365.515L17.951,363.55L-6.582,333.709L-32.389,302.838Z"/>
                </g>
                <g transform="matrix(1,0,0,1,504.158,155.638)">
                    <g transform="matrix(80,0,0,80,-358.533,215.383)">
                        <path d="M0.514,-0.118L0.262,-0.118L0.227,-0L0.001,-0L0.27,-0.716L0.511,-0.716L0.78,-0L0.549,-0L0.514,-0.118ZM0.467,-0.273L0.388,-0.53L0.31,-0.273L0.467,-0.273Z" style="fill:white;fill-rule:nonzero;"/>
                    </g>
                    <g transform="matrix(80,0,0,80,-296.307,215.383)">
                        <path d="M0.076,-0L0.076,-0.716L0.445,-0.716C0.513,-0.716 0.565,-0.71 0.602,-0.698C0.638,-0.687 0.667,-0.665 0.689,-0.633C0.711,-0.601 0.722,-0.563 0.722,-0.517C0.722,-0.477 0.714,-0.443 0.697,-0.414C0.68,-0.385 0.657,-0.362 0.627,-0.344C0.608,-0.333 0.582,-0.323 0.549,-0.316C0.576,-0.307 0.595,-0.298 0.607,-0.29C0.615,-0.284 0.627,-0.271 0.642,-0.252C0.658,-0.233 0.668,-0.218 0.673,-0.208L0.78,-0L0.53,-0L0.412,-0.219C0.397,-0.247 0.384,-0.265 0.372,-0.274C0.356,-0.285 0.338,-0.291 0.318,-0.291L0.298,-0.291L0.298,-0L0.076,-0ZM0.298,-0.426L0.392,-0.426C0.402,-0.426 0.421,-0.429 0.45,-0.436C0.465,-0.438 0.477,-0.446 0.486,-0.458C0.495,-0.47 0.5,-0.484 0.5,-0.5C0.5,-0.523 0.493,-0.54 0.478,-0.553C0.463,-0.565 0.436,-0.571 0.396,-0.571L0.298,-0.571L0.298,-0.426Z" style="fill:white;fill-rule:nonzero;"/>
                    </g>
                    <g transform="matrix(80,0,0,80,-235.525,215.383)">
                        <path d="M0.55,-0.292L0.744,-0.234C0.731,-0.18 0.71,-0.134 0.682,-0.098C0.654,-0.061 0.619,-0.034 0.578,-0.015C0.536,0.003 0.484,0.013 0.419,0.013C0.342,0.013 0.278,0.001 0.229,-0.021C0.179,-0.044 0.137,-0.084 0.101,-0.141C0.065,-0.198 0.047,-0.271 0.047,-0.359C0.047,-0.478 0.079,-0.569 0.142,-0.633C0.205,-0.696 0.294,-0.728 0.409,-0.728C0.499,-0.728 0.57,-0.71 0.622,-0.673C0.673,-0.637 0.712,-0.581 0.737,-0.505L0.542,-0.462C0.535,-0.484 0.528,-0.5 0.52,-0.51C0.508,-0.527 0.493,-0.54 0.475,-0.549C0.457,-0.558 0.437,-0.563 0.415,-0.563C0.364,-0.563 0.326,-0.542 0.299,-0.502C0.279,-0.472 0.269,-0.425 0.269,-0.361C0.269,-0.281 0.281,-0.227 0.305,-0.198C0.329,-0.168 0.363,-0.153 0.407,-0.153C0.449,-0.153 0.481,-0.165 0.503,-0.189C0.524,-0.213 0.54,-0.247 0.55,-0.292Z" style="fill:white;fill-rule:nonzero;"/>
                    </g>
                    <g transform="matrix(80,0,0,80,-173.299,215.383)">
                        <path d="M0.074,-0.716L0.295,-0.716L0.295,-0.465L0.537,-0.465L0.537,-0.716L0.759,-0.716L0.759,-0L0.537,-0L0.537,-0.29L0.295,-0.29L0.295,-0L0.074,-0L0.074,-0.716Z" style="fill:white;fill-rule:nonzero;"/>
                    </g>
                    <g transform="matrix(80,0,0,80,-106.658,215.383)">
                        <rect x="0.082" y="-0.716" width="0.222" height="0.716" style="fill:white;fill-rule:nonzero;"/>
                    </g>
                    <g transform="matrix(80,0,0,80,-75.5253,215.383)">
                        <path d="M0.002,-0.716L0.234,-0.716L0.395,-0.201L0.554,-0.716L0.778,-0.716L0.513,-0L0.273,-0L0.002,-0.716Z" style="fill:white;fill-rule:nonzero;"/>
                    </g>
                    <g transform="matrix(80,0,0,80,-13.2987,215.383)">
                        <path d="M0.073,-0.716L0.666,-0.716L0.666,-0.563L0.294,-0.563L0.294,-0.449L0.639,-0.449L0.639,-0.303L0.294,-0.303L0.294,-0.162L0.676,-0.162L0.676,-0L0.073,-0L0.073,-0.716Z" style="fill:white;fill-rule:nonzero;"/>
                    </g>
                    <g transform="matrix(80,0,0,80,44.4747,215.383)">
                        <path d="M0.076,-0.716L0.405,-0.716C0.47,-0.716 0.522,-0.707 0.562,-0.689C0.602,-0.672 0.635,-0.647 0.661,-0.614C0.687,-0.581 0.706,-0.543 0.717,-0.499C0.729,-0.455 0.735,-0.409 0.735,-0.36C0.735,-0.284 0.726,-0.225 0.709,-0.182C0.691,-0.14 0.667,-0.105 0.636,-0.076C0.605,-0.048 0.572,-0.029 0.537,-0.02C0.488,-0.007 0.444,-0 0.405,-0L0.076,-0L0.076,-0.716ZM0.297,-0.554L0.297,-0.163L0.352,-0.163C0.398,-0.163 0.431,-0.168 0.45,-0.178C0.47,-0.188 0.485,-0.206 0.496,-0.232C0.507,-0.257 0.513,-0.299 0.513,-0.356C0.513,-0.432 0.5,-0.484 0.476,-0.512C0.451,-0.54 0.41,-0.554 0.353,-0.554L0.297,-0.554Z" style="fill:white;fill-rule:nonzero;"/>
                    </g>
                </g>
            </g>
        </g>
    </g>
</svg>
