<?xml version="1.0" encoding="UTF-8" standalone="no"?>
<!DOCTYPE svg PUBLIC "-//W3C//DTD SVG 1.1//EN" "http://www.w3.org/Graphics/SVG/1.1/DTD/svg11.dtd">
<svg width="100%" height="100%" viewBox="0 0 1024 1024" version="1.1" xmlns="http://www.w3.org/2000/svg" xmlnsxlink="http://www.w3.org/1999/xlink" xmlspace="preserve" xmlnsserif="http://www.serif.com/" style="fill-rule:evenodd;clip-rule:evenodd;stroke-linecap:round;stroke-linejoin:round;stroke-miterlimit:1.5;">
    <rect id="Artboard1" x="0" y="0" width="1024" height="1024" style="fill:none;"/>
    <g id="Artboard11" serifid="Artboard1">
        <g>
            <path d="M1024,227.858C1024,102.1 921.9,0 796.142,0L227.858,0C102.1,0 0,102.1 0,227.858L0,796.142C0,921.9 102.1,1024 227.858,1024L796.142,1024C921.9,1024 1024,921.9 1024,796.142L1024,227.858Z" style="fill:rgb(255,255,204);"/>
            <path d="M1024,227.858L1024,796.142C1024,921.9 921.9,1024 796.142,1024L227.858,1024C102.1,1024 0,921.9 0,796.142L0,227.858C0,102.1 102.1,0 227.858,0L796.142,0C921.9,0 1024,102.1 1024,227.858ZM1012,227.858C1012,108.723 915.277,12 796.142,12L227.858,12C108.723,12 12,108.723 12,227.858L12,796.142C12,915.277 108.723,1012 227.858,1012L796.142,1012C915.277,1012 1012,915.277 1012,796.142L1012,227.858Z"/>
            <g transform="matrix(0.704241,0,0,0.704241,147.806,143.058)">
                <g transform="matrix(1.15252,0,0,1.15252,-170.707,-318.269)">
                    <path d="M362.674,329.789C362.674,300.184 338.638,276.149 309.034,276.149L201.755,276.149C172.15,276.149 148.115,300.184 148.115,329.789L148.115,437.068C148.115,466.672 172.15,490.707 201.755,490.707L309.034,490.707C338.638,490.707 362.674,466.672 362.674,437.068L362.674,329.789Z" style="fill:rgb(41,199,50);stroke:black;stroke-width:7.39px;"/>
                </g>
                <g transform="matrix(1.15252,0,0,1.15252,91.4655,-318.269)">
                    <path d="M362.674,329.789C362.674,300.184 338.638,276.149 309.034,276.149L201.755,276.149C172.15,276.149 148.115,300.184 148.115,329.789L148.115,437.068C148.115,466.672 172.15,490.707 201.755,490.707L309.034,490.707C338.638,490.707 362.674,466.672 362.674,437.068L362.674,329.789Z" style="fill:rgb(192,192,192);stroke:black;stroke-width:7.39px;"/>
                </g>
                <g transform="matrix(1.15252,0,0,1.15252,354.125,-318.269)">
                    <path d="M362.674,329.789C362.674,300.184 338.638,276.149 309.034,276.149L201.755,276.149C172.15,276.149 148.115,300.184 148.115,329.789L148.115,437.068C148.115,466.672 172.15,490.707 201.755,490.707L309.034,490.707C338.638,490.707 362.674,466.672 362.674,437.068L362.674,329.789Z" style="fill:rgb(192,192,192);stroke:black;stroke-width:7.39px;"/>
                </g>
                <g transform="matrix(1.15252,0,0,1.15252,-170.707,-52.2075)">
                    <path d="M362.674,329.789C362.674,300.184 338.638,276.149 309.034,276.149L201.755,276.149C172.15,276.149 148.115,300.184 148.115,329.789L148.115,437.068C148.115,466.672 172.15,490.707 201.755,490.707L309.034,490.707C338.638,490.707 362.674,466.672 362.674,437.068L362.674,329.789Z" style="fill:rgb(192,192,192);stroke:black;stroke-width:7.39px;"/>
                </g>
                <g transform="matrix(1.15252,0,0,1.15252,91.4655,-52.2075)">
                    <path d="M362.674,329.789C362.674,300.184 338.638,276.149 309.034,276.149L201.755,276.149C172.15,276.149 148.115,300.184 148.115,329.789L148.115,437.068C148.115,466.672 172.15,490.707 201.755,490.707L309.034,490.707C338.638,490.707 362.674,466.672 362.674,437.068L362.674,329.789Z" style="fill:rgb(192,192,192);stroke:black;stroke-width:7.39px;"/>
                </g>
                <g transform="matrix(1.15252,0,0,1.15252,354.125,-52.2075)">
                    <path d="M362.674,329.789C362.674,300.184 338.638,276.149 309.034,276.149L201.755,276.149C172.15,276.149 148.115,300.184 148.115,329.789L148.115,437.068C148.115,466.672 172.15,490.707 201.755,490.707L309.034,490.707C338.638,490.707 362.674,466.672 362.674,437.068L362.674,329.789Z" style="fill:rgb(192,192,192);stroke:black;stroke-width:7.39px;"/>
                </g>
                <g transform="matrix(1.15252,0,0,1.15252,-170.707,215.006)">
                    <path d="M362.674,329.789C362.674,300.184 338.638,276.149 309.034,276.149L201.755,276.149C172.15,276.149 148.115,300.184 148.115,329.789L148.115,437.068C148.115,466.672 172.15,490.707 201.755,490.707L309.034,490.707C338.638,490.707 362.674,466.672 362.674,437.068L362.674,329.789Z" style="fill:rgb(192,192,192);stroke:black;stroke-width:7.39px;"/>
                </g>
                <g transform="matrix(1.15252,0,0,1.15252,91.4655,215.006)">
                    <path d="M362.674,329.789C362.674,300.184 338.638,276.149 309.034,276.149L201.755,276.149C172.15,276.149 148.115,300.184 148.115,329.789L148.115,437.068C148.115,466.672 172.15,490.707 201.755,490.707L309.034,490.707C338.638,490.707 362.674,466.672 362.674,437.068L362.674,329.789Z" style="fill:rgb(192,192,192);stroke:black;stroke-width:7.39px;"/>
                </g>
                <g transform="matrix(1.15252,0,0,1.15252,354.125,215.006)">
                    <path d="M362.674,329.789C362.674,300.184 338.638,276.149 309.034,276.149L201.755,276.149C172.15,276.149 148.115,300.184 148.115,329.789L148.115,437.068C148.115,466.672 172.15,490.707 201.755,490.707L309.034,490.707C338.638,490.707 362.674,466.672 362.674,437.068L362.674,329.789Z" style="fill:rgb(41,199,50);stroke:black;stroke-width:7.39px;"/>
                </g>
                <g transform="matrix(1.15252,0,0,1.15252,616.297,-318.269)">
                    <path d="M362.674,329.789C362.674,300.184 338.638,276.149 309.034,276.149L201.755,276.149C172.15,276.149 148.115,300.184 148.115,329.789L148.115,437.068C148.115,466.672 172.15,490.707 201.755,490.707L309.034,490.707C338.638,490.707 362.674,466.672 362.674,437.068L362.674,329.789Z" style="fill:rgb(255,212,121);stroke:black;stroke-width:7.39px;"/>
                </g>
                <g transform="matrix(1.15252,0,0,1.15252,616.297,-52.2075)">
                    <path d="M362.674,329.789C362.674,300.184 338.638,276.149 309.034,276.149L201.755,276.149C172.15,276.149 148.115,300.184 148.115,329.789L148.115,437.068C148.115,466.672 172.15,490.707 201.755,490.707L309.034,490.707C338.638,490.707 362.674,466.672 362.674,437.068L362.674,329.789Z" style="fill:rgb(255,212,121);stroke:black;stroke-width:7.39px;"/>
                </g>
                <g transform="matrix(1.15252,0,0,1.15252,616.297,215.006)">
                    <path d="M362.674,329.789C362.674,300.184 338.638,276.149 309.034,276.149L201.755,276.149C172.15,276.149 148.115,300.184 148.115,329.789L148.115,437.068C148.115,466.672 172.15,490.707 201.755,490.707L309.034,490.707C338.638,490.707 362.674,466.672 362.674,437.068L362.674,329.789Z" style="fill:rgb(41,199,50);stroke:black;stroke-width:7.39px;"/>
                </g>
                <g transform="matrix(1.15252,0,0,1.15252,-170.707,482.22)">
                    <path d="M362.674,329.789C362.674,300.184 338.638,276.149 309.034,276.149L201.755,276.149C172.15,276.149 148.115,300.184 148.115,329.789L148.115,437.068C148.115,466.672 172.15,490.707 201.755,490.707L309.034,490.707C338.638,490.707 362.674,466.672 362.674,437.068L362.674,329.789Z" style="fill:rgb(41,199,50);stroke:black;stroke-width:7.39px;"/>
                </g>
                <g transform="matrix(1.15252,0,0,1.15252,91.4655,482.22)">
                    <path d="M362.674,329.789C362.674,300.184 338.638,276.149 309.034,276.149L201.755,276.149C172.15,276.149 148.115,300.184 148.115,329.789L148.115,437.068C148.115,466.672 172.15,490.707 201.755,490.707L309.034,490.707C338.638,490.707 362.674,466.672 362.674,437.068L362.674,329.789Z" style="fill:rgb(41,199,50);stroke:black;stroke-width:7.39px;"/>
                </g>
                <g transform="matrix(1.15252,0,0,1.15252,354.125,482.22)">
                    <path d="M362.674,329.789C362.674,300.184 338.638,276.149 309.034,276.149L201.755,276.149C172.15,276.149 148.115,300.184 148.115,329.789L148.115,437.068C148.115,466.672 172.15,490.707 201.755,490.707L309.034,490.707C338.638,490.707 362.674,466.672 362.674,437.068L362.674,329.789Z" style="fill:rgb(41,199,50);stroke:black;stroke-width:7.39px;"/>
                </g>
                <g transform="matrix(1.15252,0,0,1.15252,616.297,482.22)">
                    <path d="M362.674,329.789C362.674,300.184 338.638,276.149 309.034,276.149L201.755,276.149C172.15,276.149 148.115,300.184 148.115,329.789L148.115,437.068C148.115,466.672 172.15,490.707 201.755,490.707L309.034,490.707C338.638,490.707 362.674,466.672 362.674,437.068L362.674,329.789Z" style="fill:rgb(41,199,50);stroke:black;stroke-width:7.39px;"/>
                </g>
            </g>
            <g>
                <g>
                    <g transform="matrix(1,0,0,1,-745.879,230.233)">
                        <g transform="matrix(144,0,0,144,915.404,432.242)">
                            <path d="M0.906,-0.678L0.792,-0.001L0.514,0.005L0.455,-0.346L0.395,-0.021L0.118,-0.011L0.002,-0.678L0.245,-0.699L0.293,-0.294L0.359,-0.699L0.549,-0.699L0.625,-0.289L0.665,-0.699L0.906,-0.678Z" style="fill-rule:nonzero;"/>
                        </g>
                    </g>
                    <g transform="matrix(1,0,0,1,-561.247,230.233)">
                        <g transform="matrix(144,0,0,144,934.845,432.242)">
                            <path d="M0.628,-0.374C0.628,-0.344 0.625,-0.316 0.618,-0.288C0.611,-0.261 0.601,-0.235 0.589,-0.211C0.576,-0.187 0.56,-0.165 0.542,-0.145C0.523,-0.125 0.503,-0.108 0.48,-0.093C0.457,-0.079 0.432,-0.068 0.405,-0.06C0.378,-0.052 0.349,-0.048 0.319,-0.048C0.29,-0.048 0.262,-0.052 0.235,-0.059C0.209,-0.067 0.184,-0.077 0.161,-0.091C0.138,-0.104 0.117,-0.12 0.098,-0.139C0.079,-0.158 0.063,-0.18 0.05,-0.203C0.037,-0.226 0.027,-0.251 0.019,-0.278C0.012,-0.305 0.008,-0.332 0.008,-0.361C0.008,-0.39 0.012,-0.417 0.019,-0.445C0.025,-0.472 0.035,-0.497 0.048,-0.521C0.061,-0.546 0.076,-0.568 0.095,-0.588C0.113,-0.608 0.133,-0.625 0.156,-0.64C0.179,-0.655 0.203,-0.666 0.229,-0.674C0.256,-0.682 0.284,-0.687 0.313,-0.687C0.36,-0.687 0.403,-0.679 0.442,-0.665C0.481,-0.65 0.514,-0.629 0.542,-0.602C0.569,-0.575 0.591,-0.542 0.606,-0.503C0.621,-0.465 0.628,-0.422 0.628,-0.374ZM0.412,-0.361C0.412,-0.375 0.41,-0.389 0.406,-0.402C0.401,-0.415 0.396,-0.427 0.388,-0.437C0.38,-0.448 0.37,-0.456 0.359,-0.462C0.347,-0.469 0.334,-0.472 0.319,-0.472C0.304,-0.472 0.29,-0.469 0.278,-0.463C0.266,-0.458 0.255,-0.45 0.247,-0.441C0.238,-0.431 0.232,-0.42 0.227,-0.407C0.222,-0.394 0.22,-0.381 0.22,-0.366C0.22,-0.353 0.222,-0.339 0.226,-0.325C0.23,-0.312 0.236,-0.299 0.244,-0.288C0.251,-0.277 0.261,-0.268 0.273,-0.261C0.284,-0.254 0.298,-0.251 0.313,-0.251C0.328,-0.251 0.342,-0.254 0.354,-0.26C0.366,-0.266 0.377,-0.274 0.385,-0.284C0.394,-0.295 0.4,-0.306 0.405,-0.32C0.409,-0.333 0.412,-0.347 0.412,-0.361Z" style="fill-rule:nonzero;"/>
                        </g>
                    </g>
                    <g transform="matrix(1,0,0,1,-376.271,230.233)">
                        <g transform="matrix(144,0,0,144,937.13,432.242)">
                            <path d="M0.597,-0.471C0.597,-0.445 0.595,-0.422 0.591,-0.402C0.586,-0.381 0.579,-0.362 0.57,-0.345C0.56,-0.327 0.548,-0.312 0.533,-0.297C0.518,-0.282 0.5,-0.268 0.479,-0.255L0.595,-0.048L0.375,-0.005L0.3,-0.213L0.24,-0.211L0.231,-0.008L0.021,-0.008C0.023,-0.082 0.024,-0.156 0.026,-0.229C0.027,-0.303 0.029,-0.377 0.031,-0.451C0.031,-0.489 0.032,-0.526 0.033,-0.563C0.033,-0.599 0.035,-0.636 0.037,-0.674C0.059,-0.682 0.082,-0.689 0.104,-0.695C0.126,-0.7 0.148,-0.705 0.171,-0.708C0.193,-0.711 0.216,-0.713 0.239,-0.714C0.261,-0.715 0.285,-0.716 0.309,-0.716C0.346,-0.716 0.382,-0.711 0.417,-0.7C0.451,-0.69 0.482,-0.675 0.509,-0.654C0.535,-0.634 0.557,-0.608 0.573,-0.578C0.589,-0.547 0.597,-0.511 0.597,-0.471ZM0.378,-0.455C0.378,-0.469 0.377,-0.481 0.373,-0.493C0.369,-0.504 0.364,-0.514 0.356,-0.522C0.349,-0.531 0.34,-0.537 0.329,-0.542C0.318,-0.546 0.305,-0.549 0.291,-0.549C0.284,-0.549 0.278,-0.548 0.271,-0.548C0.265,-0.547 0.259,-0.546 0.253,-0.544L0.246,-0.362L0.257,-0.362C0.271,-0.362 0.286,-0.364 0.3,-0.368C0.315,-0.371 0.328,-0.377 0.339,-0.384C0.351,-0.392 0.36,-0.401 0.367,-0.413C0.375,-0.425 0.378,-0.439 0.378,-0.455Z" style="fill-rule:nonzero;"/>
                        </g>
                    </g>
                    <g transform="matrix(1,0,0,1,-191.639,230.233)">
                        <g transform="matrix(144,0,0,144,938.747,432.242)">
                            <path d="M0.578,-0.388C0.578,-0.342 0.572,-0.301 0.561,-0.265C0.549,-0.229 0.532,-0.197 0.511,-0.169C0.49,-0.141 0.465,-0.118 0.437,-0.098C0.408,-0.079 0.376,-0.063 0.341,-0.05C0.307,-0.038 0.27,-0.028 0.231,-0.022C0.192,-0.017 0.152,-0.014 0.111,-0.014C0.096,-0.014 0.081,-0.014 0.066,-0.015C0.052,-0.016 0.037,-0.017 0.021,-0.019L0.035,-0.654C0.071,-0.666 0.108,-0.674 0.146,-0.678C0.184,-0.683 0.221,-0.686 0.259,-0.686C0.305,-0.686 0.348,-0.679 0.387,-0.666C0.426,-0.653 0.46,-0.634 0.488,-0.609C0.517,-0.583 0.539,-0.552 0.554,-0.515C0.57,-0.478 0.578,-0.436 0.578,-0.388ZM0.246,-0.2C0.266,-0.203 0.283,-0.209 0.3,-0.218C0.316,-0.227 0.33,-0.238 0.341,-0.251C0.353,-0.264 0.362,-0.279 0.368,-0.296C0.375,-0.313 0.378,-0.331 0.378,-0.35C0.378,-0.368 0.376,-0.385 0.372,-0.402C0.368,-0.418 0.362,-0.432 0.353,-0.444C0.344,-0.455 0.333,-0.465 0.318,-0.472C0.304,-0.479 0.286,-0.483 0.266,-0.483L0.246,-0.2Z" style="fill-rule:nonzero;"/>
                        </g>
                    </g>
                </g>
                <g>
                    <g transform="matrix(1,0,0,1,-745.879,42.0497)">
                        <g transform="matrix(144,0,0,144,935.654,432.242)">
                            <path d="M0.614,-0.1C0.599,-0.08 0.58,-0.064 0.558,-0.049C0.535,-0.035 0.511,-0.023 0.485,-0.014C0.46,-0.004 0.433,0.003 0.406,0.008C0.379,0.012 0.354,0.015 0.329,0.015C0.282,0.015 0.238,0.006 0.199,-0.011C0.159,-0.028 0.125,-0.051 0.096,-0.081C0.067,-0.111 0.045,-0.146 0.028,-0.186C0.012,-0.226 0.004,-0.27 0.004,-0.316C0.004,-0.352 0.008,-0.387 0.016,-0.421C0.024,-0.455 0.036,-0.487 0.051,-0.517C0.066,-0.547 0.085,-0.575 0.106,-0.6C0.128,-0.625 0.153,-0.647 0.181,-0.665C0.208,-0.683 0.239,-0.697 0.271,-0.708C0.304,-0.718 0.34,-0.723 0.377,-0.723C0.391,-0.723 0.406,-0.722 0.422,-0.721C0.438,-0.72 0.454,-0.718 0.469,-0.715C0.485,-0.712 0.501,-0.708 0.516,-0.704C0.531,-0.699 0.544,-0.693 0.557,-0.686L0.543,-0.499C0.525,-0.506 0.506,-0.51 0.487,-0.513C0.467,-0.515 0.448,-0.517 0.43,-0.517C0.404,-0.517 0.379,-0.513 0.357,-0.505C0.334,-0.497 0.314,-0.485 0.298,-0.47C0.281,-0.455 0.268,-0.437 0.258,-0.416C0.248,-0.394 0.243,-0.37 0.243,-0.343C0.243,-0.326 0.245,-0.309 0.25,-0.294C0.255,-0.278 0.261,-0.264 0.271,-0.252C0.28,-0.24 0.292,-0.23 0.305,-0.222C0.319,-0.215 0.335,-0.211 0.354,-0.211C0.366,-0.211 0.379,-0.213 0.392,-0.216C0.405,-0.219 0.416,-0.225 0.426,-0.232L0.428,-0.271L0.311,-0.272L0.316,-0.419C0.365,-0.421 0.413,-0.422 0.462,-0.423C0.51,-0.424 0.559,-0.426 0.608,-0.428L0.614,-0.1Z" style="fill:rgb(128,128,128);fill-rule:nonzero;"/>
                        </g>
                    </g>
                    <g transform="matrix(1,0,0,1,-561.247,42.0497)">
                        <g transform="matrix(144,0,0,144,935.689,432.242)">
                            <path d="M0.641,-0.042L0.398,-0.011L0.369,-0.121L0.258,-0.121L0.233,-0.011L-0.016,-0.035L0.179,-0.686L0.45,-0.699L0.641,-0.042ZM0.352,-0.271L0.314,-0.44L0.278,-0.271L0.352,-0.271Z" style="fill:rgb(128,128,128);fill-rule:nonzero;"/>
                        </g>
                    </g>
                    <g transform="matrix(1,0,0,1,-376.271,42.0497)">
                        <g transform="matrix(144,0,0,144,923.841,432.242)">
                            <path d="M0.78,-0.712L0.735,0.005L0.512,0.015L0.514,-0.363L0.414,-0.059L0.328,-0.059L0.25,-0.331L0.25,-0.015L0.024,-0.008L0.034,-0.683L0.285,-0.692L0.384,-0.369L0.517,-0.712L0.78,-0.712Z" style="fill:rgb(128,128,128);fill-rule:nonzero;"/>
                        </g>
                    </g>
                    <g transform="matrix(1,0,0,1,-191.639,42.0497)">
                        <g transform="matrix(144,0,0,144,946.271,432.242)">
                            <path d="M0.487,-0.704C0.485,-0.674 0.484,-0.643 0.482,-0.613C0.48,-0.583 0.478,-0.553 0.476,-0.522L0.269,-0.512L0.264,-0.45L0.409,-0.45L0.398,-0.299L0.252,-0.294L0.247,-0.223L0.454,-0.223C0.452,-0.187 0.45,-0.151 0.448,-0.116C0.446,-0.081 0.444,-0.045 0.442,-0.01L0.021,-0L0.037,-0.704L0.487,-0.704Z" style="fill:rgb(128,128,128);fill-rule:nonzero;"/>
                        </g>
                    </g>
                </g>
                <g>
                    <g transform="matrix(1,0,0,1,-745.879,-145.322)">
                        <g transform="matrix(144,0,0,144,930.099,432.242)">
                            <path d="M0.689,-0.7L0.654,-0.038L0.398,-0.015L0.261,-0.369L0.24,-0.008L0.02,-0.008L0.038,-0.7L0.282,-0.712L0.451,-0.36L0.458,-0.692L0.689,-0.7Z" style="fill:rgb(128,128,128);fill-rule:nonzero;"/>
                        </g>
                    </g>
                    <g transform="matrix(1,0,0,1,-561.247,-145.322)">
                        <g transform="matrix(144,0,0,144,959.349,432.242)">
                            <path d="M0.289,-0.688L0.235,-0.022L0.029,-0.012L0.029,-0.674L0.289,-0.688Z" style="fill:rgb(128,128,128);fill-rule:nonzero;"/>
                        </g>
                    </g>
                    <g transform="matrix(1,0,0,1,-376.271,-145.322)">
                        <g transform="matrix(144,0,0,144,943.704,432.242)">
                            <path d="M0.509,-0.687L0.481,-0.48C0.472,-0.483 0.463,-0.485 0.453,-0.486C0.444,-0.487 0.434,-0.487 0.425,-0.487C0.401,-0.487 0.378,-0.484 0.356,-0.478C0.334,-0.471 0.315,-0.462 0.298,-0.449C0.281,-0.436 0.268,-0.419 0.258,-0.4C0.248,-0.38 0.243,-0.357 0.243,-0.331C0.243,-0.314 0.246,-0.299 0.251,-0.287C0.257,-0.275 0.264,-0.264 0.274,-0.256C0.284,-0.248 0.295,-0.242 0.309,-0.238C0.322,-0.234 0.337,-0.232 0.353,-0.232C0.365,-0.232 0.377,-0.234 0.39,-0.236C0.403,-0.239 0.416,-0.242 0.429,-0.247C0.441,-0.251 0.454,-0.256 0.466,-0.261C0.478,-0.267 0.489,-0.272 0.499,-0.278L0.479,-0.049C0.467,-0.042 0.453,-0.037 0.438,-0.031C0.423,-0.026 0.408,-0.022 0.393,-0.018C0.377,-0.015 0.361,-0.012 0.346,-0.01C0.33,-0.008 0.315,-0.007 0.301,-0.007C0.259,-0.007 0.221,-0.014 0.185,-0.03C0.149,-0.045 0.118,-0.066 0.092,-0.093C0.065,-0.119 0.045,-0.151 0.03,-0.187C0.014,-0.224 0.007,-0.263 0.007,-0.305C0.007,-0.36 0.015,-0.413 0.031,-0.462C0.047,-0.511 0.07,-0.555 0.101,-0.592C0.132,-0.629 0.17,-0.658 0.216,-0.68C0.262,-0.701 0.314,-0.712 0.374,-0.712C0.396,-0.712 0.42,-0.71 0.443,-0.707C0.467,-0.703 0.489,-0.696 0.509,-0.687Z" style="fill:rgb(128,128,128);fill-rule:nonzero;"/>
                        </g>
                    </g>
                    <g transform="matrix(1,0,0,1,-191.639,-145.322)">
                        <g transform="matrix(144,0,0,144,946.271,432.242)">
                            <path d="M0.487,-0.704C0.485,-0.674 0.484,-0.643 0.482,-0.613C0.48,-0.583 0.478,-0.553 0.476,-0.522L0.269,-0.512L0.264,-0.45L0.409,-0.45L0.398,-0.299L0.252,-0.294L0.247,-0.223L0.454,-0.223C0.452,-0.187 0.45,-0.151 0.448,-0.116C0.446,-0.081 0.444,-0.045 0.442,-0.01L0.021,-0L0.037,-0.704L0.487,-0.704Z" style="fill:rgb(128,128,128);fill-rule:nonzero;"/>
                        </g>
                    </g>
                </g>
                <g>
                    <g transform="matrix(1,0,0,1,-745.879,418.416)">
                        <g transform="matrix(144,0,0,144,930.099,432.242)">
                            <path d="M0.689,-0.7L0.654,-0.038L0.398,-0.015L0.261,-0.369L0.24,-0.008L0.02,-0.008L0.038,-0.7L0.282,-0.712L0.451,-0.36L0.458,-0.692L0.689,-0.7Z" style="fill-rule:nonzero;"/>
                        </g>
                    </g>
                    <g transform="matrix(1,0,0,1,-561.247,418.416)">
                        <g transform="matrix(144,0,0,144,946.271,432.242)">
                            <path d="M0.487,-0.704C0.485,-0.674 0.484,-0.643 0.482,-0.613C0.48,-0.583 0.478,-0.553 0.476,-0.522L0.269,-0.512L0.264,-0.45L0.409,-0.45L0.398,-0.299L0.252,-0.294L0.247,-0.223L0.454,-0.223C0.452,-0.187 0.45,-0.151 0.448,-0.116C0.446,-0.081 0.444,-0.045 0.442,-0.01L0.021,-0L0.037,-0.704L0.487,-0.704Z" style="fill-rule:nonzero;"/>
                        </g>
                    </g>
                    <g transform="matrix(1,0,0,1,-374.782,418.416)">
                        <g transform="matrix(144,0,0,144,937.13,432.242)">
                            <path d="M0.597,-0.471C0.597,-0.445 0.595,-0.422 0.591,-0.402C0.586,-0.381 0.579,-0.362 0.57,-0.345C0.56,-0.327 0.548,-0.312 0.533,-0.297C0.518,-0.282 0.5,-0.268 0.479,-0.255L0.595,-0.048L0.375,-0.005L0.3,-0.213L0.24,-0.211L0.231,-0.008L0.021,-0.008C0.023,-0.082 0.024,-0.156 0.026,-0.229C0.027,-0.303 0.029,-0.377 0.031,-0.451C0.031,-0.489 0.032,-0.526 0.033,-0.563C0.033,-0.599 0.035,-0.636 0.037,-0.674C0.059,-0.682 0.082,-0.689 0.104,-0.695C0.126,-0.7 0.148,-0.705 0.171,-0.708C0.193,-0.711 0.216,-0.713 0.239,-0.714C0.261,-0.715 0.285,-0.716 0.309,-0.716C0.346,-0.716 0.382,-0.711 0.417,-0.7C0.451,-0.69 0.482,-0.675 0.509,-0.654C0.535,-0.634 0.557,-0.608 0.573,-0.578C0.589,-0.547 0.597,-0.511 0.597,-0.471ZM0.378,-0.455C0.378,-0.469 0.377,-0.481 0.373,-0.493C0.369,-0.504 0.364,-0.514 0.356,-0.522C0.349,-0.531 0.34,-0.537 0.329,-0.542C0.318,-0.546 0.305,-0.549 0.291,-0.549C0.284,-0.549 0.278,-0.548 0.271,-0.548C0.265,-0.547 0.259,-0.546 0.253,-0.544L0.246,-0.362L0.257,-0.362C0.271,-0.362 0.286,-0.364 0.3,-0.368C0.315,-0.371 0.328,-0.377 0.339,-0.384C0.351,-0.392 0.36,-0.401 0.367,-0.413C0.375,-0.425 0.378,-0.439 0.378,-0.455Z" style="fill-rule:nonzero;"/>
                        </g>
                    </g>
                    <g transform="matrix(1,0,0,1,-191.639,418.416)">
                        <g transform="matrix(144,0,0,144,938.818,432.242)">
                            <path d="M0.578,-0.388C0.578,-0.342 0.572,-0.301 0.561,-0.264C0.549,-0.228 0.532,-0.195 0.511,-0.167C0.49,-0.138 0.465,-0.114 0.437,-0.093C0.408,-0.073 0.376,-0.056 0.341,-0.043C0.307,-0.03 0.27,-0.02 0.231,-0.013C0.192,-0.007 0.152,-0.004 0.111,-0.004C0.096,-0.004 0.081,-0.004 0.066,-0.005C0.052,-0.006 0.037,-0.007 0.021,-0.009L0.035,-0.664C0.071,-0.675 0.108,-0.684 0.146,-0.688C0.184,-0.693 0.221,-0.695 0.259,-0.695C0.305,-0.695 0.348,-0.688 0.387,-0.674C0.426,-0.66 0.46,-0.64 0.488,-0.614C0.517,-0.587 0.539,-0.555 0.554,-0.517C0.57,-0.479 0.578,-0.436 0.578,-0.388ZM0.378,-0.356C0.378,-0.374 0.376,-0.391 0.372,-0.407C0.368,-0.424 0.362,-0.438 0.352,-0.45C0.343,-0.463 0.331,-0.473 0.317,-0.481C0.303,-0.488 0.285,-0.493 0.266,-0.493L0.246,-0.19C0.266,-0.193 0.283,-0.2 0.299,-0.21C0.315,-0.22 0.329,-0.232 0.341,-0.246C0.352,-0.261 0.361,-0.277 0.367,-0.295C0.374,-0.312 0.377,-0.331 0.378,-0.35L0.378,-0.356Z" style="fill-rule:nonzero;"/>
                        </g>
                    </g>
                </g>
            </g>
        </g>
    </g>
</svg>
