<?xml version="1.0" encoding="UTF-8" standalone="no"?>
<!DOCTYPE svg PUBLIC "-//W3C//DTD SVG 1.1//EN" "http://www.w3.org/Graphics/SVG/1.1/DTD/svg11.dtd">
<svg width="100%" height="100%" viewBox="0 0 131 130" version="1.1" xmlns="http://www.w3.org/2000/svg" xmlns_xlink="http://www.w3.org/1999/xlink" xml_space="preserve" xmlns_serif="http://www.serif.com/" style="fill-rule:evenodd;clip-rule:evenodd;stroke-linecap:round;stroke-linejoin:round;stroke-miterlimit:1.5;">
    <g transform="matrix(0.936265,0,0,0.936265,-106.526,-40.7222)">
        <g transform="matrix(1.06807,0,0,1.06807,-256.561,3.42073)">
            <circle cx="412.871" cy="102.146" r="63.356" style="fill:rgb(255,212,121);"/>
        </g>
        <g transform="matrix(1.06807,0,0,1.06807,-262.962,7.54107)">
            <path d="M417.864,114.21L417.864,37.437C417.864,37.437 446.771,30.362 473.347,67.548C482.626,80.531 478.445,107.716 478.445,107.716L457.441,111.163L417.864,114.21Z" style="fill:rgb(255,147,0);"/>
        </g>
        <g transform="matrix(0.511171,0,0,0.516424,99.367,156.364)">
            <ellipse cx="164.291" cy="-11.586" rx="47.891" ry="15.389" style="fill:rgb(255,147,0);"/>
        </g>
        <g transform="matrix(0.903272,0,0,0.781271,48.2343,41.443)">
            <path d="M198.43,107.176C146.24,119.258 101.115,107.176 101.115,107.176C101.115,107.176 96.894,119.165 101.115,120.088C154.372,131.737 198.812,119.499 198.812,119.499C198.812,119.499 202.452,106.245 198.43,107.176Z" style="fill:white;"/>
        </g>
        <g transform="matrix(137,0,0,137,96.3847,159.556)">
            <path d="M0.635,0.164C0.563,0.164 0.497,0.151 0.435,0.125C0.374,0.099 0.32,0.063 0.274,0.018C0.228,-0.028 0.192,-0.082 0.166,-0.143C0.14,-0.204 0.127,-0.271 0.127,-0.342C0.127,-0.413 0.14,-0.479 0.166,-0.541C0.192,-0.602 0.228,-0.655 0.274,-0.701C0.32,-0.747 0.374,-0.783 0.435,-0.809C0.497,-0.834 0.563,-0.847 0.635,-0.847C0.706,-0.847 0.773,-0.834 0.834,-0.809C0.896,-0.783 0.95,-0.747 0.996,-0.701C1.042,-0.655 1.078,-0.602 1.104,-0.541C1.13,-0.479 1.143,-0.413 1.143,-0.342C1.143,-0.271 1.13,-0.205 1.104,-0.143C1.078,-0.082 1.042,-0.028 0.996,0.018C0.95,0.063 0.896,0.099 0.834,0.125C0.773,0.151 0.706,0.164 0.635,0.164ZM0.635,-0.028C0.679,-0.028 0.721,-0.035 0.76,-0.05C0.717,-0.073 0.676,-0.085 0.635,-0.085C0.594,-0.085 0.552,-0.073 0.51,-0.05C0.549,-0.035 0.59,-0.028 0.635,-0.028ZM0.635,-0.001C0.594,-0.001 0.554,-0.007 0.514,-0.021C0.475,-0.034 0.439,-0.051 0.407,-0.073C0.375,-0.095 0.349,-0.119 0.33,-0.146C0.311,-0.173 0.301,-0.2 0.301,-0.227C0.301,-0.24 0.304,-0.25 0.31,-0.256C0.316,-0.261 0.324,-0.264 0.334,-0.264C0.341,-0.264 0.35,-0.263 0.359,-0.262C0.368,-0.26 0.378,-0.258 0.39,-0.256C0.421,-0.249 0.459,-0.243 0.502,-0.237C0.546,-0.232 0.59,-0.229 0.635,-0.229C0.68,-0.229 0.724,-0.232 0.767,-0.237C0.811,-0.243 0.848,-0.249 0.88,-0.256C0.892,-0.258 0.902,-0.26 0.911,-0.262C0.92,-0.263 0.928,-0.264 0.936,-0.264C0.946,-0.264 0.954,-0.261 0.96,-0.256C0.966,-0.25 0.969,-0.24 0.969,-0.227C0.969,-0.2 0.959,-0.173 0.94,-0.146C0.921,-0.119 0.895,-0.095 0.863,-0.073C0.831,-0.051 0.795,-0.034 0.755,-0.021C0.716,-0.007 0.675,-0.001 0.635,-0.001ZM0.635,-0.164C0.665,-0.164 0.698,-0.165 0.733,-0.167C0.768,-0.17 0.803,-0.174 0.837,-0.179C0.872,-0.184 0.905,-0.191 0.935,-0.199L0.935,-0.226C0.935,-0.231 0.934,-0.233 0.93,-0.235C0.927,-0.236 0.924,-0.236 0.919,-0.235C0.893,-0.229 0.864,-0.223 0.831,-0.218C0.797,-0.213 0.764,-0.21 0.73,-0.207C0.696,-0.204 0.664,-0.203 0.635,-0.203C0.606,-0.203 0.574,-0.204 0.54,-0.207C0.506,-0.21 0.472,-0.213 0.439,-0.218C0.406,-0.223 0.376,-0.229 0.35,-0.235C0.346,-0.236 0.342,-0.236 0.339,-0.235C0.336,-0.233 0.334,-0.231 0.334,-0.226L0.334,-0.199C0.365,-0.191 0.397,-0.184 0.432,-0.179C0.467,-0.174 0.502,-0.17 0.537,-0.167C0.572,-0.165 0.604,-0.164 0.635,-0.164ZM0.473,-0.338C0.455,-0.338 0.441,-0.35 0.429,-0.373C0.417,-0.396 0.412,-0.425 0.412,-0.459C0.412,-0.493 0.417,-0.522 0.429,-0.545C0.441,-0.568 0.455,-0.58 0.473,-0.58C0.49,-0.58 0.504,-0.568 0.516,-0.545C0.528,-0.522 0.534,-0.493 0.534,-0.459C0.534,-0.425 0.528,-0.396 0.516,-0.373C0.504,-0.35 0.49,-0.338 0.473,-0.338ZM0.635,0.127C0.701,0.127 0.762,0.115 0.819,0.091C0.876,0.068 0.926,0.034 0.968,-0.008C1.011,-0.051 1.044,-0.101 1.068,-0.157C1.092,-0.214 1.104,-0.276 1.104,-0.342C1.104,-0.408 1.092,-0.469 1.068,-0.526C1.044,-0.583 1.011,-0.633 0.968,-0.675C0.926,-0.718 0.876,-0.751 0.819,-0.775C0.762,-0.799 0.701,-0.811 0.635,-0.811C0.569,-0.811 0.508,-0.799 0.451,-0.775C0.394,-0.751 0.344,-0.718 0.302,-0.675C0.259,-0.633 0.226,-0.583 0.202,-0.526C0.178,-0.469 0.166,-0.408 0.166,-0.342C0.166,-0.276 0.178,-0.214 0.202,-0.157C0.225,-0.101 0.259,-0.051 0.301,-0.008C0.344,0.034 0.394,0.068 0.45,0.091C0.507,0.115 0.569,0.127 0.635,0.127ZM0.797,-0.338C0.78,-0.338 0.765,-0.35 0.753,-0.373C0.742,-0.396 0.736,-0.425 0.736,-0.459C0.736,-0.493 0.742,-0.522 0.754,-0.545C0.766,-0.568 0.78,-0.58 0.797,-0.58C0.814,-0.58 0.829,-0.568 0.841,-0.545C0.852,-0.522 0.858,-0.493 0.858,-0.459C0.858,-0.425 0.852,-0.396 0.841,-0.373C0.829,-0.35 0.814,-0.338 0.797,-0.338Z" style="fill-rule:nonzero;"/>
        </g>
        <g transform="matrix(0.932119,-0.0100115,0.0100115,0.932119,-209.28,-105.961)">
            <g transform="matrix(0.78146,0,0,0.78146,227.888,159.459)">
                <path d="M164.996,57.645L179.966,51.709L220.064,52.34L231.034,60.119L231.034,91.859L224.04,100.017L204.829,104.647L185.578,103.906L172.093,98.498L167.436,81.374L164.996,57.645" style="fill:white;stroke:white;stroke-width:5.13px;"/>
                <path d="M259.504,55.343L278.516,51.32L321.324,53.716L323.321,61.841L318.722,88.948L309.881,101.769L298.259,104.647L276.168,103.906L260.289,100.017L252.859,83.959L252.859,66.903L259.504,55.343Z" style="fill:white;stroke:white;stroke-width:5.13px;"/>
                <path d="M236.535,60.683L250.852,60.913C250.852,60.913 254.973,52.997 258.785,51.43C264.184,49.212 275.381,48.159 283.25,47.599C290.815,47.06 299.98,47.717 305.998,48.068C310.478,48.33 314.945,48.909 319.36,49.709C323.915,50.535 333.326,53.022 333.326,53.022L333.326,66.262C333.326,66.262 328.374,68.655 327.192,70.939C325.514,74.183 324.869,80.886 323.256,85.725C321.64,90.571 320.158,96.571 317.496,100.017C315.042,103.194 311.161,105.36 307.283,106.4C302.216,107.759 293.837,108.543 287.091,108.17C279.56,107.755 267.803,106.262 262.098,103.906C257.932,102.186 254.802,98.102 252.859,94.035C250.865,89.861 250.78,83.3 250.13,78.862C249.575,75.064 248.963,67.405 248.963,67.405L238.141,67.161C238.141,67.161 235.618,87.737 234.138,93.213C233.41,95.907 231.369,98.187 229.263,100.017C226.844,102.119 223.243,104.827 219.628,105.823C214.588,107.211 205.535,108.178 199.022,108.344C192.847,108.502 185.709,108.463 180.552,106.822C175.79,105.306 170.864,102.65 168.083,98.498C165.056,93.977 163.683,84.347 162.387,79.697C161.552,76.701 161.165,72.607 160.311,70.599C159.756,69.297 158.496,68.285 157.258,67.649C156.021,67.013 152.883,66.784 152.883,66.784L152.883,52.446C152.883,52.446 162.76,50.386 167.755,49.709C173.826,48.887 182.44,47.864 189.306,47.511C195.846,47.174 203.311,47.223 208.952,47.589C213.727,47.9 219.225,48.535 223.149,49.709C226.522,50.719 230.262,52.804 232.493,54.633C234.369,56.171 236.535,60.683 236.535,60.683ZM309.275,55.465C302.345,54.412 282.946,53.544 275.104,53.833C270.669,53.996 265.315,55.094 262.223,57.201C259.23,59.241 257.181,62.906 256.557,66.475C255.746,71.116 255.948,77.393 256.358,82.048C256.636,85.203 257.329,91.825 259.015,94.403C260.701,96.981 264.031,100.028 267.476,100.517C274.65,101.536 287.253,102.495 294.124,102.242C296.391,102.158 306.855,100.29 308.698,98.998C310.541,97.706 313.353,93.195 314.119,90.766C315.744,85.613 317.853,73.511 318.447,68.075C318.74,65.386 318.207,62.255 316.679,60.154C315.15,58.052 312.163,55.905 309.275,55.465ZM176.793,54.965C173.905,55.404 170.917,57.552 169.389,59.653C167.86,61.755 167.327,64.885 167.621,67.575C168.214,73.01 170.324,85.112 171.948,90.266C172.714,92.695 175.527,97.206 177.369,98.498C179.212,99.79 189.676,101.658 191.944,101.742C198.814,101.995 211.417,101.036 218.592,100.017C222.037,99.528 225.366,96.481 227.052,93.903C228.739,91.324 229.432,84.702 229.709,81.548C230.119,76.893 230.321,70.616 229.51,65.975C228.887,62.406 226.837,58.741 223.844,56.701C220.753,54.594 215.398,53.496 210.964,53.333C203.122,53.043 183.722,53.912 176.793,54.965Z"/>
            </g>
            <g>
                <g transform="matrix(1,0,0,1,0,125.01)">
                    <ellipse cx="396.095" cy="93.406" rx="7.433" ry="10.103"/>
                </g>
                <g transform="matrix(1,0,0,1,43.0939,125.01)">
                    <ellipse cx="396.095" cy="93.406" rx="7.433" ry="10.103"/>
                </g>
            </g>
        </g>
    </g>
</svg>
