<?xml version="1.0" encoding="UTF-8" standalone="no"?>
<!DOCTYPE svg PUBLIC "-//W3C//DTD SVG 1.1//EN" "http://www.w3.org/Graphics/SVG/1.1/DTD/svg11.dtd">
<svg width="100%" height="100%" viewBox="0 0 1024 1024" version="1.1" xmlns="http://www.w3.org/2000/svg" xmlnsXlink="http://www.w3.org/1999/xlink" xml:space="preserve" xmlnsSerif="http://www.serif.com/" style="fill-rule:evenodd;clip-rule:evenodd;stroke-linejoin:round;stroke-miterlimit:2;">
    <rect id="Artboard1" x="0" y="0" width="1024" height="1024" style="fill:none;"/>
    <g id="Artboard11" serifId="Artboard1">
        <g id="Layer1">
            <g id="PLAY">
                <g transform="matrix(1,0,0,1,295.595,61.0885)">
                    <g transform="matrix(144,0,0,144,16.495,828.582)">
                        <path d="M0.072,-0.716L0.44,-0.716C0.52,-0.716 0.58,-0.697 0.62,-0.659C0.66,-0.621 0.68,-0.566 0.68,-0.496C0.68,-0.424 0.658,-0.367 0.615,-0.327C0.571,-0.286 0.505,-0.266 0.416,-0.266L0.294,-0.266L0.294,-0L0.072,-0L0.072,-0.716ZM0.294,-0.411L0.349,-0.411C0.391,-0.411 0.421,-0.418 0.438,-0.433C0.456,-0.448 0.464,-0.467 0.464,-0.49C0.464,-0.512 0.457,-0.531 0.442,-0.547C0.427,-0.563 0.399,-0.57 0.357,-0.57L0.294,-0.57L0.294,-0.411Z" style="fill-rule:nonzero;"/>
                    </g>
                    <g transform="matrix(144,0,0,144,120.487,828.582)">
                        <path d="M0.073,-0.716L0.294,-0.716L0.294,-0.176L0.64,-0.176L0.64,-0L0.073,-0L0.073,-0.716Z" style="fill-rule:nonzero;"/>
                    </g>
                    <g transform="matrix(144,0,0,144,216.534,828.582)">
                        <path d="M0.514,-0.118L0.262,-0.118L0.227,-0L0.001,-0L0.27,-0.716L0.511,-0.716L0.78,-0L0.549,-0L0.514,-0.118ZM0.467,-0.273L0.388,-0.53L0.31,-0.273L0.467,-0.273Z" style="fill-rule:nonzero;"/>
                    </g>
                    <g transform="matrix(144,0,0,144,316.307,828.582)">
                        <path d="M0.001,-0.716L0.247,-0.716L0.391,-0.474L0.536,-0.716L0.78,-0.716L0.501,-0.3L0.501,-0L0.28,-0L0.28,-0.3L0.001,-0.716Z" style="fill-rule:nonzero;"/>
                    </g>
                </g>
                <g transform="matrix(1,0,0,1,289.595,54.0885)">
                    <g transform="matrix(144,0,0,144,16.495,828.582)">
                        <path d="M0.072,-0.716L0.44,-0.716C0.52,-0.716 0.58,-0.697 0.62,-0.659C0.66,-0.621 0.68,-0.566 0.68,-0.496C0.68,-0.424 0.658,-0.367 0.615,-0.327C0.571,-0.286 0.505,-0.266 0.416,-0.266L0.294,-0.266L0.294,-0L0.072,-0L0.072,-0.716ZM0.294,-0.411L0.349,-0.411C0.391,-0.411 0.421,-0.418 0.438,-0.433C0.456,-0.448 0.464,-0.467 0.464,-0.49C0.464,-0.512 0.457,-0.531 0.442,-0.547C0.427,-0.563 0.399,-0.57 0.357,-0.57L0.294,-0.57L0.294,-0.411Z" style="fill:white;fill-rule:nonzero;"/>
                    </g>
                    <g transform="matrix(144,0,0,144,120.487,828.582)">
                        <path d="M0.073,-0.716L0.294,-0.716L0.294,-0.176L0.64,-0.176L0.64,-0L0.073,-0L0.073,-0.716Z" style="fill:white;fill-rule:nonzero;"/>
                    </g>
                    <g transform="matrix(144,0,0,144,216.534,828.582)">
                        <path d="M0.514,-0.118L0.262,-0.118L0.227,-0L0.001,-0L0.27,-0.716L0.511,-0.716L0.78,-0L0.549,-0L0.514,-0.118ZM0.467,-0.273L0.388,-0.53L0.31,-0.273L0.467,-0.273Z" style="fill:white;fill-rule:nonzero;"/>
                    </g>
                    <g transform="matrix(144,0,0,144,316.307,828.582)">
                        <path d="M0.001,-0.716L0.247,-0.716L0.391,-0.474L0.536,-0.716L0.78,-0.716L0.501,-0.3L0.501,-0L0.28,-0L0.28,-0.3L0.001,-0.716Z" style="fill:white;fill-rule:nonzero;"/>
                    </g>
                    <path d="M216.597,817.42L251.673,724.096C252.259,722.537 253.751,721.504 255.417,721.504L290.151,721.504C291.817,721.504 293.309,722.537 293.895,724.096L332.638,827.174C333.099,828.403 332.929,829.78 332.182,830.859C331.435,831.938 330.206,832.582 328.893,832.582L295.565,832.582C293.795,832.582 292.236,831.419 291.731,829.722L287.52,815.566L257.217,815.566L253.068,829.708C252.568,831.411 251.005,832.582 249.229,832.582L216.675,832.582C215.947,832.582 215.245,832.384 214.636,832.023C214.039,832.378 213.342,832.582 212.597,832.582L131.034,832.582C128.825,832.582 127.034,830.791 127.034,828.582L127.034,725.504C127.034,723.295 128.825,721.504 131.034,721.504L162.886,721.504C165.095,721.504 166.886,723.295 166.886,725.504C166.886,725.504 166.886,799.199 166.886,799.199L212.597,799.199C214.806,799.199 216.597,800.99 216.597,803.199L216.597,817.42ZM131.034,725.504L131.034,828.582L212.597,828.582L212.597,803.199L162.886,803.199L162.886,725.504L131.034,725.504ZM290.503,811.566L295.565,828.582L328.893,828.582L290.151,725.504L255.417,725.504L216.675,828.582L249.229,828.582L254.222,811.566L290.503,811.566ZM283.823,789.277L261.112,789.277L272.432,752.222L283.823,789.277ZM278.409,785.277C278.409,785.277 272.444,765.874 272.444,765.874L266.517,785.277L278.409,785.277ZM26.901,721.504L79.847,721.504C92.637,721.504 102.15,724.754 108.519,730.838C114.985,737.013 118.37,745.744 118.37,757.144C118.37,768.816 114.736,777.89 107.717,784.463C100.847,790.895 90.431,794.332 76.331,794.332C76.331,794.332 62.893,794.332 62.893,794.332L62.893,828.582C62.893,830.791 61.103,832.582 58.893,832.582L26.901,832.582C24.692,832.582 22.901,830.791 22.901,828.582L22.901,725.504C22.901,723.295 24.692,721.504 26.901,721.504ZM26.901,725.504L26.901,828.582L58.893,828.582L58.893,790.332L76.331,790.332C89.175,790.332 98.725,787.402 104.983,781.543C111.241,775.683 114.37,767.551 114.37,757.144C114.37,747.019 111.499,739.215 105.757,733.73C100.014,728.246 91.378,725.504 79.847,725.504L26.901,725.504ZM58.893,769.449L58.893,746.457L67.964,746.457C73.917,746.457 77.972,747.582 80.128,749.832C82.284,752.082 83.362,754.824 83.362,758.058C83.362,761.386 82.12,764.117 79.636,766.25C77.151,768.383 72.839,769.449 66.698,769.449L58.893,769.449ZM62.893,765.449L66.698,765.449C71.569,765.449 75.06,764.906 77.03,763.215C78.592,761.873 79.362,760.151 79.362,758.058C79.362,755.915 78.669,754.09 77.24,752.599C75.614,750.903 72.453,750.457 67.964,750.457C67.964,750.457 62.893,750.457 62.893,750.457L62.893,765.449ZM316.448,721.504L351.815,721.504C353.222,721.504 354.526,722.243 355.248,723.451L372.628,752.514L390.007,723.451C390.729,722.243 392.033,721.504 393.44,721.504L428.597,721.504C430.073,721.504 431.429,722.317 432.125,723.619C432.82,724.921 432.742,726.501 431.921,727.728L392.518,786.625L392.518,828.582C392.518,830.791 390.728,832.582 388.518,832.582L356.597,832.582C354.387,832.582 352.597,830.791 352.597,828.582L352.597,786.626L313.125,727.731C312.303,726.504 312.224,724.924 312.919,723.621C313.614,722.317 314.971,721.504 316.448,721.504ZM316.448,725.504L356.597,785.41L356.597,828.582L388.518,828.582L388.518,785.41L428.597,725.504L393.44,725.504L372.628,760.308L351.815,725.504L316.448,725.504Z"/>
                </g>
                <g transform="matrix(1,0,0,1,-90.2242,-38.9333)">
                    <g transform="matrix(600,0,0,600,377.224,646.409)">
                        <path d="M0.705,-0.455C0.733,-0.438 0.75,-0.408 0.75,-0.375C0.75,-0.342 0.733,-0.312 0.705,-0.297L0.143,0.047C0.114,0.066 0.077,0.067 0.048,0.051C0.018,0.034 -0,0.003 -0,-0.031L-0,-0.719C-0,-0.753 0.018,-0.784 0.048,-0.801C0.077,-0.817 0.114,-0.816 0.143,-0.799L0.705,-0.455Z" style="fill:white;fill-rule:nonzero;stroke:black;stroke-width:0.02px;"/>
                    </g>
                </g>
            </g>
        </g>
    </g>
</svg>
