<?xml version="1.0" encoding="UTF-8" standalone="no"?>
<!DOCTYPE svg PUBLIC "-//W3C//DTD SVG 1.1//EN" "http://www.w3.org/Graphics/SVG/1.1/DTD/svg11.dtd">
<svg width="100%" height="100%" viewBox="0 0 1024 1024" version="1.1" xmlns="http://www.w3.org/2000/svg" xmlnsXlink="http://www.w3.org/1999/xlink" xml:space="preserve" xmlnsSerif="http://www.serif.com/" style="fill-rule:evenodd;clip-rule:evenodd;stroke-linejoin:round;stroke-miterlimit:2;">
    <rect id="Artboard1" x="0" y="0" width="1024" height="1024" style="fill:none;"/>
    <g id="Artboard11" serifId="Artboard1">
        <g id="Layer1">
            <g id="RECALL">
                <g transform="matrix(1,0,0,1,295.595,61.0885)">
                    <g transform="matrix(144,0,0,144,-93.6496,828.582)">
                        <path d="M0.076,-0L0.076,-0.716L0.445,-0.716C0.513,-0.716 0.565,-0.71 0.602,-0.698C0.638,-0.687 0.667,-0.665 0.689,-0.633C0.711,-0.601 0.722,-0.563 0.722,-0.517C0.722,-0.477 0.714,-0.443 0.697,-0.414C0.68,-0.385 0.657,-0.362 0.627,-0.344C0.608,-0.333 0.582,-0.323 0.549,-0.316C0.576,-0.307 0.595,-0.298 0.607,-0.29C0.615,-0.284 0.627,-0.271 0.642,-0.252C0.658,-0.233 0.668,-0.218 0.673,-0.208L0.78,-0L0.53,-0L0.412,-0.219C0.397,-0.247 0.384,-0.265 0.372,-0.274C0.356,-0.285 0.338,-0.291 0.318,-0.291L0.298,-0.291L0.298,-0L0.076,-0ZM0.298,-0.426L0.392,-0.426C0.402,-0.426 0.421,-0.429 0.45,-0.436C0.465,-0.438 0.477,-0.446 0.486,-0.458C0.495,-0.47 0.5,-0.484 0.5,-0.5C0.5,-0.523 0.493,-0.54 0.478,-0.553C0.463,-0.565 0.436,-0.571 0.396,-0.571L0.298,-0.571L0.298,-0.426Z" style="fill-rule:nonzero;"/>
                    </g>
                    <g transform="matrix(144,0,0,144,18.3582,828.582)">
                        <path d="M0.073,-0.716L0.666,-0.716L0.666,-0.563L0.294,-0.563L0.294,-0.449L0.639,-0.449L0.639,-0.303L0.294,-0.303L0.294,-0.162L0.676,-0.162L0.676,-0L0.073,-0L0.073,-0.716Z" style="fill-rule:nonzero;"/>
                    </g>
                    <g transform="matrix(144,0,0,144,122.35,828.582)">
                        <path d="M0.55,-0.292L0.744,-0.234C0.731,-0.18 0.71,-0.134 0.682,-0.098C0.654,-0.061 0.619,-0.034 0.578,-0.015C0.536,0.003 0.484,0.013 0.419,0.013C0.342,0.013 0.278,0.001 0.229,-0.021C0.179,-0.044 0.137,-0.084 0.101,-0.141C0.065,-0.198 0.047,-0.271 0.047,-0.359C0.047,-0.478 0.079,-0.569 0.142,-0.633C0.205,-0.696 0.294,-0.728 0.409,-0.728C0.499,-0.728 0.57,-0.71 0.622,-0.673C0.673,-0.637 0.712,-0.581 0.737,-0.505L0.542,-0.462C0.535,-0.484 0.528,-0.5 0.52,-0.51C0.508,-0.527 0.493,-0.54 0.475,-0.549C0.457,-0.558 0.437,-0.563 0.415,-0.563C0.364,-0.563 0.326,-0.542 0.299,-0.502C0.279,-0.472 0.269,-0.425 0.269,-0.361C0.269,-0.281 0.281,-0.227 0.305,-0.198C0.329,-0.168 0.363,-0.153 0.407,-0.153C0.449,-0.153 0.481,-0.165 0.503,-0.189C0.524,-0.213 0.54,-0.247 0.55,-0.292Z" style="fill-rule:nonzero;"/>
                    </g>
                    <g transform="matrix(144,0,0,144,234.358,828.582)">
                        <path d="M0.514,-0.118L0.262,-0.118L0.227,-0L0.001,-0L0.27,-0.716L0.511,-0.716L0.78,-0L0.549,-0L0.514,-0.118ZM0.467,-0.273L0.388,-0.53L0.31,-0.273L0.467,-0.273Z" style="fill-rule:nonzero;"/>
                    </g>
                    <g transform="matrix(144,0,0,144,346.366,828.582)">
                        <path d="M0.073,-0.716L0.294,-0.716L0.294,-0.176L0.64,-0.176L0.64,-0L0.073,-0L0.073,-0.716Z" style="fill-rule:nonzero;"/>
                    </g>
                    <g transform="matrix(144,0,0,144,442.413,828.582)">
                        <path d="M0.073,-0.716L0.294,-0.716L0.294,-0.176L0.64,-0.176L0.64,-0L0.073,-0L0.073,-0.716Z" style="fill-rule:nonzero;"/>
                    </g>
                </g>
                <g transform="matrix(1,0,0,1,289.595,54.0885)">
                    <g transform="matrix(144,0,0,144,-93.6496,828.582)">
                        <path d="M0.076,-0L0.076,-0.716L0.445,-0.716C0.513,-0.716 0.565,-0.71 0.602,-0.698C0.638,-0.687 0.667,-0.665 0.689,-0.633C0.711,-0.601 0.722,-0.563 0.722,-0.517C0.722,-0.477 0.714,-0.443 0.697,-0.414C0.68,-0.385 0.657,-0.362 0.627,-0.344C0.608,-0.333 0.582,-0.323 0.549,-0.316C0.576,-0.307 0.595,-0.298 0.607,-0.29C0.615,-0.284 0.627,-0.271 0.642,-0.252C0.658,-0.233 0.668,-0.218 0.673,-0.208L0.78,-0L0.53,-0L0.412,-0.219C0.397,-0.247 0.384,-0.265 0.372,-0.274C0.356,-0.285 0.338,-0.291 0.318,-0.291L0.298,-0.291L0.298,-0L0.076,-0ZM0.298,-0.426L0.392,-0.426C0.402,-0.426 0.421,-0.429 0.45,-0.436C0.465,-0.438 0.477,-0.446 0.486,-0.458C0.495,-0.47 0.5,-0.484 0.5,-0.5C0.5,-0.523 0.493,-0.54 0.478,-0.553C0.463,-0.565 0.436,-0.571 0.396,-0.571L0.298,-0.571L0.298,-0.426Z" style="fill:white;fill-rule:nonzero;"/>
                    </g>
                    <g transform="matrix(144,0,0,144,18.3582,828.582)">
                        <path d="M0.073,-0.716L0.666,-0.716L0.666,-0.563L0.294,-0.563L0.294,-0.449L0.639,-0.449L0.639,-0.303L0.294,-0.303L0.294,-0.162L0.676,-0.162L0.676,-0L0.073,-0L0.073,-0.716Z" style="fill:white;fill-rule:nonzero;"/>
                    </g>
                    <g transform="matrix(144,0,0,144,122.35,828.582)">
                        <path d="M0.55,-0.292L0.744,-0.234C0.731,-0.18 0.71,-0.134 0.682,-0.098C0.654,-0.061 0.619,-0.034 0.578,-0.015C0.536,0.003 0.484,0.013 0.419,0.013C0.342,0.013 0.278,0.001 0.229,-0.021C0.179,-0.044 0.137,-0.084 0.101,-0.141C0.065,-0.198 0.047,-0.271 0.047,-0.359C0.047,-0.478 0.079,-0.569 0.142,-0.633C0.205,-0.696 0.294,-0.728 0.409,-0.728C0.499,-0.728 0.57,-0.71 0.622,-0.673C0.673,-0.637 0.712,-0.581 0.737,-0.505L0.542,-0.462C0.535,-0.484 0.528,-0.5 0.52,-0.51C0.508,-0.527 0.493,-0.54 0.475,-0.549C0.457,-0.558 0.437,-0.563 0.415,-0.563C0.364,-0.563 0.326,-0.542 0.299,-0.502C0.279,-0.472 0.269,-0.425 0.269,-0.361C0.269,-0.281 0.281,-0.227 0.305,-0.198C0.329,-0.168 0.363,-0.153 0.407,-0.153C0.449,-0.153 0.481,-0.165 0.503,-0.189C0.524,-0.213 0.54,-0.247 0.55,-0.292Z" style="fill:white;fill-rule:nonzero;"/>
                    </g>
                    <g transform="matrix(144,0,0,144,234.358,828.582)">
                        <path d="M0.514,-0.118L0.262,-0.118L0.227,-0L0.001,-0L0.27,-0.716L0.511,-0.716L0.78,-0L0.549,-0L0.514,-0.118ZM0.467,-0.273L0.388,-0.53L0.31,-0.273L0.467,-0.273Z" style="fill:white;fill-rule:nonzero;"/>
                    </g>
                    <g transform="matrix(144,0,0,144,346.366,828.582)">
                        <path d="M0.073,-0.716L0.294,-0.716L0.294,-0.176L0.64,-0.176L0.64,-0L0.073,-0L0.073,-0.716Z" style="fill:white;fill-rule:nonzero;"/>
                    </g>
                    <g transform="matrix(144,0,0,144,442.413,828.582)">
                        <path d="M0.073,-0.716L0.294,-0.716L0.294,-0.176L0.64,-0.176L0.64,-0L0.073,-0L0.073,-0.716Z" style="fill:white;fill-rule:nonzero;"/>
                    </g>
                    <path d="M-3.768,783.747C-2.431,784.751 -0.494,786.741 1.962,789.792C4.418,792.843 6.038,795.218 6.874,796.881L22.265,826.75C22.904,827.99 22.851,829.473 22.125,830.664C21.399,831.855 20.105,832.582 18.71,832.582L-17.29,832.582C-18.76,832.582 -20.111,831.776 -20.81,830.483L-37.825,798.983C-37.831,798.972 -37.836,798.962 -37.842,798.951C-39.589,795.648 -41.018,793.404 -42.412,792.382C-43.701,791.501 -45.128,790.982 -46.689,790.81L-46.689,828.582C-46.689,830.791 -48.479,832.582 -50.689,832.582L-82.681,832.582C-84.89,832.582 -86.681,830.791 -86.681,828.582L-86.681,725.504C-86.681,723.295 -84.89,721.504 -82.681,721.504L-29.595,721.504C-19.21,721.504 -11.28,722.45 -5.791,724.23C0.257,726.191 5.138,729.822 8.842,735.133C12.47,740.335 14.343,746.652 14.343,754.121C14.343,760.627 12.908,766.228 10.135,770.948C7.362,775.668 3.554,779.501 -1.299,782.435L-1.302,782.436C-2.055,782.891 -2.877,783.328 -3.768,783.747ZM-82.681,828.582L-50.689,828.582L-50.689,786.746L-47.876,786.746C-44.97,786.746 -42.368,787.543 -40.071,789.136C-38.384,790.355 -36.462,793.004 -34.306,797.082L-17.29,828.582L18.71,828.582L3.311,798.699C2.561,797.199 1.073,795.066 -1.153,792.301C-3.38,789.535 -5.079,787.73 -6.251,786.886C-7.986,785.621 -10.751,784.355 -14.548,783.09C-9.814,782.011 -6.087,780.652 -3.368,779.011C0.897,776.433 4.249,773.07 6.686,768.922C9.124,764.773 10.343,759.84 10.343,754.121C10.343,747.558 8.749,741.992 5.561,737.422C2.374,732.851 -1.821,729.722 -7.025,728.035C-12.228,726.347 -19.751,725.504 -29.595,725.504L-82.681,725.504L-82.681,828.582ZM-50.689,767.269L-50.689,746.316L-36.696,746.316C-30.884,746.316 -26.923,747.207 -24.814,748.988C-22.704,750.769 -21.65,753.324 -21.65,756.652C-21.65,758.902 -22.318,760.894 -23.653,762.629C-24.989,764.363 -26.712,765.441 -28.821,765.863C-32.993,766.801 -35.806,767.269 -37.259,767.269L-50.689,767.269ZM-46.689,763.269L-37.259,763.269C-35.955,763.269 -33.441,762.801 -29.698,761.96C-29.668,761.953 -29.637,761.947 -29.606,761.941C-28.468,761.713 -27.543,761.124 -26.822,760.188C-26.033,759.163 -25.65,757.982 -25.65,756.652C-25.65,754.674 -26.141,753.103 -27.394,752.044C-29.033,750.66 -32.181,750.316 -36.696,750.316C-36.696,750.316 -46.689,750.316 -46.689,750.316L-46.689,763.269ZM28.835,721.504L114.194,721.504C116.403,721.504 118.194,723.295 118.194,725.504L118.194,747.511C118.194,749.721 116.403,751.511 114.194,751.511L64.757,751.511C64.757,751.511 64.757,759.894 64.757,759.894L110.327,759.894C112.536,759.894 114.327,761.685 114.327,763.894L114.327,784.918C114.327,787.127 112.536,788.918 110.327,788.918L64.757,788.918L64.757,801.238L115.741,801.238C117.95,801.238 119.741,803.029 119.741,805.238L119.741,828.582C119.741,830.791 117.95,832.582 115.741,832.582L28.835,832.582C26.626,832.582 24.835,830.791 24.835,828.582L24.835,725.504C24.835,723.295 26.626,721.504 28.835,721.504ZM28.835,725.504L28.835,828.582L115.741,828.582L115.741,805.238L60.757,805.238L60.757,784.918L110.327,784.918L110.327,763.894L60.757,763.894L60.757,747.511L114.194,747.511L114.194,725.504L28.835,725.504ZM202.68,782.636L230.594,791.073C232.621,791.686 233.82,793.774 233.326,795.834C231.306,804.268 228.093,811.299 223.75,816.955C219.305,822.743 213.787,827.108 207.198,830.054C200.791,832.918 192.648,834.41 182.749,834.41C170.86,834.41 161.16,832.616 153.624,829.159C145.878,825.605 139.143,819.408 133.519,810.46C128.01,801.697 125.171,790.502 125.171,776.832C125.171,758.524 130.201,744.511 139.933,734.678C149.686,724.824 163.43,719.746 181.272,719.746C195.25,719.746 206.204,722.703 214.202,728.354C222.264,734.051 228.332,742.747 232.248,754.548C232.605,755.622 232.49,756.797 231.932,757.781C231.374,758.765 230.425,759.467 229.321,759.713L201.196,765.971C199.168,766.422 197.132,765.245 196.51,763.262C195.699,760.675 194.909,758.756 194.021,757.559C194.015,757.551 194.009,757.543 194.004,757.536C192.606,755.623 190.902,754.145 188.879,753.115C186.844,752.079 184.563,751.582 182.046,751.582C176.286,751.582 171.855,753.869 168.788,758.507C168.782,758.517 168.776,758.526 168.769,758.536C166.188,762.365 165.093,768.421 165.093,776.621C165.093,786.793 166.307,793.835 169.392,797.608C172.116,800.94 175.988,802.504 180.921,802.504C185.681,802.504 189.345,801.35 191.78,798.677C194.502,795.689 196.385,791.31 197.612,785.621C197.848,784.529 198.53,783.585 199.492,783.018C200.455,782.451 201.61,782.312 202.68,782.636ZM201.522,786.465C200.116,792.98 197.854,797.949 194.737,801.371C191.62,804.793 187.014,806.504 180.921,806.504C174.639,806.504 169.764,804.383 166.296,800.14C162.827,795.898 161.093,788.058 161.093,776.621C161.093,767.386 162.546,760.613 165.452,756.301C169.296,750.488 174.827,747.582 182.046,747.582C185.233,747.582 188.116,748.238 190.694,749.551C193.272,750.863 195.452,752.738 197.233,755.176C198.311,756.629 199.343,758.926 200.327,762.066L228.452,755.808C224.843,744.933 219.323,736.871 211.893,731.621C204.464,726.371 194.257,723.746 181.272,723.746C164.679,723.746 151.847,728.328 142.776,737.492C133.706,746.656 129.171,759.769 129.171,776.832C129.171,789.629 131.749,800.129 136.905,808.332C142.061,816.535 148.19,822.265 155.292,825.523C162.393,828.781 171.546,830.41 182.749,830.41C191.983,830.41 199.589,829.074 205.565,826.402C211.542,823.73 216.546,819.769 220.577,814.519C224.608,809.269 227.561,802.73 229.436,794.902L201.522,786.465ZM305.344,815.566L275.041,815.566L270.892,829.708C270.392,831.411 268.829,832.582 267.054,832.582L234.499,832.582C233.186,832.582 231.957,831.938 231.21,830.859C230.463,829.78 230.293,828.403 230.755,827.174L269.497,724.096C270.083,722.537 271.575,721.504 273.241,721.504L307.975,721.504C309.642,721.504 311.133,722.537 311.72,724.096L350.462,827.174C350.924,828.403 350.753,829.78 350.006,830.859C349.259,831.938 348.03,832.582 346.718,832.582L313.389,832.582C311.62,832.582 310.06,831.419 309.556,829.722L305.344,815.566ZM308.327,811.566L313.389,828.582L346.718,828.582L307.975,725.504L273.241,725.504L234.499,828.582L267.054,828.582L272.046,811.566L308.327,811.566ZM301.647,789.277L278.936,789.277L290.257,752.222L301.647,789.277ZM296.233,785.277C296.233,785.277 290.269,765.874 290.269,765.874L284.341,785.277L296.233,785.277ZM356.913,721.504L388.764,721.504C390.974,721.504 392.764,723.295 392.764,725.504C392.764,725.504 392.764,799.199 392.765,799.199L438.475,799.199C440.685,799.199 442.475,800.99 442.475,803.199L442.475,828.582C442.475,830.791 440.685,832.582 438.475,832.582L356.913,832.582C354.704,832.582 352.913,830.791 352.913,828.582L352.913,725.504C352.913,723.295 354.704,721.504 356.913,721.504ZM356.913,725.504L356.913,828.582L438.475,828.582L438.475,803.199L388.764,803.199L388.764,725.504L356.913,725.504ZM452.96,721.504L484.811,721.504C487.021,721.504 488.811,723.295 488.811,725.504C488.811,725.504 488.811,799.199 488.811,799.199L534.522,799.199C536.731,799.199 538.522,800.99 538.522,803.199L538.522,828.582C538.522,830.791 536.731,832.582 534.522,832.582L452.96,832.582C450.751,832.582 448.96,830.791 448.96,828.582L448.96,725.504C448.96,723.295 450.751,721.504 452.96,721.504ZM452.96,725.504L452.96,828.582L534.522,828.582L534.522,803.199L484.811,803.199L484.811,725.504L452.96,725.504Z"/>
                </g>
                <g transform="matrix(1,0,0,1,-90.2242,-38.9333)">
                    <g transform="matrix(600,0,0,600,302.224,646.409)">
                        <path d="M0.5,-0.875C0.776,-0.875 1,-0.651 1,-0.375C1,-0.099 0.776,0.125 0.5,0.125C0.394,0.125 0.295,0.092 0.214,0.035C0.186,0.014 0.179,-0.023 0.199,-0.052C0.219,-0.08 0.257,-0.087 0.286,-0.067C0.346,-0.025 0.42,-0 0.5,-0C0.707,-0 0.875,-0.168 0.875,-0.375C0.875,-0.584 0.707,-0.75 0.5,-0.75C0.395,-0.75 0.303,-0.708 0.235,-0.64L0.295,-0.58C0.324,-0.551 0.304,-0.5 0.262,-0.5L0.047,-0.5C0.021,-0.5 0,-0.521 0,-0.547L0,-0.762C0,-0.804 0.05,-0.825 0.08,-0.795L0.146,-0.729C0.237,-0.819 0.362,-0.875 0.498,-0.875L0.5,-0.875ZM0.5,-0.625C0.526,-0.625 0.547,-0.604 0.547,-0.578L0.547,-0.394L0.672,-0.268C0.692,-0.249 0.692,-0.22 0.672,-0.203C0.655,-0.183 0.626,-0.183 0.607,-0.203L0.467,-0.344C0.458,-0.351 0.453,-0.363 0.453,-0.375L0.453,-0.578C0.453,-0.604 0.474,-0.625 0.5,-0.625Z" style="fill:white;fill-rule:nonzero;stroke:black;stroke-width:0.02px;"/>
                    </g>
                </g>
            </g>
        </g>
    </g>
</svg>
