<?xml version="1.0" encoding="UTF-8" standalone="no"?>
<!DOCTYPE svg PUBLIC "-//W3C//DTD SVG 1.1//EN" "http://www.w3.org/Graphics/SVG/1.1/DTD/svg11.dtd">
<svg width="100%" height="100%" viewBox="0 0 1024 1024" version="1.1" xmlns="http://www.w3.org/2000/svg" xmlnsXlink="http://www.w3.org/1999/xlink" xmlSpace="preserve" xmlnsSerif="http://www.serif.com/" style="fill-rule:evenodd;clip-rule:evenodd;stroke-linejoin:round;stroke-miterlimit:2;">
    <rect id="Artboard1" x="0" y="0" width="1024" height="1024" style="fill:none;"/>
    <g id="Artboard11" serifId="Artboard1">
        <g id="Layer1">
            <g>
                <g transform="matrix(1,0,0,1,289.595,54.0885)">
                    <g transform="matrix(192,0,0,192,-199.001,862.941)">
                        <path d="M0.076,-0L0.076,-0.716L0.445,-0.716C0.513,-0.716 0.565,-0.71 0.602,-0.698C0.638,-0.687 0.667,-0.665 0.689,-0.633C0.711,-0.601 0.722,-0.563 0.722,-0.517C0.722,-0.477 0.714,-0.443 0.697,-0.414C0.68,-0.385 0.657,-0.362 0.627,-0.344C0.608,-0.333 0.582,-0.323 0.549,-0.316C0.576,-0.307 0.595,-0.298 0.607,-0.29C0.615,-0.284 0.627,-0.271 0.642,-0.252C0.658,-0.233 0.668,-0.218 0.673,-0.208L0.78,-0L0.53,-0L0.412,-0.219C0.397,-0.247 0.384,-0.265 0.372,-0.274C0.356,-0.285 0.338,-0.291 0.318,-0.291L0.298,-0.291L0.298,-0L0.076,-0ZM0.298,-0.426L0.392,-0.426C0.402,-0.426 0.421,-0.429 0.45,-0.436C0.465,-0.438 0.477,-0.446 0.486,-0.458C0.495,-0.47 0.5,-0.484 0.5,-0.5C0.5,-0.523 0.493,-0.54 0.478,-0.553C0.463,-0.565 0.436,-0.571 0.396,-0.571L0.298,-0.571L0.298,-0.426Z" style="fill:white;fill-rule:nonzero;"/>
                    </g>
                    <g transform="matrix(192,0,0,192,-49.6574,862.941)">
                        <path d="M0.073,-0.716L0.666,-0.716L0.666,-0.563L0.294,-0.563L0.294,-0.449L0.639,-0.449L0.639,-0.303L0.294,-0.303L0.294,-0.162L0.676,-0.162L0.676,-0L0.073,-0L0.073,-0.716Z" style="fill:white;fill-rule:nonzero;"/>
                    </g>
                    <g transform="matrix(192,0,0,192,88.9989,862.941)">
                        <path d="M0.55,-0.292L0.744,-0.234C0.731,-0.18 0.71,-0.134 0.682,-0.098C0.654,-0.061 0.619,-0.034 0.578,-0.015C0.536,0.003 0.484,0.013 0.419,0.013C0.342,0.013 0.278,0.001 0.229,-0.021C0.179,-0.044 0.137,-0.084 0.101,-0.141C0.065,-0.198 0.047,-0.271 0.047,-0.359C0.047,-0.478 0.079,-0.569 0.142,-0.633C0.205,-0.696 0.294,-0.728 0.409,-0.728C0.499,-0.728 0.57,-0.71 0.622,-0.673C0.673,-0.637 0.712,-0.581 0.737,-0.505L0.542,-0.462C0.535,-0.484 0.528,-0.5 0.52,-0.51C0.508,-0.527 0.493,-0.54 0.475,-0.549C0.457,-0.558 0.437,-0.563 0.415,-0.563C0.364,-0.563 0.326,-0.542 0.299,-0.502C0.279,-0.472 0.269,-0.425 0.269,-0.361C0.269,-0.281 0.281,-0.227 0.305,-0.198C0.329,-0.168 0.363,-0.153 0.407,-0.153C0.449,-0.153 0.481,-0.165 0.503,-0.189C0.524,-0.213 0.54,-0.247 0.55,-0.292Z" style="fill:white;fill-rule:nonzero;"/>
                    </g>
                    <g transform="matrix(192,0,0,192,238.343,862.941)">
                        <path d="M0.514,-0.118L0.262,-0.118L0.227,-0L0.001,-0L0.27,-0.716L0.511,-0.716L0.78,-0L0.549,-0L0.514,-0.118ZM0.467,-0.273L0.388,-0.53L0.31,-0.273L0.467,-0.273Z" style="fill:white;fill-rule:nonzero;"/>
                    </g>
                    <g transform="matrix(192,0,0,192,387.686,862.941)">
                        <path d="M0.073,-0.716L0.294,-0.716L0.294,-0.176L0.64,-0.176L0.64,-0L0.073,-0L0.073,-0.716Z" style="fill:white;fill-rule:nonzero;"/>
                    </g>
                    <g transform="matrix(192,0,0,192,515.749,862.941)">
                        <path d="M0.073,-0.716L0.294,-0.716L0.294,-0.176L0.64,-0.176L0.64,-0L0.073,-0L0.073,-0.716Z" style="fill:white;fill-rule:nonzero;"/>
                    </g>
                </g>
                <g transform="matrix(1,0,0,1,-90.2242,-38.9333)">
                    <g transform="matrix(600,0,0,600,302.224,646.409)">
                        <path d="M0.5,-0.875C0.776,-0.875 1,-0.651 1,-0.375C1,-0.099 0.776,0.125 0.5,0.125C0.394,0.125 0.295,0.092 0.214,0.035C0.186,0.014 0.179,-0.023 0.199,-0.052C0.219,-0.08 0.257,-0.087 0.286,-0.067C0.346,-0.025 0.42,-0 0.5,-0C0.707,-0 0.875,-0.168 0.875,-0.375C0.875,-0.584 0.707,-0.75 0.5,-0.75C0.395,-0.75 0.303,-0.708 0.235,-0.64L0.295,-0.58C0.324,-0.551 0.304,-0.5 0.262,-0.5L0.047,-0.5C0.021,-0.5 0,-0.521 0,-0.547L0,-0.762C0,-0.804 0.05,-0.825 0.08,-0.795L0.146,-0.729C0.237,-0.819 0.362,-0.875 0.498,-0.875L0.5,-0.875ZM0.5,-0.625C0.526,-0.625 0.547,-0.604 0.547,-0.578L0.547,-0.394L0.672,-0.268C0.692,-0.249 0.692,-0.22 0.672,-0.203C0.655,-0.183 0.626,-0.183 0.607,-0.203L0.467,-0.344C0.458,-0.351 0.453,-0.363 0.453,-0.375L0.453,-0.578C0.453,-0.604 0.474,-0.625 0.5,-0.625Z" style="fill:white;fill-rule:nonzero;"/>
                    </g>
                </g>
            </g>
        </g>
    </g>
</svg>
