<?xml version="1.0" encoding="UTF-8" standalone="no"?>
<!DOCTYPE svg PUBLIC "-//W3C//DTD SVG 1.1//EN" "http://www.w3.org/Graphics/SVG/1.1/DTD/svg11.dtd">
<svg width="100%" height="100%" viewBox="0 0 1024 1024" version="1.1" xmlns="http://www.w3.org/2000/svg" xmlnsXlink="http://www.w3.org/1999/xlink" xml:space="preserve" xmlnsSerif="http://www.serif.com/" style="fill-rule:evenodd;clip-rule:evenodd;stroke-linejoin:round;stroke-miterlimit:2;">
    <rect id="Artboard1" x="0" y="0" width="1024" height="1024" style="fill:none;"/>
    <g id="Artboard11" serifId="Artboard1">
        <g id="Layer1">
            <g id="RESIGN">
                <g transform="matrix(1,0,0,1,295.595,61.0885)">
                    <g transform="matrix(144,0,0,144,-85.5636,828.582)">
                        <path d="M0.076,-0L0.076,-0.716L0.445,-0.716C0.513,-0.716 0.565,-0.71 0.602,-0.698C0.638,-0.687 0.667,-0.665 0.689,-0.633C0.711,-0.601 0.722,-0.563 0.722,-0.517C0.722,-0.477 0.714,-0.443 0.697,-0.414C0.68,-0.385 0.657,-0.362 0.627,-0.344C0.608,-0.333 0.582,-0.323 0.549,-0.316C0.576,-0.307 0.595,-0.298 0.607,-0.29C0.615,-0.284 0.627,-0.271 0.642,-0.252C0.658,-0.233 0.668,-0.218 0.673,-0.208L0.78,-0L0.53,-0L0.412,-0.219C0.397,-0.247 0.384,-0.265 0.372,-0.274C0.356,-0.285 0.338,-0.291 0.318,-0.291L0.298,-0.291L0.298,-0L0.076,-0ZM0.298,-0.426L0.392,-0.426C0.402,-0.426 0.421,-0.429 0.45,-0.436C0.465,-0.438 0.477,-0.446 0.486,-0.458C0.495,-0.47 0.5,-0.484 0.5,-0.5C0.5,-0.523 0.493,-0.54 0.478,-0.553C0.463,-0.565 0.436,-0.571 0.396,-0.571L0.298,-0.571L0.298,-0.426Z" style="fill-rule:nonzero;"/>
                    </g>
                    <g transform="matrix(144,0,0,144,26.4442,828.582)">
                        <path d="M0.073,-0.716L0.666,-0.716L0.666,-0.563L0.294,-0.563L0.294,-0.449L0.639,-0.449L0.639,-0.303L0.294,-0.303L0.294,-0.162L0.676,-0.162L0.676,-0L0.073,-0L0.073,-0.716Z" style="fill-rule:nonzero;"/>
                    </g>
                    <g transform="matrix(144,0,0,144,130.436,828.582)">
                        <path d="M0.035,-0.237L0.245,-0.25C0.25,-0.216 0.259,-0.19 0.273,-0.172C0.296,-0.143 0.328,-0.128 0.371,-0.128C0.402,-0.128 0.427,-0.136 0.444,-0.151C0.461,-0.165 0.469,-0.183 0.469,-0.202C0.469,-0.221 0.461,-0.237 0.445,-0.252C0.429,-0.267 0.391,-0.28 0.332,-0.293C0.235,-0.315 0.165,-0.344 0.124,-0.38C0.082,-0.417 0.062,-0.463 0.062,-0.519C0.062,-0.555 0.072,-0.59 0.094,-0.623C0.115,-0.656 0.147,-0.681 0.19,-0.7C0.233,-0.719 0.291,-0.728 0.366,-0.728C0.457,-0.728 0.527,-0.711 0.575,-0.677C0.623,-0.643 0.652,-0.589 0.661,-0.515L0.452,-0.502C0.447,-0.535 0.435,-0.558 0.417,-0.573C0.399,-0.587 0.375,-0.595 0.344,-0.595C0.318,-0.595 0.299,-0.589 0.286,-0.578C0.273,-0.567 0.266,-0.554 0.266,-0.539C0.266,-0.527 0.271,-0.517 0.282,-0.508C0.293,-0.498 0.317,-0.49 0.356,-0.481C0.453,-0.461 0.522,-0.44 0.564,-0.418C0.606,-0.397 0.636,-0.37 0.656,-0.339C0.675,-0.307 0.684,-0.272 0.684,-0.233C0.684,-0.187 0.671,-0.145 0.646,-0.106C0.621,-0.067 0.585,-0.038 0.54,-0.018C0.494,0.002 0.437,0.012 0.367,0.012C0.245,0.012 0.161,-0.011 0.114,-0.058C0.067,-0.105 0.041,-0.165 0.035,-0.237Z" style="fill-rule:nonzero;"/>
                    </g>
                    <g transform="matrix(144,0,0,144,234.429,828.582)">
                        <rect x="0.082" y="-0.716" width="0.222" height="0.716" style="fill-rule:nonzero;"/>
                    </g>
                    <g transform="matrix(144,0,0,144,290.468,828.582)">
                        <path d="M0.433,-0.259L0.433,-0.408L0.775,-0.408L0.775,-0.103C0.709,-0.058 0.652,-0.028 0.601,-0.012C0.551,0.004 0.491,0.012 0.422,0.012C0.337,0.012 0.268,-0.002 0.215,-0.031C0.161,-0.06 0.12,-0.103 0.09,-0.161C0.061,-0.218 0.046,-0.284 0.046,-0.358C0.046,-0.436 0.062,-0.504 0.094,-0.562C0.126,-0.62 0.174,-0.663 0.236,-0.693C0.284,-0.716 0.35,-0.728 0.432,-0.728C0.511,-0.728 0.57,-0.721 0.609,-0.707C0.648,-0.692 0.681,-0.67 0.707,-0.64C0.733,-0.61 0.752,-0.572 0.765,-0.525L0.552,-0.487C0.543,-0.514 0.528,-0.535 0.507,-0.549C0.486,-0.564 0.459,-0.571 0.427,-0.571C0.378,-0.571 0.34,-0.554 0.311,-0.52C0.282,-0.487 0.268,-0.433 0.268,-0.36C0.268,-0.283 0.282,-0.228 0.311,-0.194C0.34,-0.161 0.381,-0.145 0.433,-0.145C0.458,-0.145 0.481,-0.148 0.504,-0.155C0.526,-0.162 0.552,-0.175 0.581,-0.192L0.581,-0.259L0.433,-0.259Z" style="fill-rule:nonzero;"/>
                    </g>
                    <g transform="matrix(144,0,0,144,410.421,828.582)">
                        <path d="M0.075,-0.716L0.281,-0.716L0.551,-0.32L0.551,-0.716L0.759,-0.716L0.759,-0L0.551,-0L0.283,-0.393L0.283,-0L0.075,-0L0.075,-0.716Z" style="fill-rule:nonzero;"/>
                    </g>
                </g>
                <g transform="matrix(1,0,0,1,289.595,54.0885)">
                    <g transform="matrix(144,0,0,144,-85.5636,828.582)">
                        <path d="M0.076,-0L0.076,-0.716L0.445,-0.716C0.513,-0.716 0.565,-0.71 0.602,-0.698C0.638,-0.687 0.667,-0.665 0.689,-0.633C0.711,-0.601 0.722,-0.563 0.722,-0.517C0.722,-0.477 0.714,-0.443 0.697,-0.414C0.68,-0.385 0.657,-0.362 0.627,-0.344C0.608,-0.333 0.582,-0.323 0.549,-0.316C0.576,-0.307 0.595,-0.298 0.607,-0.29C0.615,-0.284 0.627,-0.271 0.642,-0.252C0.658,-0.233 0.668,-0.218 0.673,-0.208L0.78,-0L0.53,-0L0.412,-0.219C0.397,-0.247 0.384,-0.265 0.372,-0.274C0.356,-0.285 0.338,-0.291 0.318,-0.291L0.298,-0.291L0.298,-0L0.076,-0ZM0.298,-0.426L0.392,-0.426C0.402,-0.426 0.421,-0.429 0.45,-0.436C0.465,-0.438 0.477,-0.446 0.486,-0.458C0.495,-0.47 0.5,-0.484 0.5,-0.5C0.5,-0.523 0.493,-0.54 0.478,-0.553C0.463,-0.565 0.436,-0.571 0.396,-0.571L0.298,-0.571L0.298,-0.426Z" style="fill:white;fill-rule:nonzero;"/>
                    </g>
                    <g transform="matrix(144,0,0,144,26.4442,828.582)">
                        <path d="M0.073,-0.716L0.666,-0.716L0.666,-0.563L0.294,-0.563L0.294,-0.449L0.639,-0.449L0.639,-0.303L0.294,-0.303L0.294,-0.162L0.676,-0.162L0.676,-0L0.073,-0L0.073,-0.716Z" style="fill:white;fill-rule:nonzero;"/>
                    </g>
                    <g transform="matrix(144,0,0,144,130.436,828.582)">
                        <path d="M0.035,-0.237L0.245,-0.25C0.25,-0.216 0.259,-0.19 0.273,-0.172C0.296,-0.143 0.328,-0.128 0.371,-0.128C0.402,-0.128 0.427,-0.136 0.444,-0.151C0.461,-0.165 0.469,-0.183 0.469,-0.202C0.469,-0.221 0.461,-0.237 0.445,-0.252C0.429,-0.267 0.391,-0.28 0.332,-0.293C0.235,-0.315 0.165,-0.344 0.124,-0.38C0.082,-0.417 0.062,-0.463 0.062,-0.519C0.062,-0.555 0.072,-0.59 0.094,-0.623C0.115,-0.656 0.147,-0.681 0.19,-0.7C0.233,-0.719 0.291,-0.728 0.366,-0.728C0.457,-0.728 0.527,-0.711 0.575,-0.677C0.623,-0.643 0.652,-0.589 0.661,-0.515L0.452,-0.502C0.447,-0.535 0.435,-0.558 0.417,-0.573C0.399,-0.587 0.375,-0.595 0.344,-0.595C0.318,-0.595 0.299,-0.589 0.286,-0.578C0.273,-0.567 0.266,-0.554 0.266,-0.539C0.266,-0.527 0.271,-0.517 0.282,-0.508C0.293,-0.498 0.317,-0.49 0.356,-0.481C0.453,-0.461 0.522,-0.44 0.564,-0.418C0.606,-0.397 0.636,-0.37 0.656,-0.339C0.675,-0.307 0.684,-0.272 0.684,-0.233C0.684,-0.187 0.671,-0.145 0.646,-0.106C0.621,-0.067 0.585,-0.038 0.54,-0.018C0.494,0.002 0.437,0.012 0.367,0.012C0.245,0.012 0.161,-0.011 0.114,-0.058C0.067,-0.105 0.041,-0.165 0.035,-0.237Z" style="fill:white;fill-rule:nonzero;"/>
                    </g>
                    <g transform="matrix(144,0,0,144,234.429,828.582)">
                        <rect x="0.082" y="-0.716" width="0.222" height="0.716" style="fill:white;fill-rule:nonzero;"/>
                    </g>
                    <g transform="matrix(144,0,0,144,290.468,828.582)">
                        <path d="M0.433,-0.259L0.433,-0.408L0.775,-0.408L0.775,-0.103C0.709,-0.058 0.652,-0.028 0.601,-0.012C0.551,0.004 0.491,0.012 0.422,0.012C0.337,0.012 0.268,-0.002 0.215,-0.031C0.161,-0.06 0.12,-0.103 0.09,-0.161C0.061,-0.218 0.046,-0.284 0.046,-0.358C0.046,-0.436 0.062,-0.504 0.094,-0.562C0.126,-0.62 0.174,-0.663 0.236,-0.693C0.284,-0.716 0.35,-0.728 0.432,-0.728C0.511,-0.728 0.57,-0.721 0.609,-0.707C0.648,-0.692 0.681,-0.67 0.707,-0.64C0.733,-0.61 0.752,-0.572 0.765,-0.525L0.552,-0.487C0.543,-0.514 0.528,-0.535 0.507,-0.549C0.486,-0.564 0.459,-0.571 0.427,-0.571C0.378,-0.571 0.34,-0.554 0.311,-0.52C0.282,-0.487 0.268,-0.433 0.268,-0.36C0.268,-0.283 0.282,-0.228 0.311,-0.194C0.34,-0.161 0.381,-0.145 0.433,-0.145C0.458,-0.145 0.481,-0.148 0.504,-0.155C0.526,-0.162 0.552,-0.175 0.581,-0.192L0.581,-0.259L0.433,-0.259Z" style="fill:white;fill-rule:nonzero;"/>
                    </g>
                    <g transform="matrix(144,0,0,144,410.421,828.582)">
                        <path d="M0.075,-0.716L0.281,-0.716L0.551,-0.32L0.551,-0.716L0.759,-0.716L0.759,-0L0.551,-0L0.283,-0.393L0.283,-0L0.075,-0L0.075,-0.716Z" style="fill:white;fill-rule:nonzero;"/>
                    </g>
                    <path d="M4.318,783.747C5.655,784.751 7.592,786.741 10.048,789.792C12.504,792.843 14.124,795.218 14.96,796.881L30.351,826.75C30.99,827.99 30.937,829.473 30.211,830.664C29.485,831.855 28.191,832.582 26.796,832.582L-9.204,832.582C-10.674,832.582 -12.025,831.776 -12.724,830.483L-29.739,798.983C-29.745,798.972 -29.75,798.962 -29.756,798.951C-31.503,795.648 -32.932,793.404 -34.326,792.382C-35.615,791.501 -37.042,790.982 -38.603,790.81L-38.603,828.582C-38.603,830.791 -40.394,832.582 -42.603,832.582L-74.595,832.582C-76.804,832.582 -78.595,830.791 -78.595,828.582L-78.595,725.504C-78.595,723.295 -76.804,721.504 -74.595,721.504L-21.509,721.504C-11.124,721.504 -3.194,722.45 2.295,724.23C8.343,726.191 13.223,729.822 16.928,735.133C20.556,740.335 22.429,746.652 22.429,754.121C22.429,760.627 20.994,766.228 18.221,770.948C15.448,775.668 11.64,779.501 6.787,782.435L6.784,782.436C6.031,782.891 5.209,783.328 4.318,783.747ZM-74.595,828.582L-42.603,828.582L-42.603,786.746L-39.79,786.746C-36.884,786.746 -34.282,787.543 -31.986,789.136C-30.298,790.355 -28.376,793.004 -26.22,797.082L-9.204,828.582L26.796,828.582L11.397,798.699C10.647,797.199 9.159,795.066 6.932,792.301C4.706,789.535 3.007,787.73 1.835,786.886C0.1,785.621 -2.665,784.355 -6.462,783.09C-1.728,782.011 1.999,780.652 4.718,779.011C8.983,776.433 12.335,773.07 14.772,768.922C17.21,764.773 18.429,759.84 18.429,754.121C18.429,747.558 16.835,741.992 13.647,737.422C10.46,732.851 6.264,729.722 1.061,728.035C-4.142,726.347 -11.665,725.504 -21.509,725.504L-74.595,725.504L-74.595,828.582ZM-42.603,767.269L-42.603,746.316L-28.611,746.316C-22.798,746.316 -18.837,747.207 -16.728,748.988C-14.618,750.769 -13.564,753.324 -13.564,756.652C-13.564,758.902 -14.232,760.894 -15.568,762.629C-16.903,764.363 -18.626,765.441 -20.736,765.863C-24.907,766.801 -27.72,767.269 -29.173,767.269L-42.603,767.269ZM-38.603,763.269L-29.173,763.269C-27.87,763.269 -25.355,762.801 -21.613,761.96C-21.582,761.953 -21.551,761.947 -21.52,761.941C-20.382,761.713 -19.457,761.124 -18.736,760.188C-17.947,759.163 -17.564,757.982 -17.564,756.652C-17.564,754.674 -18.055,753.103 -19.308,752.044C-20.947,750.66 -24.095,750.316 -28.611,750.316C-28.611,750.316 -38.603,750.316 -38.603,750.316L-38.603,763.269ZM200.753,759.932C206.068,761.548 210.316,763.173 213.499,764.795C220.282,768.253 225.168,772.599 228.256,777.719C231.37,782.883 232.944,788.654 232.944,795.043C232.944,802.445 230.9,809.27 226.805,815.517C222.731,821.732 217.053,826.465 209.74,829.678C202.75,832.748 193.947,834.34 183.311,834.34C164.37,834.34 151.354,830.336 144.061,823.043C136.654,815.636 132.42,806.241 131.443,794.821C131.351,793.749 131.696,792.684 132.399,791.869C133.102,791.053 134.104,790.555 135.178,790.488L165.483,788.59C167.58,788.458 169.421,789.971 169.698,792.053C170.239,796.109 171.229,799.239 172.889,801.364C175.426,804.586 179.095,806.09 183.804,806.09C187.196,806.09 189.859,805.459 191.696,803.868C193.17,802.589 194.007,801.158 194.007,799.472C194.007,797.888 193.205,796.525 191.815,795.274C189.745,793.41 184.857,791.887 177.32,790.231C177.314,790.229 177.307,790.228 177.301,790.227C162.491,786.897 151.985,782.342 145.67,776.826C138.761,770.832 135.296,763.197 135.296,753.91C135.296,747.844 137.034,742.109 140.55,736.714C144.017,731.395 149.191,727.167 156.15,724.124C162.707,721.257 171.682,719.746 183.1,719.746C197.301,719.746 208.088,722.549 215.542,727.83C223.3,733.326 228.067,741.992 229.539,753.985C229.674,755.082 229.349,756.185 228.641,757.034C227.934,757.883 226.906,758.401 225.803,758.466L200.753,759.932ZM135.429,794.48C136.319,804.886 140.139,813.465 146.889,820.215C153.639,826.965 165.78,830.34 183.311,830.34C193.296,830.34 201.569,828.898 208.132,826.015C214.694,823.133 219.804,818.902 223.46,813.324C227.116,807.746 228.944,801.652 228.944,795.043C228.944,789.418 227.573,784.332 224.831,779.785C222.089,775.238 217.706,771.429 211.682,768.359C205.659,765.289 195.686,762.254 181.764,759.254C176.139,758.082 172.577,756.816 171.077,755.457C169.53,754.144 168.757,752.668 168.757,751.027C168.757,748.777 169.694,746.867 171.569,745.297C173.444,743.726 176.233,742.941 179.936,742.941C184.436,742.941 187.964,743.996 190.518,746.105C193.073,748.215 194.749,751.59 195.546,756.23L225.569,754.472C224.257,743.785 220.143,735.992 213.229,731.093C206.315,726.195 196.272,723.746 183.1,723.746C172.366,723.746 163.917,725.093 157.753,727.789C151.589,730.484 146.972,734.187 143.901,738.898C140.831,743.609 139.296,748.613 139.296,753.91C139.296,761.972 142.296,768.605 148.296,773.808C154.249,779.011 164.21,783.183 178.179,786.324C186.71,788.199 192.147,790.191 194.491,792.301C196.835,794.41 198.007,796.801 198.007,799.472C198.007,802.285 196.776,804.758 194.315,806.89C191.854,809.023 188.35,810.09 183.804,810.09C177.71,810.09 173.022,808.004 169.741,803.832C167.725,801.254 166.389,797.504 165.733,792.582L135.429,794.48ZM191.738,757.458C191.681,757.28 191.636,757.096 191.603,756.907C191.002,753.406 189.899,750.781 187.972,749.19C186.042,747.596 183.336,746.941 179.936,746.941C177.393,746.941 175.425,747.285 174.137,748.363C173.256,749.101 172.757,749.969 172.757,751.027C172.757,751.569 173.154,751.973 173.665,752.407C173.698,752.435 173.731,752.464 173.763,752.493C174.988,753.603 177.985,754.38 182.58,755.338C182.589,755.34 182.598,755.341 182.607,755.343C185.86,756.044 188.904,756.75 191.738,757.458ZM36.921,721.504L122.28,721.504C124.489,721.504 126.28,723.295 126.28,725.504L126.28,747.511C126.28,749.721 124.489,751.511 122.28,751.511L72.843,751.511C72.843,751.511 72.843,759.894 72.843,759.894L118.413,759.894C120.622,759.894 122.413,761.685 122.413,763.894L122.413,784.918C122.413,787.127 120.622,788.918 118.413,788.918L72.843,788.918L72.843,801.238L123.827,801.238C126.036,801.238 127.827,803.029 127.827,805.238L127.827,828.582C127.827,830.791 126.036,832.582 123.827,832.582L36.921,832.582C34.712,832.582 32.921,830.791 32.921,828.582L32.921,725.504C32.921,723.295 34.712,721.504 36.921,721.504ZM36.921,725.504L36.921,828.582L123.827,828.582L123.827,805.238L68.843,805.238L68.843,784.918L118.413,784.918L118.413,763.894L68.843,763.894L68.843,747.511L122.28,747.511L122.28,725.504L36.921,725.504ZM246.241,721.504L278.163,721.504C280.372,721.504 282.163,723.295 282.163,725.504L282.163,828.582C282.163,830.791 280.372,832.582 278.163,832.582L246.241,832.582C244.032,832.582 242.241,830.791 242.241,828.582L242.241,725.504C242.241,723.295 244.032,721.504 246.241,721.504ZM246.241,725.504L246.241,828.582L278.163,828.582L278.163,725.504L246.241,725.504ZM348.835,791.246L348.835,769.801C348.835,767.591 350.626,765.801 352.835,765.801L402.054,765.801C404.263,765.801 406.054,767.591 406.054,769.801L406.054,813.746C406.054,815.069 405.4,816.306 404.306,817.051C394.501,823.734 385.815,828.254 378.278,830.668C370.692,833.099 361.697,834.34 351.288,834.34C338.268,834.34 327.672,832.04 319.467,827.6C311.051,823.047 304.513,816.282 299.883,807.278C295.367,798.495 293.077,788.421 293.077,777.043C293.077,765.042 295.594,754.614 300.545,745.739C305.588,736.697 312.963,729.821 322.693,725.134C322.698,725.132 322.703,725.129 322.708,725.127C330.122,721.594 340.084,719.746 352.624,719.746C364.63,719.746 373.601,720.908 379.554,723.082C385.873,725.39 391.11,728.979 395.279,733.83C399.353,738.571 402.447,744.563 404.497,751.841C404.804,752.928 404.636,754.093 404.037,755.05C403.437,756.006 402.462,756.665 401.35,756.863L370.624,762.348C368.658,762.699 366.735,761.546 366.117,759.647C365.148,756.67 363.547,754.363 361.233,752.785C358.805,751.128 355.685,750.386 351.921,750.386C346.219,750.386 341.648,752.303 338.262,756.263C334.593,760.554 332.999,767.405 332.999,776.691C332.999,786.583 334.579,793.72 338.298,797.959C341.764,801.908 346.64,803.769 352.835,803.769C355.972,803.769 358.966,803.32 361.815,802.411C364.295,801.621 367.066,800.358 370.139,798.64L370.14,795.246L352.835,795.246C350.626,795.246 348.835,793.455 348.835,791.246ZM352.835,791.246L374.139,791.246L374.139,800.949C369.968,803.433 366.264,805.191 363.03,806.222C359.796,807.254 356.397,807.769 352.835,807.769C345.335,807.769 339.487,805.379 335.292,800.597C331.097,795.816 328.999,787.847 328.999,776.691C328.999,766.191 331.073,758.515 335.222,753.664C339.37,748.812 344.936,746.386 351.921,746.386C356.608,746.386 360.464,747.418 363.487,749.48C366.511,751.543 368.655,754.519 369.921,758.41L400.647,752.926C398.772,746.269 395.972,740.773 392.245,736.437C388.518,732.101 383.831,728.902 378.182,726.84C372.534,724.777 364.014,723.746 352.624,723.746C340.811,723.746 331.413,725.41 324.429,728.738C315.475,733.051 308.679,739.367 304.038,747.687C299.397,756.008 297.077,765.793 297.077,777.043C297.077,787.73 299.198,797.199 303.44,805.449C307.682,813.699 313.659,819.91 321.37,824.082C329.081,828.254 339.054,830.34 351.288,830.34C361.225,830.34 369.815,829.179 377.057,826.859C384.3,824.539 392.632,820.168 402.054,813.746L402.054,769.801L352.835,769.801L352.835,791.246ZM421.179,721.504L450.921,721.504C452.245,721.504 453.483,722.159 454.227,723.253L485.733,769.541L485.733,725.504C485.733,723.295 487.524,721.504 489.733,721.504L519.757,721.504C521.966,721.504 523.757,723.295 523.757,725.504L523.757,828.582C523.757,830.791 521.966,832.582 519.757,832.582L489.733,832.582C488.411,832.582 487.174,831.928 486.429,830.835L455.132,784.945L455.132,828.582C455.132,830.791 453.341,832.582 451.132,832.582L421.179,832.582C418.969,832.582 417.179,830.791 417.179,828.582L417.179,725.504C417.179,723.295 418.969,721.504 421.179,721.504ZM421.179,725.504L421.179,828.582L451.132,828.582L451.132,771.98L489.733,828.582L519.757,828.582L519.757,725.504L489.733,725.504L489.733,782.527L450.921,725.504L421.179,725.504Z"/>
                </g>
                <rect x="275.474" y="276.268" width="450.079" height="202.364"/>
                <g transform="matrix(1,0,0,1,-90.2242,-38.9333)">
                    <g transform="matrix(600,0,0,600,302.224,646.409)">
                        <path d="M0.813,-0.094C0.813,-0.094 0.813,0.031 0.813,0.031C0.813,0.083 0.771,0.125 0.719,0.125L0.625,0.125L0.625,0.031C0.625,0.014 0.611,-0 0.594,-0C0.577,-0 0.563,0.014 0.563,0.031L0.563,0.125L0.438,0.125L0.438,0.031C0.438,0.014 0.423,-0 0.406,-0C0.389,-0 0.375,0.014 0.375,0.031L0.375,0.125L0.281,0.125C0.229,0.125 0.188,0.083 0.188,0.031L0.188,-0.094C0.188,-0.095 0.188,-0.095 0.188,-0.096C0.073,-0.176 0,-0.299 0,-0.438C0,-0.679 0.224,-0.875 0.5,-0.875C0.776,-0.875 1,-0.679 1,-0.438C1,-0.299 0.927,-0.176 0.811,-0.096C0.811,-0.095 0.813,-0.095 0.813,-0.094ZM0.313,-0.5C0.244,-0.5 0.188,-0.444 0.188,-0.375C0.188,-0.306 0.244,-0.25 0.313,-0.25C0.381,-0.25 0.438,-0.306 0.438,-0.375C0.438,-0.444 0.381,-0.5 0.313,-0.5ZM0.688,-0.25C0.756,-0.25 0.813,-0.306 0.813,-0.375C0.813,-0.444 0.756,-0.5 0.688,-0.5C0.619,-0.5 0.563,-0.444 0.563,-0.375C0.563,-0.306 0.619,-0.25 0.688,-0.25Z" style="fill:white;fill-rule:nonzero;stroke:black;stroke-width:0.02px;"/>
                    </g>
                </g>
            </g>
        </g>
    </g>
</svg>
