<?xml version="1.0" encoding="UTF-8" standalone="no"?>
<!DOCTYPE svg PUBLIC "-//W3C//DTD SVG 1.1//EN" "http://www.w3.org/Graphics/SVG/1.1/DTD/svg11.dtd">
<svg width="100%" height="100%" viewBox="0 0 1024 1024" version="1.1" xmlns="http://www.w3.org/2000/svg" xmlnsXlink="http://www.w3.org/1999/xlink" xmlSpace="preserve" xmlnsSerif="http://www.serif.com/" style="fill-rule:evenodd;clip-rule:evenodd;stroke-linejoin:round;stroke-miterlimit:2;">
    <rect id="Artboard1" x="0" y="0" width="1024" height="1024" style="fill:none;"/>
    <g id="Artboard11" serifId="Artboard1">
        <g id="Layer1">
            <g>
                <g transform="matrix(1,0,0,1,289.595,54.0885)">
                    <g transform="matrix(192,0,0,192,-268.282,862.941)">
                        <path d="M0.035,-0.237L0.245,-0.25C0.25,-0.216 0.259,-0.19 0.273,-0.172C0.296,-0.143 0.328,-0.128 0.371,-0.128C0.402,-0.128 0.427,-0.136 0.444,-0.151C0.461,-0.165 0.469,-0.183 0.469,-0.202C0.469,-0.221 0.461,-0.237 0.445,-0.252C0.429,-0.267 0.391,-0.28 0.332,-0.293C0.235,-0.315 0.165,-0.344 0.124,-0.38C0.082,-0.417 0.062,-0.463 0.062,-0.519C0.062,-0.555 0.072,-0.59 0.094,-0.623C0.115,-0.656 0.147,-0.681 0.19,-0.7C0.233,-0.719 0.291,-0.728 0.366,-0.728C0.457,-0.728 0.527,-0.711 0.575,-0.677C0.623,-0.643 0.652,-0.589 0.661,-0.515L0.452,-0.502C0.447,-0.535 0.435,-0.558 0.417,-0.573C0.399,-0.587 0.375,-0.595 0.344,-0.595C0.318,-0.595 0.299,-0.589 0.286,-0.578C0.273,-0.567 0.266,-0.554 0.266,-0.539C0.266,-0.527 0.271,-0.517 0.282,-0.508C0.293,-0.498 0.317,-0.49 0.356,-0.481C0.453,-0.461 0.522,-0.44 0.564,-0.418C0.606,-0.397 0.636,-0.37 0.656,-0.339C0.675,-0.307 0.684,-0.272 0.684,-0.233C0.684,-0.187 0.671,-0.145 0.646,-0.106C0.621,-0.067 0.585,-0.038 0.54,-0.018C0.494,0.002 0.437,0.012 0.367,0.012C0.245,0.012 0.161,-0.011 0.114,-0.058C0.067,-0.105 0.041,-0.165 0.035,-0.237Z" style="fill:white;fill-rule:nonzero;"/>
                    </g>
                    <g transform="matrix(192,0,0,192,-129.626,862.941)">
                        <path d="M0.074,-0.716L0.295,-0.716L0.295,-0.465L0.537,-0.465L0.537,-0.716L0.759,-0.716L0.759,-0L0.537,-0L0.537,-0.29L0.295,-0.29L0.295,-0L0.074,-0L0.074,-0.716Z" style="fill:white;fill-rule:nonzero;"/>
                    </g>
                    <g transform="matrix(192,0,0,192,30.3114,862.941)">
                        <path d="M0.539,-0.716L0.76,-0.716L0.76,-0.289C0.76,-0.247 0.753,-0.207 0.74,-0.169C0.727,-0.132 0.706,-0.099 0.678,-0.071C0.65,-0.042 0.62,-0.023 0.589,-0.011C0.546,0.005 0.495,0.013 0.435,0.013C0.4,0.013 0.362,0.01 0.321,0.005C0.279,0 0.245,-0.009 0.217,-0.024C0.19,-0.038 0.164,-0.059 0.141,-0.085C0.118,-0.112 0.103,-0.14 0.094,-0.168C0.081,-0.214 0.074,-0.254 0.074,-0.289L0.074,-0.716L0.294,-0.716L0.294,-0.279C0.294,-0.24 0.305,-0.209 0.327,-0.187C0.349,-0.165 0.379,-0.154 0.417,-0.154C0.455,-0.154 0.485,-0.165 0.507,-0.187C0.528,-0.208 0.539,-0.239 0.539,-0.279L0.539,-0.716Z" style="fill:white;fill-rule:nonzero;"/>
                    </g>
                    <g transform="matrix(192,0,0,192,190.249,862.941)">
                        <path d="M0.074,-0.716L0.621,-0.716L0.621,-0.562L0.296,-0.562L0.296,-0.437L0.574,-0.437L0.574,-0.292L0.296,-0.292L0.296,-0L0.074,-0L0.074,-0.716Z" style="fill:white;fill-rule:nonzero;"/>
                    </g>
                    <g transform="matrix(192,0,0,192,318.311,862.941)">
                        <path d="M0.074,-0.716L0.621,-0.716L0.621,-0.562L0.296,-0.562L0.296,-0.437L0.574,-0.437L0.574,-0.292L0.296,-0.292L0.296,-0L0.074,-0L0.074,-0.716Z" style="fill:white;fill-rule:nonzero;"/>
                    </g>
                    <g transform="matrix(192,0,0,192,446.374,862.941)">
                        <path d="M0.073,-0.716L0.294,-0.716L0.294,-0.176L0.64,-0.176L0.64,-0L0.073,-0L0.073,-0.716Z" style="fill:white;fill-rule:nonzero;"/>
                    </g>
                    <g transform="matrix(192,0,0,192,574.436,862.941)">
                        <path d="M0.073,-0.716L0.666,-0.716L0.666,-0.563L0.294,-0.563L0.294,-0.449L0.639,-0.449L0.639,-0.303L0.294,-0.303L0.294,-0.162L0.676,-0.162L0.676,-0L0.073,-0L0.073,-0.716Z" style="fill:white;fill-rule:nonzero;"/>
                    </g>
                </g>
                <g transform="matrix(1,0,0,1,-90.2242,-38.9333)">
                    <g transform="matrix(600,0,0,600,302.224,646.409)">
                        <path d="M0.828,-0.314C0.799,-0.344 0.75,-0.323 0.75,-0.281L0.75,-0.188L0.656,-0.188L0.3,-0.663C0.288,-0.678 0.27,-0.688 0.25,-0.688L0.063,-0.688C0.028,-0.688 0,-0.66 0,-0.625C0,-0.59 0.028,-0.563 0.063,-0.563L0.219,-0.563L0.575,-0.087C0.587,-0.072 0.605,-0.063 0.625,-0.063L0.75,-0.063L0.75,0.031C0.75,0.073 0.8,0.094 0.83,0.064L0.984,-0.092C1.003,-0.11 1.003,-0.14 0.984,-0.158L0.828,-0.314ZM0.656,-0.563L0.75,-0.563L0.75,-0.469C0.75,-0.427 0.8,-0.406 0.828,-0.436L0.983,-0.592C1.001,-0.61 1.001,-0.64 0.983,-0.658L0.828,-0.814C0.799,-0.844 0.748,-0.823 0.748,-0.781L0.748,-0.688L0.625,-0.688C0.605,-0.688 0.587,-0.678 0.575,-0.662L0.496,-0.557L0.572,-0.453L0.656,-0.563ZM0.219,-0.188L0.063,-0.188C0.028,-0.188 0,-0.16 0,-0.125C0,-0.09 0.028,-0.063 0.063,-0.063L0.25,-0.063C0.27,-0.063 0.288,-0.072 0.3,-0.088L0.379,-0.193L0.301,-0.297L0.219,-0.188Z" style="fill:white;fill-rule:nonzero;"/>
                    </g>
                </g>
            </g>
        </g>
    </g>
</svg>
