<?xml version="1.0" encoding="UTF-8" standalone="no"?>
<!DOCTYPE svg PUBLIC "-//W3C//DTD SVG 1.1//EN" "http://www.w3.org/Graphics/SVG/1.1/DTD/svg11.dtd">
<svg width="100%" height="100%" viewBox="0 0 1024 1024" version="1.1" xmlns="http://www.w3.org/2000/svg" xmlnsXlink="http://www.w3.org/1999/xlink" xml:space="preserve" xmlnsSerif="http://www.serif.com/" style="fill-rule:evenodd;clip-rule:evenodd;stroke-linejoin:round;stroke-miterlimit:2;">
    <rect id="Artboard1" x="0" y="0" width="1024" height="1024" style="fill:none;"/>
    <g id="Artboard11" serifId="Artboard1">
        <g id="Layer1">
            <g id="SHUFFLE">
                <g transform="matrix(1,0,0,1,295.595,61.0885)">
                    <g transform="matrix(144,0,0,144,-145.611,828.582)">
                        <path d="M0.035,-0.237L0.245,-0.25C0.25,-0.216 0.259,-0.19 0.273,-0.172C0.296,-0.143 0.328,-0.128 0.371,-0.128C0.402,-0.128 0.427,-0.136 0.444,-0.151C0.461,-0.165 0.469,-0.183 0.469,-0.202C0.469,-0.221 0.461,-0.237 0.445,-0.252C0.429,-0.267 0.391,-0.28 0.332,-0.293C0.235,-0.315 0.165,-0.344 0.124,-0.38C0.082,-0.417 0.062,-0.463 0.062,-0.519C0.062,-0.555 0.072,-0.59 0.094,-0.623C0.115,-0.656 0.147,-0.681 0.19,-0.7C0.233,-0.719 0.291,-0.728 0.366,-0.728C0.457,-0.728 0.527,-0.711 0.575,-0.677C0.623,-0.643 0.652,-0.589 0.661,-0.515L0.452,-0.502C0.447,-0.535 0.435,-0.558 0.417,-0.573C0.399,-0.587 0.375,-0.595 0.344,-0.595C0.318,-0.595 0.299,-0.589 0.286,-0.578C0.273,-0.567 0.266,-0.554 0.266,-0.539C0.266,-0.527 0.271,-0.517 0.282,-0.508C0.293,-0.498 0.317,-0.49 0.356,-0.481C0.453,-0.461 0.522,-0.44 0.564,-0.418C0.606,-0.397 0.636,-0.37 0.656,-0.339C0.675,-0.307 0.684,-0.272 0.684,-0.233C0.684,-0.187 0.671,-0.145 0.646,-0.106C0.621,-0.067 0.585,-0.038 0.54,-0.018C0.494,0.002 0.437,0.012 0.367,0.012C0.245,0.012 0.161,-0.011 0.114,-0.058C0.067,-0.105 0.041,-0.165 0.035,-0.237Z" style="fill-rule:nonzero;"/>
                    </g>
                    <g transform="matrix(144,0,0,144,-41.6183,828.582)">
                        <path d="M0.074,-0.716L0.295,-0.716L0.295,-0.465L0.537,-0.465L0.537,-0.716L0.759,-0.716L0.759,-0L0.537,-0L0.537,-0.29L0.295,-0.29L0.295,-0L0.074,-0L0.074,-0.716Z" style="fill-rule:nonzero;"/>
                    </g>
                    <g transform="matrix(144,0,0,144,78.3348,828.582)">
                        <path d="M0.539,-0.716L0.76,-0.716L0.76,-0.289C0.76,-0.247 0.753,-0.207 0.74,-0.169C0.727,-0.132 0.706,-0.099 0.678,-0.071C0.65,-0.042 0.62,-0.023 0.589,-0.011C0.546,0.005 0.495,0.013 0.435,0.013C0.4,0.013 0.362,0.01 0.321,0.005C0.279,0 0.245,-0.009 0.217,-0.024C0.19,-0.038 0.164,-0.059 0.141,-0.085C0.118,-0.112 0.103,-0.14 0.094,-0.168C0.081,-0.214 0.074,-0.254 0.074,-0.289L0.074,-0.716L0.294,-0.716L0.294,-0.279C0.294,-0.24 0.305,-0.209 0.327,-0.187C0.349,-0.165 0.379,-0.154 0.417,-0.154C0.455,-0.154 0.485,-0.165 0.507,-0.187C0.528,-0.208 0.539,-0.239 0.539,-0.279L0.539,-0.716Z" style="fill-rule:nonzero;"/>
                    </g>
                    <g transform="matrix(144,0,0,144,198.288,828.582)">
                        <path d="M0.074,-0.716L0.621,-0.716L0.621,-0.562L0.296,-0.562L0.296,-0.437L0.574,-0.437L0.574,-0.292L0.296,-0.292L0.296,-0L0.074,-0L0.074,-0.716Z" style="fill-rule:nonzero;"/>
                    </g>
                    <g transform="matrix(144,0,0,144,294.335,828.582)">
                        <path d="M0.074,-0.716L0.621,-0.716L0.621,-0.562L0.296,-0.562L0.296,-0.437L0.574,-0.437L0.574,-0.292L0.296,-0.292L0.296,-0L0.074,-0L0.074,-0.716Z" style="fill-rule:nonzero;"/>
                    </g>
                    <g transform="matrix(144,0,0,144,390.382,828.582)">
                        <path d="M0.073,-0.716L0.294,-0.716L0.294,-0.176L0.64,-0.176L0.64,-0L0.073,-0L0.073,-0.716Z" style="fill-rule:nonzero;"/>
                    </g>
                    <g transform="matrix(144,0,0,144,486.429,828.582)">
                        <path d="M0.073,-0.716L0.666,-0.716L0.666,-0.563L0.294,-0.563L0.294,-0.449L0.639,-0.449L0.639,-0.303L0.294,-0.303L0.294,-0.162L0.676,-0.162L0.676,-0L0.073,-0L0.073,-0.716Z" style="fill-rule:nonzero;"/>
                    </g>
                </g>
                <g transform="matrix(1,0,0,1,289.595,54.0885)">
                    <g transform="matrix(144,0,0,144,-145.611,828.582)">
                        <path d="M0.035,-0.237L0.245,-0.25C0.25,-0.216 0.259,-0.19 0.273,-0.172C0.296,-0.143 0.328,-0.128 0.371,-0.128C0.402,-0.128 0.427,-0.136 0.444,-0.151C0.461,-0.165 0.469,-0.183 0.469,-0.202C0.469,-0.221 0.461,-0.237 0.445,-0.252C0.429,-0.267 0.391,-0.28 0.332,-0.293C0.235,-0.315 0.165,-0.344 0.124,-0.38C0.082,-0.417 0.062,-0.463 0.062,-0.519C0.062,-0.555 0.072,-0.59 0.094,-0.623C0.115,-0.656 0.147,-0.681 0.19,-0.7C0.233,-0.719 0.291,-0.728 0.366,-0.728C0.457,-0.728 0.527,-0.711 0.575,-0.677C0.623,-0.643 0.652,-0.589 0.661,-0.515L0.452,-0.502C0.447,-0.535 0.435,-0.558 0.417,-0.573C0.399,-0.587 0.375,-0.595 0.344,-0.595C0.318,-0.595 0.299,-0.589 0.286,-0.578C0.273,-0.567 0.266,-0.554 0.266,-0.539C0.266,-0.527 0.271,-0.517 0.282,-0.508C0.293,-0.498 0.317,-0.49 0.356,-0.481C0.453,-0.461 0.522,-0.44 0.564,-0.418C0.606,-0.397 0.636,-0.37 0.656,-0.339C0.675,-0.307 0.684,-0.272 0.684,-0.233C0.684,-0.187 0.671,-0.145 0.646,-0.106C0.621,-0.067 0.585,-0.038 0.54,-0.018C0.494,0.002 0.437,0.012 0.367,0.012C0.245,0.012 0.161,-0.011 0.114,-0.058C0.067,-0.105 0.041,-0.165 0.035,-0.237Z" style="fill:white;fill-rule:nonzero;"/>
                    </g>
                    <g transform="matrix(144,0,0,144,-41.6183,828.582)">
                        <path d="M0.074,-0.716L0.295,-0.716L0.295,-0.465L0.537,-0.465L0.537,-0.716L0.759,-0.716L0.759,-0L0.537,-0L0.537,-0.29L0.295,-0.29L0.295,-0L0.074,-0L0.074,-0.716Z" style="fill:white;fill-rule:nonzero;"/>
                    </g>
                    <g transform="matrix(144,0,0,144,78.3348,828.582)">
                        <path d="M0.539,-0.716L0.76,-0.716L0.76,-0.289C0.76,-0.247 0.753,-0.207 0.74,-0.169C0.727,-0.132 0.706,-0.099 0.678,-0.071C0.65,-0.042 0.62,-0.023 0.589,-0.011C0.546,0.005 0.495,0.013 0.435,0.013C0.4,0.013 0.362,0.01 0.321,0.005C0.279,0 0.245,-0.009 0.217,-0.024C0.19,-0.038 0.164,-0.059 0.141,-0.085C0.118,-0.112 0.103,-0.14 0.094,-0.168C0.081,-0.214 0.074,-0.254 0.074,-0.289L0.074,-0.716L0.294,-0.716L0.294,-0.279C0.294,-0.24 0.305,-0.209 0.327,-0.187C0.349,-0.165 0.379,-0.154 0.417,-0.154C0.455,-0.154 0.485,-0.165 0.507,-0.187C0.528,-0.208 0.539,-0.239 0.539,-0.279L0.539,-0.716Z" style="fill:white;fill-rule:nonzero;"/>
                    </g>
                    <g transform="matrix(144,0,0,144,198.288,828.582)">
                        <path d="M0.074,-0.716L0.621,-0.716L0.621,-0.562L0.296,-0.562L0.296,-0.437L0.574,-0.437L0.574,-0.292L0.296,-0.292L0.296,-0L0.074,-0L0.074,-0.716Z" style="fill:white;fill-rule:nonzero;"/>
                    </g>
                    <g transform="matrix(144,0,0,144,294.335,828.582)">
                        <path d="M0.074,-0.716L0.621,-0.716L0.621,-0.562L0.296,-0.562L0.296,-0.437L0.574,-0.437L0.574,-0.292L0.296,-0.292L0.296,-0L0.074,-0L0.074,-0.716Z" style="fill:white;fill-rule:nonzero;"/>
                    </g>
                    <g transform="matrix(144,0,0,144,390.382,828.582)">
                        <path d="M0.073,-0.716L0.294,-0.716L0.294,-0.176L0.64,-0.176L0.64,-0L0.073,-0L0.073,-0.716Z" style="fill:white;fill-rule:nonzero;"/>
                    </g>
                    <g transform="matrix(144,0,0,144,486.429,828.582)">
                        <path d="M0.073,-0.716L0.666,-0.716L0.666,-0.563L0.294,-0.563L0.294,-0.449L0.639,-0.449L0.639,-0.303L0.294,-0.303L0.294,-0.162L0.676,-0.162L0.676,-0L0.073,-0L0.073,-0.716Z" style="fill:white;fill-rule:nonzero;"/>
                    </g>
                    <path d="M-75.294,759.932C-69.979,761.548 -65.731,763.173 -62.548,764.795C-55.765,768.253 -50.879,772.599 -47.791,777.719C-44.676,782.883 -43.103,788.654 -43.103,795.043C-43.103,802.445 -45.147,809.27 -49.242,815.517C-53.316,821.732 -58.994,826.465 -66.306,829.678C-73.297,832.748 -82.1,834.34 -92.736,834.34C-111.677,834.34 -124.693,830.336 -131.986,823.043C-139.393,815.636 -143.626,806.241 -144.604,794.821C-144.696,793.749 -144.351,792.684 -143.648,791.869C-142.945,791.053 -141.943,790.555 -140.868,790.488L-110.564,788.59C-108.467,788.458 -106.626,789.971 -106.349,792.053C-105.808,796.109 -104.818,799.239 -103.158,801.364C-100.621,804.586 -96.952,806.09 -92.243,806.09C-88.851,806.09 -86.188,805.459 -84.351,803.868C-82.876,802.589 -82.04,801.158 -82.04,799.472C-82.04,797.888 -82.842,796.525 -84.232,795.274C-86.302,793.41 -91.19,791.887 -98.727,790.231C-98.733,790.229 -98.739,790.228 -98.746,790.227C-113.556,786.897 -124.062,782.342 -130.377,776.826C-137.286,770.832 -140.751,763.197 -140.751,753.91C-140.751,747.844 -139.013,742.109 -135.497,736.714C-132.03,731.395 -126.856,727.167 -119.897,724.124C-113.34,721.257 -104.365,719.746 -92.946,719.746C-78.746,719.746 -67.959,722.549 -60.505,727.83C-52.746,733.326 -47.98,741.992 -46.508,753.985C-46.373,755.082 -46.698,756.185 -47.406,757.034C-48.113,757.883 -49.141,758.401 -50.244,758.466L-75.294,759.932ZM-84.308,757.458C-84.366,757.28 -84.411,757.096 -84.443,756.907C-85.045,753.406 -86.148,750.781 -88.075,749.19C-90.005,747.596 -92.711,746.941 -96.111,746.941C-98.654,746.941 -100.622,747.285 -101.909,748.363C-102.791,749.101 -103.29,749.969 -103.29,751.027C-103.29,751.569 -102.893,751.973 -102.382,752.407C-102.349,752.435 -102.316,752.464 -102.284,752.493C-101.059,753.603 -98.061,754.38 -93.467,755.338C-93.458,755.34 -93.449,755.341 -93.44,755.343C-90.187,756.044 -87.143,756.75 -84.308,757.458ZM-140.618,794.48C-139.728,804.886 -135.907,813.465 -129.157,820.215C-122.407,826.965 -110.267,830.34 -92.736,830.34C-82.751,830.34 -74.478,828.898 -67.915,826.015C-61.353,823.133 -56.243,818.902 -52.587,813.324C-48.931,807.746 -47.103,801.652 -47.103,795.043C-47.103,789.418 -48.474,784.332 -51.216,779.785C-53.958,775.238 -58.341,771.429 -64.364,768.359C-70.388,765.289 -80.361,762.254 -94.282,759.254C-99.907,758.082 -103.47,756.816 -104.97,755.457C-106.517,754.144 -107.29,752.668 -107.29,751.027C-107.29,748.777 -106.353,746.867 -104.478,745.297C-102.603,743.726 -99.814,742.941 -96.111,742.941C-91.611,742.941 -88.083,743.996 -85.528,746.105C-82.974,748.215 -81.298,751.59 -80.501,756.23L-50.478,754.472C-51.79,743.785 -55.903,735.992 -62.818,731.093C-69.732,726.195 -79.775,723.746 -92.946,723.746C-103.681,723.746 -112.13,725.093 -118.294,727.789C-124.458,730.484 -129.075,734.187 -132.146,738.898C-135.216,743.609 -136.751,748.613 -136.751,753.91C-136.751,761.972 -133.751,768.605 -127.751,773.808C-121.798,779.011 -111.837,783.183 -97.868,786.324C-89.337,788.199 -83.9,790.191 -81.556,792.301C-79.212,794.41 -78.04,796.801 -78.04,799.472C-78.04,802.285 -79.271,804.758 -81.732,806.89C-84.193,809.023 -87.696,810.09 -92.243,810.09C-98.337,810.09 -103.025,808.004 -106.306,803.832C-108.321,801.254 -109.657,797.504 -110.314,792.582L-140.618,794.48ZM-30.931,721.504L0.921,721.504C3.13,721.504 4.921,723.295 4.921,725.504L4.921,757.574L31.725,757.574L31.725,725.504C31.725,723.295 33.516,721.504 35.725,721.504L67.718,721.504C69.927,721.504 71.718,723.295 71.718,725.504L71.718,828.582C71.718,830.791 69.927,832.582 67.718,832.582L35.725,832.582C33.516,832.582 31.725,830.791 31.725,828.582L31.725,790.886L4.921,790.886L4.921,828.582C4.921,830.791 3.13,832.582 0.921,832.582L-30.931,832.582C-33.14,832.582 -34.931,830.791 -34.931,828.582L-34.931,725.504C-34.931,723.295 -33.14,721.504 -30.931,721.504ZM-30.931,725.504L-30.931,828.582L0.921,828.582L0.921,786.886L35.725,786.886L35.725,828.582L67.718,828.582L67.718,725.504L35.725,725.504L35.725,761.574L0.921,761.574L0.921,725.504L-30.931,725.504ZM155.96,721.504L187.741,721.504C189.95,721.504 191.741,723.295 191.741,725.504L191.741,786.957C191.741,793.518 190.712,799.713 188.668,805.542C186.568,811.53 183.276,816.766 178.792,821.25C174.286,825.757 169.538,828.892 164.589,830.717C158.014,833.156 150.126,834.41 140.913,834.41C135.753,834.41 130.124,834.051 124.024,833.327C117.538,832.558 112.127,830.997 107.769,828.715C103.359,826.407 99.315,823.139 95.657,818.885C91.95,814.573 89.44,810.115 88.073,805.54C85.975,798.548 84.952,792.351 84.952,786.957L84.952,725.504C84.952,723.295 86.743,721.504 88.952,721.504L120.733,721.504C122.942,721.504 124.733,723.295 124.733,725.504L124.733,788.433C124.733,792.84 125.816,796.331 128.258,798.81C130.68,801.267 134.086,802.363 138.382,802.363C142.644,802.363 146.033,801.282 148.456,798.859C150.895,796.419 151.96,792.909 151.96,788.433L151.96,725.504C151.96,723.295 153.751,721.504 155.96,721.504ZM155.96,725.504L155.96,788.433C155.96,794.152 154.401,798.57 151.284,801.687C148.167,804.804 143.866,806.363 138.382,806.363C132.85,806.363 128.526,804.781 125.409,801.617C122.292,798.453 120.733,794.058 120.733,788.433L120.733,725.504L88.952,725.504L88.952,786.957C88.952,792.019 89.936,797.832 91.905,804.394C93.124,808.472 95.386,812.433 98.69,816.277C101.995,820.121 105.639,823.086 109.624,825.172C113.608,827.258 118.565,828.652 124.495,829.355C130.425,830.058 135.897,830.41 140.913,830.41C149.585,830.41 157.014,829.261 163.202,826.965C167.655,825.324 171.909,822.476 175.964,818.422C180.018,814.367 182.995,809.633 184.893,804.218C186.792,798.804 187.741,793.051 187.741,786.957L187.741,725.504L155.96,725.504ZM208.975,721.504L287.725,721.504C289.935,721.504 291.725,723.295 291.725,725.504L291.725,747.652C291.725,749.861 289.935,751.652 287.725,751.652L244.968,751.652L244.968,761.652L280.905,761.652C283.114,761.652 284.905,763.443 284.905,765.652L284.905,786.465C284.905,788.674 283.114,790.465 280.905,790.465L244.968,790.465L244.968,828.582C244.968,830.791 243.177,832.582 240.968,832.582L208.975,832.582C206.766,832.582 204.975,830.791 204.975,828.582L204.975,725.504C204.975,723.295 206.766,721.504 208.975,721.504ZM208.975,725.504L208.975,828.582L240.968,828.582L240.968,786.465L280.905,786.465L280.905,765.652L240.968,765.652L240.968,747.652L287.725,747.652L287.725,725.504L208.975,725.504ZM305.022,721.504L383.772,721.504C385.981,721.504 387.772,723.295 387.772,725.504L387.772,747.652C387.772,749.861 385.981,751.652 383.772,751.652L341.014,751.652L341.014,761.652L376.952,761.652C379.161,761.652 380.952,763.443 380.952,765.652L380.952,786.465C380.952,788.674 379.161,790.465 376.952,790.465L341.014,790.465L341.014,828.582C341.014,830.791 339.224,832.582 337.014,832.582L305.022,832.582C302.813,832.582 301.022,830.791 301.022,828.582L301.022,725.504C301.022,723.295 302.813,721.504 305.022,721.504ZM305.022,725.504L305.022,828.582L337.014,828.582L337.014,786.465L376.952,786.465L376.952,765.652L337.014,765.652L337.014,747.652L383.772,747.652L383.772,725.504L305.022,725.504ZM400.929,721.504L432.78,721.504C434.989,721.504 436.78,723.295 436.78,725.504C436.78,725.504 436.78,799.199 436.78,799.199L482.491,799.199C484.7,799.199 486.491,800.99 486.491,803.199L486.491,828.582C486.491,830.791 484.7,832.582 482.491,832.582L400.929,832.582C398.719,832.582 396.929,830.791 396.929,828.582L396.929,725.504C396.929,723.295 398.719,721.504 400.929,721.504ZM400.929,725.504L400.929,828.582L482.491,828.582L482.491,803.199L432.78,803.199L432.78,725.504L400.929,725.504ZM496.905,721.504L582.264,721.504C584.474,721.504 586.264,723.295 586.264,725.504L586.264,747.511C586.264,749.721 584.474,751.511 582.264,751.511L532.827,751.511C532.827,751.511 532.827,759.894 532.827,759.894L578.397,759.894C580.606,759.894 582.397,761.685 582.397,763.894L582.397,784.918C582.397,787.127 580.606,788.918 578.397,788.918L532.827,788.918L532.827,801.238L583.811,801.238C586.021,801.238 587.811,803.029 587.811,805.238L587.811,828.582C587.811,830.791 586.021,832.582 583.811,832.582L496.905,832.582C494.696,832.582 492.905,830.791 492.905,828.582L492.905,725.504C492.905,723.295 494.696,721.504 496.905,721.504ZM496.905,725.504L496.905,828.582L583.811,828.582L583.811,805.238L528.827,805.238L528.827,784.918L578.397,784.918L578.397,763.894L528.827,763.894L528.827,747.511L582.264,747.511L582.264,725.504L496.905,725.504Z"/>
                </g>
                <g transform="matrix(1,0,0,1,-90.2242,-38.9333)">
                    <g transform="matrix(600,0,0,600,302.224,646.409)">
                        <path d="M0.828,-0.314C0.799,-0.344 0.75,-0.323 0.75,-0.281L0.75,-0.188L0.656,-0.188L0.3,-0.663C0.288,-0.678 0.27,-0.688 0.25,-0.688L0.063,-0.688C0.028,-0.688 0,-0.66 0,-0.625C0,-0.59 0.028,-0.563 0.063,-0.563L0.219,-0.563L0.575,-0.087C0.587,-0.072 0.605,-0.063 0.625,-0.063L0.75,-0.063L0.75,0.031C0.75,0.073 0.8,0.094 0.83,0.064L0.984,-0.092C1.003,-0.11 1.003,-0.14 0.984,-0.158L0.828,-0.314ZM0.656,-0.563L0.75,-0.563L0.75,-0.469C0.75,-0.427 0.8,-0.406 0.828,-0.436L0.983,-0.592C1.001,-0.61 1.001,-0.64 0.983,-0.658L0.828,-0.814C0.799,-0.844 0.748,-0.823 0.748,-0.781L0.748,-0.688L0.625,-0.688C0.605,-0.688 0.587,-0.678 0.575,-0.662L0.496,-0.557L0.572,-0.453L0.656,-0.563ZM0.219,-0.188L0.063,-0.188C0.028,-0.188 0,-0.16 0,-0.125C0,-0.09 0.028,-0.063 0.063,-0.063L0.25,-0.063C0.27,-0.063 0.288,-0.072 0.3,-0.088L0.379,-0.193L0.301,-0.297L0.219,-0.188Z" style="fill:white;fill-rule:nonzero;stroke:black;stroke-width:0.02px;"/>
                    </g>
                </g>
            </g>
        </g>
    </g>
</svg>
