<?xml version="1.0" encoding="UTF-8" standalone="no"?>
<!DOCTYPE svg PUBLIC "-//W3C//DTD SVG 1.1//EN" "http://www.w3.org/Graphics/SVG/1.1/DTD/svg11.dtd">
<svg width="100%" height="100%" viewBox="0 0 148 138" version="1.1" xmlns="http://www.w3.org/2000/svg" xmlns_xlink="http://www.w3.org/1999/xlink" xml_space="preserve" xmlns_serif="http://www.serif.com/" style="fill-rule:evenodd;clip-rule:evenodd;stroke-linecap:round;stroke-linejoin:round;stroke-miterlimit:1.5;">
    <g transform="matrix(1,0,0,1,-326.929,-159.542)">
        <g transform="matrix(1,0,0,1,-6.47986,98.4064)">
            <g transform="matrix(0.962164,0,0,0.962164,23.0968,-157.429)">
                <circle cx="406.384" cy="298.95" r="67.435" style="fill:rgb(255,212,121);"/>
            </g>
            <g transform="matrix(1,0,0,1,-3.75946,31.9214)">
                <path d="M392.552,38.244L424.265,116.716C424.265,116.716 450.843,107.458 459.979,100.017C468.727,92.891 479.078,72.069 479.078,72.069C479.078,72.069 460.933,43.494 446.706,37.382C419.791,25.821 392.552,38.244 392.552,38.244Z" style="fill:rgb(255,38,0);fill-opacity:0.5;"/>
            </g>
            <path d="M392.968,155.784C392.968,155.784 391.488,181.998 395.011,188.75L395.011,186.75C398.177,192.818 407.301,197.037 414.105,196.297C429.32,194.641 431.793,189.107 436.466,181.484C437.354,180.037 436.595,141.453 436.595,141.453L392.968,155.784Z" style="fill:rgb(255,147,0);"/>
            <g transform="matrix(0.206894,0,0,0.206894,296.981,61.0257)">
                <circle cx="406.384" cy="298.95" r="67.435" style="fill:white;"/>
            </g>
            <g transform="matrix(0.290722,0,0,0.304735,315.565,11.2263)">
                <circle cx="406.384" cy="298.95" r="67.435" style="fill:white;"/>
            </g>
            <g transform="matrix(132,0,0,132,330.316,173.284)">
                <path d="M0.511,0.151C0.456,0.137 0.405,0.115 0.358,0.084C0.311,0.054 0.271,0.017 0.236,-0.027C0.201,-0.07 0.175,-0.119 0.156,-0.172C0.136,-0.226 0.127,-0.282 0.127,-0.342C0.127,-0.412 0.14,-0.478 0.166,-0.539C0.192,-0.601 0.229,-0.655 0.275,-0.701C0.322,-0.748 0.376,-0.784 0.437,-0.81C0.499,-0.837 0.564,-0.85 0.635,-0.85C0.705,-0.85 0.77,-0.837 0.832,-0.81C0.893,-0.784 0.947,-0.748 0.994,-0.701C1.04,-0.655 1.077,-0.601 1.103,-0.539C1.129,-0.478 1.143,-0.412 1.143,-0.342C1.143,-0.282 1.133,-0.226 1.114,-0.172C1.095,-0.119 1.068,-0.07 1.033,-0.027C0.999,0.017 0.958,0.054 0.911,0.084C0.865,0.115 0.814,0.137 0.758,0.151L0.777,0.105C0.824,0.09 0.868,0.068 0.908,0.04C0.947,0.011 0.982,-0.023 1.011,-0.062C1.041,-0.101 1.063,-0.145 1.079,-0.192C1.095,-0.24 1.104,-0.289 1.104,-0.342C1.104,-0.407 1.091,-0.467 1.067,-0.524C1.043,-0.581 1.009,-0.63 0.966,-0.673C0.923,-0.716 0.874,-0.75 0.817,-0.774C0.76,-0.798 0.7,-0.811 0.635,-0.811C0.57,-0.811 0.509,-0.798 0.453,-0.774C0.396,-0.75 0.346,-0.716 0.303,-0.673C0.26,-0.63 0.227,-0.581 0.202,-0.524C0.178,-0.467 0.166,-0.407 0.166,-0.342C0.166,-0.289 0.174,-0.24 0.19,-0.192C0.206,-0.145 0.229,-0.101 0.258,-0.062C0.288,-0.023 0.322,0.011 0.362,0.04C0.402,0.068 0.445,0.09 0.493,0.105L0.511,0.151ZM0.633,0.19C0.575,0.19 0.53,0.176 0.497,0.146C0.465,0.116 0.449,0.074 0.449,0.021L0.449,-0.126L0.488,-0.136L0.488,0.021C0.488,0.063 0.5,0.095 0.525,0.118C0.55,0.14 0.586,0.151 0.633,0.151L0.642,0.151C0.689,0.151 0.725,0.14 0.75,0.118C0.774,0.096 0.787,0.063 0.787,0.021L0.787,-0.236L0.826,-0.256L0.826,0.021C0.826,0.074 0.81,0.116 0.777,0.146C0.745,0.176 0.7,0.19 0.642,0.19L0.633,0.19ZM0.625,0.034L0.625,-0.161L0.654,-0.17L0.654,0.034L0.625,0.034ZM0.388,-0.277C0.366,-0.277 0.346,-0.283 0.328,-0.293C0.31,-0.304 0.295,-0.319 0.285,-0.337C0.274,-0.355 0.269,-0.375 0.269,-0.396C0.269,-0.419 0.274,-0.439 0.285,-0.457C0.295,-0.475 0.31,-0.489 0.328,-0.5C0.346,-0.51 0.366,-0.516 0.388,-0.516C0.41,-0.516 0.43,-0.51 0.448,-0.5C0.466,-0.489 0.48,-0.475 0.491,-0.457C0.502,-0.439 0.507,-0.419 0.507,-0.396C0.507,-0.375 0.502,-0.355 0.491,-0.337C0.48,-0.319 0.466,-0.304 0.448,-0.293C0.43,-0.283 0.41,-0.277 0.388,-0.277ZM0.388,-0.307C0.413,-0.307 0.434,-0.315 0.451,-0.333C0.469,-0.351 0.478,-0.372 0.478,-0.396C0.478,-0.422 0.469,-0.443 0.451,-0.46C0.434,-0.478 0.413,-0.486 0.388,-0.486C0.363,-0.486 0.342,-0.478 0.324,-0.46C0.307,-0.443 0.298,-0.422 0.298,-0.396C0.298,-0.372 0.307,-0.351 0.324,-0.333C0.342,-0.315 0.363,-0.307 0.388,-0.307ZM0.388,-0.359C0.378,-0.359 0.369,-0.363 0.362,-0.37C0.354,-0.378 0.351,-0.386 0.351,-0.396C0.351,-0.407 0.354,-0.416 0.362,-0.423C0.369,-0.43 0.378,-0.434 0.388,-0.434C0.398,-0.434 0.407,-0.43 0.414,-0.423C0.422,-0.416 0.425,-0.407 0.425,-0.396C0.425,-0.386 0.422,-0.378 0.414,-0.37C0.407,-0.363 0.398,-0.359 0.388,-0.359ZM0.465,0.012C0.43,-0.004 0.402,-0.022 0.382,-0.044C0.361,-0.065 0.351,-0.085 0.351,-0.103C0.351,-0.111 0.353,-0.117 0.358,-0.123C0.363,-0.128 0.369,-0.132 0.377,-0.135C0.389,-0.139 0.41,-0.144 0.44,-0.148C0.47,-0.153 0.504,-0.159 0.544,-0.168C0.584,-0.176 0.626,-0.188 0.669,-0.203C0.711,-0.218 0.748,-0.234 0.778,-0.25C0.809,-0.266 0.835,-0.281 0.857,-0.295C0.879,-0.309 0.898,-0.32 0.914,-0.329C0.929,-0.337 0.943,-0.342 0.955,-0.342C0.967,-0.342 0.977,-0.335 0.983,-0.322C0.99,-0.309 0.993,-0.292 0.993,-0.273C0.993,-0.244 0.985,-0.212 0.97,-0.179C0.955,-0.146 0.933,-0.115 0.905,-0.084C0.876,-0.053 0.843,-0.027 0.806,-0.005L0.806,-0.222C0.773,-0.205 0.737,-0.189 0.699,-0.175C0.66,-0.161 0.621,-0.149 0.582,-0.139C0.542,-0.129 0.503,-0.121 0.465,-0.116L0.465,0.012ZM0.784,-0.375C0.755,-0.375 0.728,-0.382 0.704,-0.397C0.679,-0.412 0.66,-0.431 0.645,-0.456C0.63,-0.48 0.623,-0.507 0.623,-0.536C0.623,-0.565 0.63,-0.592 0.645,-0.617C0.66,-0.641 0.679,-0.661 0.704,-0.676C0.728,-0.69 0.755,-0.698 0.784,-0.698C0.813,-0.698 0.84,-0.69 0.865,-0.676C0.889,-0.661 0.909,-0.641 0.924,-0.617C0.938,-0.592 0.946,-0.565 0.946,-0.536C0.946,-0.507 0.938,-0.48 0.924,-0.456C0.909,-0.431 0.889,-0.412 0.865,-0.397C0.84,-0.382 0.813,-0.375 0.784,-0.375ZM0.784,-0.404C0.808,-0.404 0.83,-0.41 0.85,-0.422C0.87,-0.434 0.886,-0.451 0.898,-0.471C0.91,-0.491 0.917,-0.513 0.917,-0.536C0.917,-0.56 0.91,-0.582 0.898,-0.602C0.886,-0.622 0.87,-0.638 0.85,-0.65C0.83,-0.662 0.808,-0.668 0.784,-0.668C0.761,-0.668 0.739,-0.662 0.719,-0.65C0.699,-0.638 0.682,-0.622 0.67,-0.602C0.658,-0.582 0.652,-0.56 0.652,-0.536C0.652,-0.513 0.658,-0.491 0.67,-0.471C0.682,-0.451 0.699,-0.434 0.719,-0.422C0.739,-0.41 0.761,-0.404 0.784,-0.404ZM0.784,-0.487C0.771,-0.487 0.759,-0.492 0.75,-0.501C0.74,-0.511 0.735,-0.523 0.735,-0.536C0.735,-0.55 0.74,-0.561 0.75,-0.571C0.759,-0.581 0.771,-0.585 0.784,-0.585C0.798,-0.585 0.809,-0.581 0.819,-0.571C0.829,-0.561 0.833,-0.55 0.833,-0.536C0.833,-0.523 0.829,-0.511 0.819,-0.501C0.809,-0.492 0.798,-0.487 0.784,-0.487Z" style="fill-rule:nonzero;"/>
            </g>
        </g>
        <g transform="matrix(0.998956,-0.0456753,0.0456753,0.998956,-19.3156,24.3426)">
            <g transform="matrix(0.764196,-0.2273,0.2273,0.764196,208.287,203.891)">
                <path d="M164.996,57.645L179.966,51.709L220.064,52.34L231.034,60.119L231.034,91.859L224.04,100.017L204.829,104.647L185.578,103.906L172.093,98.498L167.436,81.374L164.996,57.645" style="fill:white;stroke:white;stroke-width:4.39px;"/>
                <path d="M259.504,55.343L278.516,51.32L321.324,53.716L323.321,61.841L318.722,88.948L309.881,101.769L298.259,104.647L276.168,103.906L260.289,100.017L252.859,83.959L252.859,66.903L259.504,55.343Z" style="fill:white;stroke:white;stroke-width:4.39px;"/>
                <path d="M236.535,60.683L250.852,60.913C250.852,60.913 254.973,52.997 258.785,51.43C264.184,49.212 275.381,48.159 283.25,47.599C290.815,47.06 299.98,47.717 305.998,48.068C310.478,48.33 314.945,48.909 319.36,49.709C323.915,50.535 333.326,53.022 333.326,53.022L333.326,66.262C333.326,66.262 328.374,68.655 327.192,70.939C325.514,74.183 324.869,80.886 323.256,85.725C321.64,90.571 320.158,96.571 317.496,100.017C315.042,103.194 311.161,105.36 307.283,106.4C302.216,107.759 293.837,108.543 287.091,108.17C279.56,107.755 267.803,106.262 262.098,103.906C257.932,102.186 254.802,98.102 252.859,94.035C250.865,89.861 250.78,83.3 250.13,78.862C249.575,75.064 248.963,67.405 248.963,67.405L238.141,67.161C238.141,67.161 235.618,87.737 234.138,93.213C233.41,95.907 231.369,98.187 229.263,100.017C226.844,102.119 223.243,104.827 219.628,105.823C214.588,107.211 205.535,108.178 199.022,108.344C192.847,108.502 185.709,108.463 180.552,106.822C175.79,105.306 170.864,102.65 168.083,98.498C165.056,93.977 163.683,84.347 162.387,79.697C161.552,76.701 161.165,72.607 160.311,70.599C159.756,69.297 158.496,68.285 157.258,67.649C156.021,67.013 152.883,66.784 152.883,66.784L152.883,52.446C152.883,52.446 162.76,50.386 167.755,49.709C173.826,48.887 182.44,47.864 189.306,47.511C195.846,47.174 203.311,47.223 208.952,47.589C213.727,47.9 219.225,48.535 223.149,49.709C226.522,50.719 230.262,52.804 232.493,54.633C234.369,56.171 236.535,60.683 236.535,60.683ZM309.275,55.465C302.345,54.412 282.946,53.544 275.104,53.833C270.669,53.996 265.315,55.094 262.223,57.201C259.23,59.241 257.181,62.906 256.557,66.475C255.746,71.116 255.948,77.393 256.358,82.048C256.636,85.203 257.329,91.825 259.015,94.403C260.701,96.981 264.031,100.028 267.476,100.517C274.65,101.536 287.253,102.495 294.124,102.242C296.391,102.158 306.855,100.29 308.698,98.998C310.541,97.706 313.353,93.195 314.119,90.766C315.744,85.613 317.853,73.511 318.447,68.075C318.74,65.386 318.207,62.255 316.679,60.154C315.15,58.052 312.163,55.905 309.275,55.465ZM176.793,54.965C173.905,55.404 170.917,57.552 169.389,59.653C167.86,61.755 167.327,64.885 167.621,67.575C168.214,73.01 170.324,85.112 171.948,90.266C172.714,92.695 175.527,97.206 177.369,98.498C179.212,99.79 189.676,101.658 191.944,101.742C198.814,101.995 211.417,101.036 218.592,100.017C222.037,99.528 225.366,96.481 227.052,93.903C228.739,91.324 229.432,84.702 229.709,81.548C230.119,76.893 230.321,70.616 229.51,65.975C228.887,62.406 226.837,58.741 223.844,56.701C220.753,54.594 215.398,53.496 210.964,53.333C203.122,53.043 183.722,53.912 176.793,54.965Z"/>
            </g>
            <g transform="matrix(1,0,0,1,0,125.01)">
                <g transform="matrix(1,0,0,1,1.86089,3.08822)">
                    <circle cx="438.273" cy="69.069" r="7.253"/>
                </g>
                <g transform="matrix(1,0,-6.93889e-18,1,-55.321,19.9323)">
                    <circle cx="438.273" cy="69.069" r="7.253"/>
                </g>
            </g>
        </g>
    </g>
</svg>
