<?xml version="1.0" encoding="UTF-8" standalone="no"?>
<!DOCTYPE svg PUBLIC "-//W3C//DTD SVG 1.1//EN" "http://www.w3.org/Graphics/SVG/1.1/DTD/svg11.dtd">
<svg width="100%" height="100%" viewBox="0 0 1024 1024" version="1.1" xmlns="http://www.w3.org/2000/svg" xmlnsXlink="http://www.w3.org/1999/xlink" xmlSpace="preserve" xmlnsSerif="http://www.serif.com/" style="fill-rule:evenodd;clip-rule:evenodd;stroke-linejoin:round;stroke-miterlimit:2;">
    <rect id="Artboard1" x="0" y="0" width="1024" height="1024" style="fill:none;"/>
    <g id="Artboard11" serifId="Artboard1">
        <g id="Layer1">
            <g>
                <g transform="matrix(1,0,0,1,289.595,54.0885)">
                    <g transform="matrix(192,0,0,192,-86.923,862.941)">
                        <path d="M0.035,-0.237L0.245,-0.25C0.25,-0.216 0.259,-0.19 0.273,-0.172C0.296,-0.143 0.328,-0.128 0.371,-0.128C0.402,-0.128 0.427,-0.136 0.444,-0.151C0.461,-0.165 0.469,-0.183 0.469,-0.202C0.469,-0.221 0.461,-0.237 0.445,-0.252C0.429,-0.267 0.391,-0.28 0.332,-0.293C0.235,-0.315 0.165,-0.344 0.124,-0.38C0.082,-0.417 0.062,-0.463 0.062,-0.519C0.062,-0.555 0.072,-0.59 0.094,-0.623C0.115,-0.656 0.147,-0.681 0.19,-0.7C0.233,-0.719 0.291,-0.728 0.366,-0.728C0.457,-0.728 0.527,-0.711 0.575,-0.677C0.623,-0.643 0.652,-0.589 0.661,-0.515L0.452,-0.502C0.447,-0.535 0.435,-0.558 0.417,-0.573C0.399,-0.587 0.375,-0.595 0.344,-0.595C0.318,-0.595 0.299,-0.589 0.286,-0.578C0.273,-0.567 0.266,-0.554 0.266,-0.539C0.266,-0.527 0.271,-0.517 0.282,-0.508C0.293,-0.498 0.317,-0.49 0.356,-0.481C0.453,-0.461 0.522,-0.44 0.564,-0.418C0.606,-0.397 0.636,-0.37 0.656,-0.339C0.675,-0.307 0.684,-0.272 0.684,-0.233C0.684,-0.187 0.671,-0.145 0.646,-0.106C0.621,-0.067 0.585,-0.038 0.54,-0.018C0.494,0.002 0.437,0.012 0.367,0.012C0.245,0.012 0.161,-0.011 0.114,-0.058C0.067,-0.105 0.041,-0.165 0.035,-0.237Z" style="fill:white;fill-rule:nonzero;"/>
                    </g>
                    <g transform="matrix(192,0,0,192,51.7332,862.941)">
                        <path d="M-0,-0.716L0.209,-0.716L0.285,-0.316L0.396,-0.716L0.605,-0.716L0.716,-0.316L0.792,-0.716L1,-0.716L0.843,-0L0.626,-0L0.5,-0.451L0.375,-0L0.159,-0L-0,-0.716Z" style="fill:white;fill-rule:nonzero;"/>
                    </g>
                    <g transform="matrix(192,0,0,192,243.733,862.941)">
                        <path d="M0.514,-0.118L0.262,-0.118L0.227,-0L0.001,-0L0.27,-0.716L0.511,-0.716L0.78,-0L0.549,-0L0.514,-0.118ZM0.467,-0.273L0.388,-0.53L0.31,-0.273L0.467,-0.273Z" style="fill:white;fill-rule:nonzero;"/>
                    </g>
                    <g transform="matrix(192,0,0,192,393.077,862.941)">
                        <path d="M0.072,-0.716L0.44,-0.716C0.52,-0.716 0.58,-0.697 0.62,-0.659C0.66,-0.621 0.68,-0.566 0.68,-0.496C0.68,-0.424 0.658,-0.367 0.615,-0.327C0.571,-0.286 0.505,-0.266 0.416,-0.266L0.294,-0.266L0.294,-0L0.072,-0L0.072,-0.716ZM0.294,-0.411L0.349,-0.411C0.391,-0.411 0.421,-0.418 0.438,-0.433C0.456,-0.448 0.464,-0.467 0.464,-0.49C0.464,-0.512 0.457,-0.531 0.442,-0.547C0.427,-0.563 0.399,-0.57 0.357,-0.57L0.294,-0.57L0.294,-0.411Z" style="fill:white;fill-rule:nonzero;"/>
                    </g>
                </g>
                <g transform="matrix(1,0,0,1,-90.2242,-38.9333)">
                    <g transform="matrix(600,0,0,600,227.224,646.409)">
                        <path d="M1.2,-0.221C1.192,-0.239 1.175,-0.252 1.156,-0.252L1.063,-0.252L1.063,-0.531C1.063,-0.617 0.992,-0.688 0.906,-0.688L0.656,-0.688C0.622,-0.688 0.594,-0.66 0.594,-0.625C0.594,-0.59 0.622,-0.563 0.656,-0.563L0.906,-0.563C0.923,-0.563 0.938,-0.548 0.938,-0.531L0.938,-0.252L0.844,-0.252C0.825,-0.252 0.808,-0.24 0.8,-0.223C0.793,-0.205 0.797,-0.185 0.811,-0.172L0.967,-0.015C0.976,-0.004 0.988,-0 1,-0C1.012,-0 1.024,-0.005 1.033,-0.014L1.189,-0.17C1.203,-0.183 1.207,-0.204 1.2,-0.221ZM0.594,-0.188L0.344,-0.188C0.327,-0.188 0.313,-0.202 0.313,-0.219L0.313,-0.5L0.406,-0.5C0.425,-0.5 0.442,-0.511 0.45,-0.529C0.457,-0.546 0.453,-0.567 0.439,-0.58L0.283,-0.736C0.274,-0.745 0.262,-0.75 0.25,-0.75C0.238,-0.75 0.226,-0.745 0.217,-0.736L0.061,-0.58C0.047,-0.567 0.043,-0.546 0.05,-0.529C0.058,-0.511 0.075,-0.5 0.094,-0.5L0.188,-0.5L0.188,-0.219C0.188,-0.133 0.258,-0.063 0.344,-0.063L0.594,-0.063C0.628,-0.063 0.656,-0.09 0.656,-0.125C0.656,-0.16 0.628,-0.188 0.594,-0.188Z" style="fill:white;fill-rule:nonzero;"/>
                    </g>
                </g>
            </g>
        </g>
    </g>
</svg>
