<?xml version="1.0" encoding="UTF-8" standalone="no"?>
<!DOCTYPE svg PUBLIC "-//W3C//DTD SVG 1.1//EN" "http://www.w3.org/Graphics/SVG/1.1/DTD/svg11.dtd">
<svg width="100%" height="100%" viewBox="0 0 1024 1024" version="1.1" xmlns="http://www.w3.org/2000/svg" xmlnsXlink="http://www.w3.org/1999/xlink" xml:space="preserve" xmlnsSerif="http://www.serif.com/" style="fill-rule:evenodd;clip-rule:evenodd;stroke-linejoin:round;stroke-miterlimit:2;">
    <rect id="Artboard1" x="0" y="0" width="1024" height="1024" style="fill:none;"/>
    <g id="Artboard11" serifId="Artboard1">
        <g id="Layer1">
            <g id="SWAP">
                <g transform="matrix(1,0,0,1,295.595,61.0885)">
                    <g transform="matrix(144,0,0,144,-9.59098,828.582)">
                        <path d="M0.035,-0.237L0.245,-0.25C0.25,-0.216 0.259,-0.19 0.273,-0.172C0.296,-0.143 0.328,-0.128 0.371,-0.128C0.402,-0.128 0.427,-0.136 0.444,-0.151C0.461,-0.165 0.469,-0.183 0.469,-0.202C0.469,-0.221 0.461,-0.237 0.445,-0.252C0.429,-0.267 0.391,-0.28 0.332,-0.293C0.235,-0.315 0.165,-0.344 0.124,-0.38C0.082,-0.417 0.062,-0.463 0.062,-0.519C0.062,-0.555 0.072,-0.59 0.094,-0.623C0.115,-0.656 0.147,-0.681 0.19,-0.7C0.233,-0.719 0.291,-0.728 0.366,-0.728C0.457,-0.728 0.527,-0.711 0.575,-0.677C0.623,-0.643 0.652,-0.589 0.661,-0.515L0.452,-0.502C0.447,-0.535 0.435,-0.558 0.417,-0.573C0.399,-0.587 0.375,-0.595 0.344,-0.595C0.318,-0.595 0.299,-0.589 0.286,-0.578C0.273,-0.567 0.266,-0.554 0.266,-0.539C0.266,-0.527 0.271,-0.517 0.282,-0.508C0.293,-0.498 0.317,-0.49 0.356,-0.481C0.453,-0.461 0.522,-0.44 0.564,-0.418C0.606,-0.397 0.636,-0.37 0.656,-0.339C0.675,-0.307 0.684,-0.272 0.684,-0.233C0.684,-0.187 0.671,-0.145 0.646,-0.106C0.621,-0.067 0.585,-0.038 0.54,-0.018C0.494,0.002 0.437,0.012 0.367,0.012C0.245,0.012 0.161,-0.011 0.114,-0.058C0.067,-0.105 0.041,-0.165 0.035,-0.237Z" style="fill-rule:nonzero;"/>
                    </g>
                    <g transform="matrix(144,0,0,144,94.4012,828.582)">
                        <path d="M-0,-0.716L0.209,-0.716L0.285,-0.316L0.396,-0.716L0.605,-0.716L0.716,-0.316L0.792,-0.716L1,-0.716L0.843,-0L0.626,-0L0.5,-0.451L0.375,-0L0.159,-0L-0,-0.716Z" style="fill-rule:nonzero;"/>
                    </g>
                    <g transform="matrix(144,0,0,144,238.401,828.582)">
                        <path d="M0.514,-0.118L0.262,-0.118L0.227,-0L0.001,-0L0.27,-0.716L0.511,-0.716L0.78,-0L0.549,-0L0.514,-0.118ZM0.467,-0.273L0.388,-0.53L0.31,-0.273L0.467,-0.273Z" style="fill-rule:nonzero;"/>
                    </g>
                    <g transform="matrix(144,0,0,144,350.409,828.582)">
                        <path d="M0.072,-0.716L0.44,-0.716C0.52,-0.716 0.58,-0.697 0.62,-0.659C0.66,-0.621 0.68,-0.566 0.68,-0.496C0.68,-0.424 0.658,-0.367 0.615,-0.327C0.571,-0.286 0.505,-0.266 0.416,-0.266L0.294,-0.266L0.294,-0L0.072,-0L0.072,-0.716ZM0.294,-0.411L0.349,-0.411C0.391,-0.411 0.421,-0.418 0.438,-0.433C0.456,-0.448 0.464,-0.467 0.464,-0.49C0.464,-0.512 0.457,-0.531 0.442,-0.547C0.427,-0.563 0.399,-0.57 0.357,-0.57L0.294,-0.57L0.294,-0.411Z" style="fill-rule:nonzero;"/>
                    </g>
                </g>
                <g transform="matrix(1,0,0,1,289.595,54.0885)">
                    <g transform="matrix(144,0,0,144,-9.59098,828.582)">
                        <path d="M0.035,-0.237L0.245,-0.25C0.25,-0.216 0.259,-0.19 0.273,-0.172C0.296,-0.143 0.328,-0.128 0.371,-0.128C0.402,-0.128 0.427,-0.136 0.444,-0.151C0.461,-0.165 0.469,-0.183 0.469,-0.202C0.469,-0.221 0.461,-0.237 0.445,-0.252C0.429,-0.267 0.391,-0.28 0.332,-0.293C0.235,-0.315 0.165,-0.344 0.124,-0.38C0.082,-0.417 0.062,-0.463 0.062,-0.519C0.062,-0.555 0.072,-0.59 0.094,-0.623C0.115,-0.656 0.147,-0.681 0.19,-0.7C0.233,-0.719 0.291,-0.728 0.366,-0.728C0.457,-0.728 0.527,-0.711 0.575,-0.677C0.623,-0.643 0.652,-0.589 0.661,-0.515L0.452,-0.502C0.447,-0.535 0.435,-0.558 0.417,-0.573C0.399,-0.587 0.375,-0.595 0.344,-0.595C0.318,-0.595 0.299,-0.589 0.286,-0.578C0.273,-0.567 0.266,-0.554 0.266,-0.539C0.266,-0.527 0.271,-0.517 0.282,-0.508C0.293,-0.498 0.317,-0.49 0.356,-0.481C0.453,-0.461 0.522,-0.44 0.564,-0.418C0.606,-0.397 0.636,-0.37 0.656,-0.339C0.675,-0.307 0.684,-0.272 0.684,-0.233C0.684,-0.187 0.671,-0.145 0.646,-0.106C0.621,-0.067 0.585,-0.038 0.54,-0.018C0.494,0.002 0.437,0.012 0.367,0.012C0.245,0.012 0.161,-0.011 0.114,-0.058C0.067,-0.105 0.041,-0.165 0.035,-0.237Z" style="fill:white;fill-rule:nonzero;"/>
                    </g>
                    <g transform="matrix(144,0,0,144,94.4012,828.582)">
                        <path d="M-0,-0.716L0.209,-0.716L0.285,-0.316L0.396,-0.716L0.605,-0.716L0.716,-0.316L0.792,-0.716L1,-0.716L0.843,-0L0.626,-0L0.5,-0.451L0.375,-0L0.159,-0L-0,-0.716Z" style="fill:white;fill-rule:nonzero;"/>
                    </g>
                    <g transform="matrix(144,0,0,144,238.401,828.582)">
                        <path d="M0.514,-0.118L0.262,-0.118L0.227,-0L0.001,-0L0.27,-0.716L0.511,-0.716L0.78,-0L0.549,-0L0.514,-0.118ZM0.467,-0.273L0.388,-0.53L0.31,-0.273L0.467,-0.273Z" style="fill:white;fill-rule:nonzero;"/>
                    </g>
                    <g transform="matrix(144,0,0,144,350.409,828.582)">
                        <path d="M0.072,-0.716L0.44,-0.716C0.52,-0.716 0.58,-0.697 0.62,-0.659C0.66,-0.621 0.68,-0.566 0.68,-0.496C0.68,-0.424 0.658,-0.367 0.615,-0.327C0.571,-0.286 0.505,-0.266 0.416,-0.266L0.294,-0.266L0.294,-0L0.072,-0L0.072,-0.716ZM0.294,-0.411L0.349,-0.411C0.391,-0.411 0.421,-0.418 0.438,-0.433C0.456,-0.448 0.464,-0.467 0.464,-0.49C0.464,-0.512 0.457,-0.531 0.442,-0.547C0.427,-0.563 0.399,-0.57 0.357,-0.57L0.294,-0.57L0.294,-0.411Z" style="fill:white;fill-rule:nonzero;"/>
                    </g>
                    <path d="M60.725,759.932C66.041,761.548 70.288,763.173 73.472,764.795C80.255,768.253 85.141,772.599 88.229,777.719C91.343,782.883 92.917,788.654 92.917,795.043C92.917,802.445 90.872,809.27 86.778,815.517C82.704,821.732 77.026,826.465 69.713,829.678C62.723,832.748 53.919,834.34 43.284,834.34C24.343,834.34 11.327,830.336 4.034,823.043C-3.374,815.636 -7.607,806.241 -8.584,794.821C-8.676,793.749 -8.331,792.684 -7.629,791.869C-6.926,791.053 -5.923,790.555 -4.849,790.488L25.456,788.59C27.552,788.458 29.393,789.971 29.671,792.053C30.212,796.109 31.202,799.239 32.862,801.364C35.399,804.586 39.068,806.09 43.776,806.09C47.169,806.09 49.832,805.459 51.668,803.868C53.143,802.589 53.979,801.158 53.979,799.472C53.979,797.888 53.178,796.525 51.788,795.274C49.717,793.41 44.829,791.887 37.293,790.231C37.286,790.229 37.28,790.228 37.274,790.227C22.464,786.897 11.957,782.342 5.643,776.826C-1.267,770.832 -4.732,763.197 -4.732,753.91C-4.732,747.844 -2.993,742.109 0.523,736.714C3.989,731.395 9.164,727.167 16.123,724.124C22.68,721.257 31.655,719.746 43.073,719.746C57.273,719.746 68.06,722.549 75.514,727.83C83.273,733.326 88.039,741.992 89.512,753.985C89.647,755.082 89.322,756.185 88.614,757.034C87.906,757.883 86.879,758.401 85.776,758.466L60.725,759.932ZM51.711,757.458C51.654,757.28 51.609,757.096 51.576,756.907C50.975,753.406 49.872,750.781 47.944,749.19C46.014,747.596 43.309,746.941 39.909,746.941C37.365,746.941 35.398,747.285 34.11,748.363C33.229,749.101 32.729,749.969 32.729,751.027C32.729,751.569 33.127,751.973 33.638,752.407C33.671,752.435 33.703,752.464 33.736,752.493C34.961,753.603 37.958,754.38 42.553,755.338C42.562,755.34 42.571,755.341 42.58,755.343C45.833,756.044 48.877,756.75 51.711,757.458ZM-4.599,794.48C-3.708,804.886 0.112,813.465 6.862,820.215C13.612,826.965 25.753,830.34 43.284,830.34C53.268,830.34 61.542,828.898 68.104,826.015C74.667,823.133 79.776,818.902 83.432,813.324C87.089,807.746 88.917,801.652 88.917,795.043C88.917,789.418 87.546,784.332 84.804,779.785C82.061,775.238 77.679,771.429 71.655,768.359C65.632,765.289 55.659,762.254 41.737,759.254C36.112,758.082 32.55,756.816 31.05,755.457C29.503,754.144 28.729,752.668 28.729,751.027C28.729,748.777 29.667,746.867 31.542,745.297C33.417,743.726 36.206,742.941 39.909,742.941C44.409,742.941 47.936,743.996 50.491,746.105C53.046,748.215 54.722,751.59 55.518,756.23L85.542,754.472C84.229,743.785 80.116,735.992 73.202,731.093C66.288,726.195 56.245,723.746 43.073,723.746C32.339,723.746 23.889,725.093 17.725,727.789C11.561,730.484 6.944,734.187 3.874,738.898C0.804,743.609 -0.732,748.613 -0.732,753.91C-0.732,761.972 2.268,768.605 8.268,773.808C14.222,779.011 24.182,783.183 38.151,786.324C46.682,788.199 52.12,790.191 54.464,792.301C56.807,794.41 57.979,796.801 57.979,799.472C57.979,802.285 56.749,804.758 54.288,806.89C51.827,809.023 48.323,810.09 43.776,810.09C37.682,810.09 32.995,808.004 29.714,803.832C27.698,801.254 26.362,797.504 25.706,792.582L-4.599,794.48ZM94.331,721.504L124.565,721.504C126.488,721.504 128.138,722.871 128.496,724.76L136.19,765.419L147.498,724.44C147.977,722.705 149.555,721.504 151.354,721.504L181.518,721.504C183.316,721.504 184.893,722.703 185.373,724.435L196.744,765.462L204.448,724.76C204.805,722.871 206.455,721.504 208.378,721.504L238.472,721.504C239.684,721.504 240.83,722.053 241.589,722.998C242.349,723.943 242.639,725.181 242.378,726.364L219.667,829.442C219.263,831.276 217.638,832.582 215.761,832.582L184.542,832.582C182.746,832.582 181.17,831.385 180.688,829.655L166.479,778.623L152.326,829.651C151.846,831.383 150.269,832.582 148.472,832.582L117.253,832.582C115.378,832.582 113.755,831.28 113.348,829.45L90.426,726.372C90.163,725.187 90.451,723.948 91.211,723.001C91.97,722.054 93.118,721.504 94.331,721.504ZM94.331,725.504L117.253,828.582L148.472,828.582L166.472,763.683L184.542,828.582L215.761,828.582L238.472,725.504L208.378,725.504L197.479,783.09L181.518,725.504L151.354,725.504L135.464,783.09L124.565,725.504L94.331,725.504ZM309.387,815.566L279.084,815.566L274.935,829.708C274.435,831.411 272.872,832.582 271.097,832.582L238.542,832.582C237.229,832.582 236,831.938 235.253,830.859C234.506,829.78 234.336,828.403 234.798,827.174L273.54,724.096C274.126,722.537 275.618,721.504 277.284,721.504L312.018,721.504C313.685,721.504 315.176,722.537 315.763,724.096L354.505,827.174C354.967,828.403 354.796,829.78 354.049,830.859C353.302,831.938 352.073,832.582 350.761,832.582L317.432,832.582C315.663,832.582 314.103,831.419 313.599,829.722L309.387,815.566ZM312.37,811.566L317.432,828.582L350.761,828.582L312.018,725.504L277.284,725.504L238.542,828.582L271.097,828.582L276.089,811.566L312.37,811.566ZM305.69,789.277L282.979,789.277L294.3,752.222L305.69,789.277ZM300.276,785.277C300.276,785.277 294.311,765.874 294.311,765.874L288.384,785.277L300.276,785.277ZM360.815,721.504L413.761,721.504C426.551,721.504 436.064,724.754 442.433,730.838C448.899,737.013 452.284,745.744 452.284,757.144C452.284,768.816 448.65,777.89 441.631,784.463C434.761,790.895 424.345,794.332 410.245,794.332C410.245,794.332 396.807,794.332 396.807,794.332L396.807,828.582C396.807,830.791 395.017,832.582 392.807,832.582L360.815,832.582C358.606,832.582 356.815,830.791 356.815,828.582L356.815,725.504C356.815,723.295 358.606,721.504 360.815,721.504ZM360.815,725.504L360.815,828.582L392.807,828.582L392.807,790.332L410.245,790.332C423.089,790.332 432.639,787.402 438.897,781.543C445.155,775.683 448.284,767.551 448.284,757.144C448.284,747.019 445.413,739.215 439.671,733.73C433.929,728.246 425.292,725.504 413.761,725.504L360.815,725.504ZM392.807,769.449L392.807,746.457L401.878,746.457C407.831,746.457 411.886,747.582 414.042,749.832C416.198,752.082 417.276,754.824 417.276,758.058C417.276,761.386 416.034,764.117 413.55,766.25C411.065,768.383 406.753,769.449 400.612,769.449L392.807,769.449ZM396.807,765.449L400.612,765.449C405.483,765.449 408.974,764.906 410.944,763.215C412.506,761.873 413.276,760.151 413.276,758.058C413.276,755.915 412.583,754.09 411.154,752.599C409.528,750.903 406.367,750.457 401.878,750.457C401.878,750.457 396.807,750.457 396.807,750.457L396.807,765.449Z"/>
                </g>
                <g transform="matrix(1,0,0,1,-90.2242,-38.9333)">
                    <g transform="matrix(600,0,0,600,227.224,646.409)">
                        <path d="M1.2,-0.221C1.192,-0.239 1.175,-0.252 1.156,-0.252L1.063,-0.252L1.063,-0.531C1.063,-0.617 0.992,-0.688 0.906,-0.688L0.656,-0.688C0.622,-0.688 0.594,-0.66 0.594,-0.625C0.594,-0.59 0.622,-0.563 0.656,-0.563L0.906,-0.563C0.923,-0.563 0.938,-0.548 0.938,-0.531L0.938,-0.252L0.844,-0.252C0.825,-0.252 0.808,-0.24 0.8,-0.223C0.793,-0.205 0.797,-0.185 0.811,-0.172L0.967,-0.015C0.976,-0.004 0.988,-0 1,-0C1.012,-0 1.024,-0.005 1.033,-0.014L1.189,-0.17C1.203,-0.183 1.207,-0.204 1.2,-0.221ZM0.594,-0.188L0.344,-0.188C0.327,-0.188 0.313,-0.202 0.313,-0.219L0.313,-0.5L0.406,-0.5C0.425,-0.5 0.442,-0.511 0.45,-0.529C0.457,-0.546 0.453,-0.567 0.439,-0.58L0.283,-0.736C0.274,-0.745 0.262,-0.75 0.25,-0.75C0.238,-0.75 0.226,-0.745 0.217,-0.736L0.061,-0.58C0.047,-0.567 0.043,-0.546 0.05,-0.529C0.058,-0.511 0.075,-0.5 0.094,-0.5L0.188,-0.5L0.188,-0.219C0.188,-0.133 0.258,-0.063 0.344,-0.063L0.594,-0.063C0.628,-0.063 0.656,-0.09 0.656,-0.125C0.656,-0.16 0.628,-0.188 0.594,-0.188Z" style="fill:white;fill-rule:nonzero;stroke:black;stroke-width:0.02px;"/>
                    </g>
                </g>
            </g>
        </g>
    </g>
</svg>
